<?xml version="1.0" encoding="utf-8"?>
<!-- Generator: Adobe Illustrator 25.0.0, SVG Export Plug-In . SVG Version: 6.00 Build 0)  -->
<svg version="1.1" id="Component_6_91" xmlns="http://www.w3.org/2000/svg" xmlns:xlink="http://www.w3.org/1999/xlink" x="0px"
	 y="0px" viewBox="0 0 40 40" style="enable-background:new 0 0 40 40;" xml:space="preserve">
<style type="text/css">
	.st0{fill:#FD3444;}
	.st1{fill:#FFFFFF;stroke:#FFFFFF;stroke-width:0.5;}
</style>
<g id="Group_169">
	<path id="Rectangle_13" class="st0" d="M5,0h30c2.8,0,5,2.2,5,5v30c0,2.8-2.2,5-5,5H5c-2.8,0-5-2.2-5-5V5C0,2.2,2.2,0,5,0z"/>
</g>
<g id="Group_25" transform="translate(8 7)">
	<path id="Path_10" class="st1" d="M21.3,4c-0.4-0.1-0.7,0.2-0.8,0.5c0,0,0,0,0,0l-1.1,5.3c-0.1,0.5-0.5,0.8-1,0.9L5,11.9L3.5,3.2
		C3.3,2.1,2.4,1.3,1.3,1.3H0c-0.4,0-0.6,0.3-0.6,0.7c0,0.3,0.3,0.6,0.6,0.6h1.3c0.4,0,0.8,0.3,0.9,0.8l2.2,13.3
		c0.2,1.1,1.1,1.8,2.2,1.9h13.2c0.4,0,0.6-0.3,0.6-0.7c0-0.3-0.3-0.6-0.6-0.6H6.6c-0.4,0-0.8-0.3-0.9-0.8l-0.5-3.3L18.6,12
		c1.1-0.1,1.9-0.9,2.2-1.9l1.1-5.3C21.9,4.4,21.7,4.1,21.3,4C21.3,4,21.3,4,21.3,4L21.3,4z"/>
	<path id="Path_11" class="st1" d="M8.6,25.1C7.1,25.1,6,24,6,22.5s1.2-2.6,2.6-2.6c1.5,0,2.6,1.2,2.6,2.6c0,0,0,0,0,0
		C11.2,24,10.1,25.1,8.6,25.1z M8.6,21.2c-0.7,0-1.3,0.6-1.3,1.3s0.6,1.3,1.3,1.3s1.3-0.6,1.3-1.3l0,0C9.9,21.8,9.3,21.2,8.6,21.2z"
		/>
	<path id="Path_12" class="st1" d="M17.9,25.1c-1.5,0-2.6-1.2-2.6-2.6s1.2-2.6,2.6-2.6c1.5,0,2.6,1.2,2.6,2.6c0,0,0,0,0,0
		C20.5,24,19.3,25.1,17.9,25.1z M17.9,21.2c-0.7,0-1.3,0.6-1.3,1.3s0.6,1.3,1.3,1.3s1.3-0.6,1.3-1.3l0,0
		C19.2,21.8,18.6,21.2,17.9,21.2z"/>
	<path id="Path_13" class="st1" d="M15.9,4h-3.3V0.7c0-0.4-0.3-0.7-0.7-0.6c-0.3,0-0.6,0.3-0.6,0.6V4H7.9C7.6,4,7.3,4.2,7.3,4.6
		s0.3,0.7,0.6,0.7c0,0,0,0,0.1,0h3.3v3.3c0,0.4,0.3,0.7,0.7,0.6c0.3,0,0.6-0.3,0.6-0.6V5.3h3.3c0.4,0,0.7-0.3,0.7-0.6S16.3,4,15.9,4
		C15.9,4,15.9,4,15.9,4z"/>
</g>
</svg>
