<svg xmlns="http://www.w3.org/2000/svg" width="33.559" height="35.5" viewBox="0 0 33.559 35.5">
  <g id="Group_217" data-name="Group 217" transform="translate(-1597.825 -89.359)">
    <g id="Group_1" data-name="Group 1" transform="translate(1598.075 89.609)">
      <path id="Path_1" data-name="Path 1" d="M295.217,246.556a3.909,3.909,0,1,1,3.909-3.909A3.912,3.912,0,0,1,295.217,246.556Zm0-5.864a1.955,1.955,0,1,0,1.955,1.955A1.959,1.959,0,0,0,295.217,240.692Z" transform="translate(-281.607 -211.556)" fill="#292929" stroke="#292929" stroke-width="0.5"/>
      <path id="Path_2" data-name="Path 2" d="M302.217,246.556a3.909,3.909,0,1,1,3.909-3.909A3.912,3.912,0,0,1,302.217,246.556Zm0-5.864a1.955,1.955,0,1,0,1.955,1.955A1.959,1.959,0,0,0,302.217,240.692Z" transform="translate(-275.04 -211.556)" fill="#292929" stroke="#292929" stroke-width="0.5"/>
      <path id="Path_3" data-name="Path 3" d="M318.568,228.637a.97.97,0,0,0-1.143.763l-1.563,7.8a1.785,1.785,0,0,1-1.448,1.292l-19.844,1.7-2.124-12.724a3.339,3.339,0,0,0-3.223-2.726H287.28a.97.97,0,1,0,0,1.94h1.944a1.406,1.406,0,0,1,1.3,1.106l3.248,19.456A3.337,3.337,0,0,0,297,249.964h19.436a.97.97,0,1,0,0-1.941H297a1.4,1.4,0,0,1-1.3-1.1l-.8-4.811,19.691-1.684a3.722,3.722,0,0,0,3.188-2.845l1.563-7.8a.97.97,0,0,0-.762-1.141Z" transform="translate(-286.308 -224.737)" fill="#292929" stroke="#292929" stroke-width="0.5"/>
    </g>
  </g>
</svg>
