<?xml version="1.0" encoding="utf-8"?>
<!-- Generator: Adobe Illustrator 25.0.0, SVG Export Plug-In . SVG Version: 6.00 Build 0)  -->
<svg version="1.1" id="Laag_1" xmlns="http://www.w3.org/2000/svg" xmlns:xlink="http://www.w3.org/1999/xlink" x="0px" y="0px"
	 viewBox="0 0 18.8 14.6" style="enable-background:new 0 0 18.8 14.6;" xml:space="preserve">
<path fill="#ffffff" class="st0" d="M18.3,0.5c-0.6-0.6-1.5-0.6-2,0L5.7,11.2L2.5,8c-0.3-0.3-0.6-0.4-1-0.4c0,0,0,0,0,0c-0.4,0-0.7,0.1-1,0.4
	C0.2,8.3,0.1,8.6,0.1,9c0,0.4,0.1,0.7,0.4,1l4.2,4.2c0.3,0.3,0.6,0.4,1,0.4c0,0,0,0,0,0c0.4,0,0.7-0.2,1-0.4L18.3,2.5
	C18.9,2,18.9,1.1,18.3,0.5z"/>
</svg>
