<svg id="_001-instagram" data-name="001-instagram" xmlns="http://www.w3.org/2000/svg" width="28" height="28" viewBox="0 0 28 28">
  <path id="Path_158" data-name="Path 158" d="M19.659,0H8.341A8.351,8.351,0,0,0,0,8.341V19.659A8.351,8.351,0,0,0,8.341,28H19.659A8.351,8.351,0,0,0,28,19.659V8.341A8.351,8.351,0,0,0,19.659,0Zm5.525,19.659a5.525,5.525,0,0,1-5.525,5.525H8.341a5.525,5.525,0,0,1-5.525-5.525V8.341A5.525,5.525,0,0,1,8.341,2.817H19.659a5.525,5.525,0,0,1,5.525,5.525V19.659Z" transform="translate(0)" fill="#e0e0e0"/>
  <path id="Path_159" data-name="Path 159" d="M140.242,133a7.242,7.242,0,1,0,7.242,7.242A7.25,7.25,0,0,0,140.242,133Zm0,11.667a4.425,4.425,0,1,1,4.425-4.425A4.425,4.425,0,0,1,140.242,144.667Z" transform="translate(-126.242 -126.242)" fill="#e0e0e0"/>
  <ellipse id="Ellipse_7" data-name="Ellipse 7" cx="1.735" cy="1.735" rx="1.735" ry="1.735" transform="translate(19.521 5.077)" fill="#e0e0e0"/>
</svg>
