<svg xmlns="http://www.w3.org/2000/svg" width="33.95" height="35.7" viewBox="0 0 33.95 35.7">
  <g id="Group_38" data-name="Group 38" transform="translate(-335.979 -223.231)">
    <path id="Path_34" data-name="Path 34" d="M349.954,242.831a9.625,9.625,0,1,1,9.625-9.625A9.634,9.634,0,0,1,349.954,242.831Zm0-17.5a7.875,7.875,0,1,0,7.875,7.875A7.883,7.883,0,0,0,349.954,225.331Z" transform="translate(3 0)" fill="#292929" stroke="#292929" stroke-width="0.7"/>
    <path id="Path_35" data-name="Path 35" d="M366.954,249.581h-28a2.627,2.627,0,0,1-2.625-2.625,10.437,10.437,0,0,1,2.142-5.775,12.443,12.443,0,0,1,5.021-3.883,26.93,26.93,0,0,1,18.923,0,12.459,12.459,0,0,1,5.021,3.883,10.447,10.447,0,0,1,2.144,5.775A2.628,2.628,0,0,1,366.954,249.581Zm-14-12.25c-6.1,0-10.607,1.668-13.024,4.821a8.87,8.87,0,0,0-1.851,4.805.875.875,0,0,0,.875.873h28a.876.876,0,0,0,.875-.875,8.883,8.883,0,0,0-1.853-4.8C363.555,239,359.054,237.331,352.954,237.331Z" transform="translate(0 9)" fill="#292929" stroke="#292929" stroke-width="0.7"/>
  </g>
</svg>
