<svg xmlns="http://www.w3.org/2000/svg" viewBox="0 0 18.49 15.09"><g id="Laag_2" data-name="Laag 2"><g id="Layer_1" data-name="Layer 1"><path d="M15,5a1.5,1.5,0,1,1,1.5-1.5A1.5,1.5,0,0,1,15,5Zm0-2a.5.5,0,0,0,0,1,.5.5,0,1,0,0-1Z"/><path d="M17,0h-3.5a3.26,3.26,0,0,0-2.06.85L3.84,8.44a1.5,1.5,0,0,0,0,2.12l2.6,2.6-1.09.64a.5.5,0,0,1-.38,0,.48.48,0,0,1-.31-.23L1.07,7.38a.49.49,0,0,1,.18-.68l8-4.61a.5.5,0,0,0,.18-.68.51.51,0,0,0-.68-.19l-8,4.61a1.54,1.54,0,0,0-.7.92A1.49,1.49,0,0,0,.2,7.88l3.6,6.23a1.46,1.46,0,0,0,.91.7,1.31,1.31,0,0,0,.39,0,1.56,1.56,0,0,0,.75-.2l1.32-.76.76.75A1.48,1.48,0,0,0,9,15.09a1.52,1.52,0,0,0,1.06-.44l7.58-7.59A3.22,3.22,0,0,0,18.49,5V1.5A1.5,1.5,0,0,0,17,0Zm.5,5a2.33,2.33,0,0,1-.56,1.35L9.34,13.94a.52.52,0,0,1-.36.14.5.5,0,0,1-.35-.14L4.54,9.85a.51.51,0,0,1,0-.7l7.59-7.59A2.33,2.33,0,0,1,13.48,1H17a.5.5,0,0,1,.5.5V5Z"/></g></g></svg>