<svg id="_003-twitter" data-name="003-twitter" xmlns="http://www.w3.org/2000/svg" width="28" height="28" viewBox="0 0 28 28">
  <ellipse id="Ellipse_9" data-name="Ellipse 9" cx="14" cy="14" rx="14" ry="14" transform="translate(0 0)" fill="#e0e0e0"/>
  <g id="Group_59" data-name="Group 59" transform="translate(6.265 8.492)">
    <path id="Path_161" data-name="Path 161" d="M41.414,35.6a6.676,6.676,0,0,1-1.922.526,3.355,3.355,0,0,0,1.472-1.851,6.7,6.7,0,0,1-2.125.812,3.349,3.349,0,0,0-5.7,3.053,9.5,9.5,0,0,1-6.9-3.5,3.35,3.35,0,0,0,1.035,4.468,3.323,3.323,0,0,1-1.516-.419c0,.014,0,.028,0,.042a3.348,3.348,0,0,0,2.685,3.281,3.359,3.359,0,0,1-1.511.058,3.35,3.35,0,0,0,3.126,2.324A6.755,6.755,0,0,1,25.1,45.78a9.517,9.517,0,0,0,14.651-8.018c0-.145,0-.289-.01-.433a6.786,6.786,0,0,0,1.67-1.732Z" transform="translate(-25.103 -34.028)" fill="#fff"/>
  </g>
</svg>
