<svg id="Laag_1" data-name="Laag 1" xmlns="http://www.w3.org/2000/svg" viewBox="0 0 250 80"><defs><style>.cls-1{fill:#61a534}.cls-2{isolation:isolate}</style></defs><path class="cls-1" d="M73.76 55.84h-1.5l-2.09-8.9-2.11 8.9h-1.5l-2.4-11.54h1.27l1.89 9.6 2.25-9.59h1.2l2.22 9.57 1.91-9.58h1.27l-2.41 11.54zM83.83 52H78.7v1a1.74 1.74 0 002 1.87 1.8 1.8 0 001.93-1.74h1.23a3 3 0 01-3.16 3 2.93 2.93 0 01-3.19-3.07v-2.81a3 3 0 013.19-3.06 2.91 2.91 0 013.17 3.06V52zm-1.23-1.75a1.72 1.72 0 00-1.94-1.86 1.76 1.76 0 00-2 1.86v.52h3.9v-.52zm6.24-1.7c-.65 0-1.51.49-1.51 1.88v5.41h-1.21v-8.5h1.21v.78a2.12 2.12 0 011.52-.78h.68v1.21zM97.62 52h-5.13v1a1.74 1.74 0 002 1.87 1.78 1.78 0 001.92-1.74h1.19a3 3 0 01-3.15 3 2.93 2.93 0 01-3.19-3.07v-2.81a3 3 0 013.19-3.06 2.91 2.91 0 013.17 3.06V52zm-1.23-1.72a1.72 1.72 0 00-1.94-1.86 1.75 1.75 0 00-2 1.86v.52h3.9v-.52zm3.46-6.1h1.23v9.52a.82.82 0 00.89.94h.39v1.2h-.47a1.94 1.94 0 01-2-2.2v-9.46zm4.15 6.07a2.87 2.87 0 013.12-3.06 2.38 2.38 0 011.91.85V44.3h1.23v11.54h-1.23v-.67a2.5 2.5 0 01-1.91.83 2.91 2.91 0 01-3.12-3.08v-2.67zm1.23 2.68a1.72 1.72 0 001.89 1.86 1.69 1.69 0 001.91-1.86v-2.68a1.72 1.72 0 00-1.91-1.86 1.68 1.68 0 00-1.89 1.86v2.68zm15.07 2.91h-1.44l-1.53-6.3-1.54 6.3h-1.43l-2-8.52h1.26l1.49 6.66 1.63-6.66h1.17l1.63 6.67 1.49-6.67h1.27l-2 8.52zm3.99-9.91v-1.75h1.49v1.75zm.15 9.91v-8.52h1.21v8.52zm8.78 0v-5.59c0-.84-.17-1.86-1.74-1.86a1.93 1.93 0 00-2.08 1.83v5.62h-1.21v-8.5h1.21v.78a2.68 2.68 0 012.08-.93 2.74 2.74 0 013 3.06v5.59zm8.73 0l-2.58-4.05-1.24 1.36v2.69h-1.23V44.18h1.23v7.26l3.72-4.12h1.6l-3.29 3.58 3.23 4.94h-1.44zM151.1 52H146v1a1.74 1.74 0 002 1.87 1.78 1.78 0 001.92-1.74h1.24a3 3 0 01-3.16 3 2.93 2.93 0 01-3.19-3.07v-2.81a3 3 0 013.19-3.06 2.91 2.91 0 013.17 3.06V52zm-1.23-1.72a1.72 1.72 0 00-1.94-1.86 1.75 1.75 0 00-2 1.86v.52h3.9v-.52zm3.47-6.1h1.23v9.52a.82.82 0 00.89.94h.39v1.2h-.47a1.93 1.93 0 01-2-2.2v-9.46zM53 27A26 26 0 1127 1a26 26 0 0126 26zm-36.37-5.85h4.74a.27.27 0 00.27-.26 5.4 5.4 0 0110.68 0 .28.28 0 00.28.26h4.72a.27.27 0 00.27-.26 10.64 10.64 0 00-21.23 0 .27.27 0 00.27.26zM32.07 31a10.61 10.61 0 005.51-8.53.27.27 0 00-.27-.26h-4.74a.26.26 0 00-.26.26 5.4 5.4 0 01-10.68 0 .27.27 0 00-.27-.26h-4.74a.26.26 0 00-.26.26 10.63 10.63 0 005.5 8.53 10.66 10.66 0 00-5.53 9.07.27.27 0 00.27.27h4.71a.27.27 0 00.27-.27 5.4 5.4 0 0110.78 0 .27.27 0 00.27.27h4.71a.27.27 0 00.27-.27A10.65 10.65 0 0032.07 31zm41.61-1.21c0 1.56-1.6 2.09-2.54 2.09s-2.54-.53-2.54-2.09v-8.51c0-1.56 1.6-2.09 2.54-2.09s2.54.52 2.54 2.09v8.51zm-2.54-14.73c-4.54 0-6.65 3.2-6.65 5.9v9.15c0 2.7 2.11 5.88 6.65 5.9s6.65-3.2 6.65-5.9V21c0-2.7-2.11-5.89-6.65-5.9zm29.14 20.57v-7.96h6.14v-4.08h-6.11v-4.05h7.11v-4.11H96.19v20.2h4.09zm14.1-13.89l1.62 6.35h-3.31l1.67-6.35zM118 35.63h4.09l-5.35-20.2h-4.8l-5.27 20.2h4.12l.94-3.58H117l.93 3.58zM88.86 25.52l5.23-10.09h-4.75l-2.86 5.88-2.86-5.88h-4.74l5.23 10.09-5.26 10.11h4.8l2.83-5.86 2.84 5.86h4.8l-5.26-10.11zm46.41-10.09l-3.61 7.77-3.67-7.77h-4.21v20.2h4.02V24.14l2.58 5.38h2.56l2.58-5.36v11.47h4.02v-20.2h-4.27z"/><g class="cls-2"><path class="cls-1" d="M70.2 74.5l-3.15-5.31-1 1.44v3.87h-1.22V63h1.25v5.49L70 63h1.4l-3.63 5.17 3.85 6.38zm8.97 0h-1.23v-.81a2.83 2.83 0 01-2.25 1 2.65 2.65 0 01-2.84-2.77c0-1.59 1.17-2.42 2.72-2.42h2.37v-.81c0-1.25-.75-1.6-1.75-1.6a1.58 1.58 0 00-1.8 1.57h-1.22a2.82 2.82 0 013-2.77c1.46 0 3 .71 3 2.75zm-1.23-3.89h-2.33c-.93 0-1.54.36-1.54 1.27 0 1.26.92 1.55 1.81 1.55a1.92 1.92 0 002.06-1.83zm6.43 4.02a2.85 2.85 0 01-3.14-2.92h1.21c0 1.12.76 1.71 1.93 1.71 1 0 2-.25 2-1.45 0-.55-.4-.86-1-1l-2.16-.52a2.22 2.22 0 01-1.86-2.1c0-1.77 1.39-2.47 3-2.47a2.82 2.82 0 013.13 2.76h-1.26c-.07-1-.7-1.56-1.93-1.56-.84 0-1.72.25-1.72 1.27a1.08 1.08 0 00.94 1c.62.15 1.56.34 2.25.55a2.24 2.24 0 011.79 2.1c0 1.92-1.48 2.63-3.18 2.63zM88.71 66h1.62v-3h1.22v3h1.86v1.22h-1.86v5.15a.82.82 0 00.89.94h1v1.2h-1.07a1.93 1.93 0 01-2-2.2v-5.1h-1.66zm12.98 4.63h-5.14v1a1.74 1.74 0 002 1.87 1.79 1.79 0 001.93-1.74h1.23a3 3 0 01-3.16 3 2.93 2.93 0 01-3.19-3.08v-2.77a3 3 0 013.19-3.06 2.92 2.92 0 013.18 3.06zm-1.23-1.72a1.72 1.72 0 00-1.95-1.86 1.76 1.76 0 00-2 1.86v.52h3.91zm6.3-1.7c-.65 0-1.51.49-1.51 1.88v5.41H104V66h1.21v.78a2.12 2.12 0 011.52-.78h.69v1.22zm2.43-4.38h1.23v9.53c0 .72.4.94.89.94h.39v1.2h-.47a1.93 1.93 0 01-2-2.2zm10.35 7.8h-5.14v1a1.74 1.74 0 002 1.87 1.79 1.79 0 001.93-1.74h1.23a3 3 0 01-3.16 3 2.93 2.93 0 01-3.19-3.08v-2.77a3 3 0 013.19-3.06 2.91 2.91 0 013.18 3.06zm-1.23-1.72a1.72 1.72 0 00-2-1.86 1.76 1.76 0 00-2 1.86v.52h3.91zm9.78 1.72H123v1a1.74 1.74 0 002 1.87 1.8 1.8 0 001.93-1.74h1.23a3 3 0 01-3.16 3 2.93 2.93 0 01-3.19-3.08v-2.77a3 3 0 013.19-3.06 2.91 2.91 0 013.17 3.06zm-1.23-1.72a1.72 1.72 0 00-1.94-1.86 1.75 1.75 0 00-2 1.86v.52h3.9z"/></g></svg>