<?xml version="1.0" encoding="utf-8"?>
<!-- Generator: Adobe Illustrator 25.2.3, SVG Export Plug-In . SVG Version: 6.00 Build 0)  -->
<svg version="1.1" id="Laag_1" xmlns="http://www.w3.org/2000/svg" xmlns:xlink="http://www.w3.org/1999/xlink" x="0px" y="0px"
	 viewBox="0 0 250 80" style="enable-background:new 0 0 250 80;" xml:space="preserve">
<style type="text/css">
	.st0{fill:#61A534;}
	.st1{enable-background:new    ;}
</style>
<polygon class="st0" points="73.8,55.8 72.3,55.8 70.2,46.9 68.1,55.8 66.6,55.8 64.2,44.3 65.4,44.3 67.3,53.9 69.6,44.3 
	70.8,44.3 73,53.9 74.9,44.3 76.2,44.3 "/>
<path class="st0" d="M83.8,52h-5.1v1c-0.1,1,0.6,1.8,1.6,1.9c0.1,0,0.3,0,0.4,0c1,0.1,1.9-0.7,1.9-1.7c0,0,0-0.1,0-0.1h1.2
	c0,1.7-1.3,3-3,3c-0.1,0-0.1,0-0.2,0c-1.6,0.1-3-1-3.2-2.7c0-0.1,0-0.3,0-0.4v-2.8c0-1.7,1.3-3,2.9-3.1c0.1,0,0.2,0,0.3,0
	c1.6-0.1,3,1,3.2,2.6c0,0.1,0,0.3,0,0.4L83.8,52L83.8,52z M82.6,50.2c0.1-0.9-0.6-1.8-1.6-1.9c-0.1,0-0.3,0-0.4,0
	c-1-0.1-1.9,0.5-2,1.5c0,0.1,0,0.2,0,0.4v0.5h3.9L82.6,50.2L82.6,50.2z"/>
<path class="st0" d="M88.8,48.5c-0.7,0-1.5,0.5-1.5,1.9v5.4h-1.2v-8.5h1.2v0.8c0.4-0.5,0.9-0.7,1.5-0.8h0.7v1.2H88.8z"/>
<path class="st0" d="M97.6,52h-5.1v1c-0.1,1,0.6,1.8,1.6,1.9c0.1,0,0.3,0,0.4,0c1,0.1,1.8-0.7,1.9-1.6c0,0,0-0.1,0-0.1h1.2
	c0,1.7-1.3,3-3,3c-0.1,0-0.1,0-0.2,0c-1.6,0.1-3-1-3.2-2.7c0-0.1,0-0.3,0-0.4v-2.8c0-1.7,1.3-3,2.9-3.1c0.1,0,0.2,0,0.3,0
	c1.6-0.1,3,1,3.2,2.6c0,0.1,0,0.3,0,0.4C97.6,50.2,97.6,52,97.6,52z M96.4,50.3c0.1-0.9-0.6-1.8-1.6-1.9c-0.1,0-0.3,0-0.4,0
	c-1-0.1-1.8,0.5-2,1.5c0,0.1,0,0.3,0,0.4v0.5h3.9L96.4,50.3L96.4,50.3z"/>
<path class="st0" d="M99.8,44.2h1.2v9.5c-0.1,0.4,0.2,0.9,0.7,0.9c0.1,0,0.1,0,0.2,0h0.4v1.2h-0.5c-1.1,0-2-0.8-2-1.9
	c0-0.1,0-0.2,0-0.3L99.8,44.2L99.8,44.2z"/>
<path class="st0" d="M104,50.2c-0.1-1.6,1.1-3,2.7-3.1c0.2,0,0.3,0,0.5,0c0.7,0,1.4,0.3,1.9,0.8v-3.7h1.2v11.5H109v-0.7
	c-0.5,0.5-1.2,0.8-1.9,0.8c-1.6,0.1-3-1.1-3.1-2.7c0-0.1,0-0.3,0-0.4V50.2z M105.2,52.9c-0.1,0.9,0.6,1.8,1.6,1.9c0.1,0,0.2,0,0.3,0
	c0.9,0.1,1.8-0.5,1.9-1.4c0-0.1,0-0.3,0-0.4v-2.7c0.1-0.9-0.6-1.8-1.6-1.9c-0.1,0-0.2,0-0.3,0c-0.9-0.1-1.8,0.5-1.9,1.4
	c0,0.1,0,0.3,0,0.4V52.9z"/>
<polygon class="st0" points="120.3,55.8 118.9,55.8 117.3,49.5 115.8,55.8 114.4,55.8 112.4,47.3 113.6,47.3 115.1,54 116.7,47.3 
	117.9,47.3 119.5,54 121,47.3 122.3,47.3 "/>
<path class="st0" d="M124.3,45.9v-1.8h1.5v1.8H124.3z M124.4,55.8v-8.5h1.2v8.5H124.4z"/>
<path class="st0" d="M133.2,55.8v-5.6c0-0.8-0.2-1.9-1.7-1.9c-1.1-0.1-2,0.7-2.1,1.8c0,0,0,0,0,0.1v5.6h-1.2v-8.5h1.2v0.8
	c0.5-0.6,1.3-0.9,2.1-0.9c1.5-0.2,2.9,0.9,3,2.4c0,0.2,0,0.4,0,0.6v5.6H133.2z"/>
<polygon class="st0" points="141.9,55.8 139.4,51.8 138.1,53.2 138.1,55.8 136.9,55.8 136.9,44.2 138.1,44.2 138.1,51.4 141.9,47.3 
	143.4,47.3 140.2,50.9 143.4,55.8 "/>
<path class="st0" d="M151.1,52H146v1c-0.1,1,0.6,1.8,1.6,1.9c0.1,0,0.3,0,0.4,0c1,0.1,1.8-0.7,1.9-1.6c0,0,0-0.1,0-0.1h1.2
	c0,1.7-1.3,3-3,3c-0.1,0-0.1,0-0.2,0c-1.6,0.1-3-1-3.2-2.7c0-0.1,0-0.3,0-0.4v-2.8c0-1.7,1.3-3,2.9-3.1c0.1,0,0.2,0,0.3,0
	c1.6-0.1,3,1,3.2,2.6c0,0.1,0,0.3,0,0.4L151.1,52L151.1,52z M149.9,50.3c0.1-0.9-0.6-1.8-1.6-1.9c-0.1,0-0.3,0-0.4,0
	c-1-0.1-1.8,0.5-2,1.5c0,0.1,0,0.3,0,0.4v0.5h3.9L149.9,50.3L149.9,50.3z"/>
<path class="st0" d="M153.3,44.2h1.2v9.5c-0.1,0.4,0.2,0.9,0.7,0.9c0.1,0,0.1,0,0.2,0h0.4v1.2h-0.5c-1.1,0-2-0.8-2-1.8
	c0-0.1,0-0.2,0-0.4L153.3,44.2L153.3,44.2z"/>
<path class="st0" d="M53,27c0,14.4-11.6,26-26,26S1,41.4,1,27S12.6,1,27,1S53,12.6,53,27z M16.6,21.1h4.7c0.1,0,0.3-0.1,0.3-0.3
	c0.4-2.9,3.2-5,6.1-4.5c2.3,0.4,4.2,2.2,4.5,4.5c0,0.1,0.1,0.3,0.3,0.3h4.7c0.1,0,0.3-0.1,0.3-0.3C37.2,15,32.1,10.6,26.2,11
	c-5.3,0.4-9.5,4.6-9.9,9.9C16.4,21,16.5,21.2,16.6,21.1z M32.1,31c3.2-1.7,5.2-4.9,5.5-8.5c0-0.1-0.1-0.3-0.3-0.3h-4.7
	c-0.1,0-0.3,0.1-0.3,0.3c-0.4,2.9-3.2,5-6.1,4.5c-2.3-0.4-4.2-2.2-4.5-4.5c0-0.1-0.1-0.3-0.3-0.3h-4.7c-0.1,0-0.3,0.1-0.3,0.3l0,0
	c0.3,3.6,2.3,6.8,5.5,8.5c-3.3,1.8-5.4,5.3-5.5,9.1c0,0.1,0.1,0.3,0.3,0.3l0,0h4.7c0.1,0,0.3-0.1,0.3-0.3l0,0c0.2-3,2.7-5.2,5.7-5.1
	c2.7,0.2,4.9,2.3,5.1,5.1c0,0.1,0.1,0.3,0.3,0.3l0,0h4.7c0.1,0,0.3-0.1,0.3-0.3l0,0C37.5,36.3,35.4,32.8,32.1,31z"/>
<path class="st0" d="M73.7,29.8c0,1.6-1.6,2.1-2.5,2.1s-2.5-0.5-2.5-2.1v-8.5c0-1.6,1.6-2.1,2.5-2.1s2.5,0.5,2.5,2.1V29.8z
	 M71.1,15.1c-4.5,0-6.7,3.2-6.7,5.9v9.1c0,2.7,2.1,5.9,6.7,5.9s6.7-3.2,6.7-5.9V21C77.8,18.3,75.7,15.1,71.1,15.1L71.1,15.1z"/>
<polygon class="st0" points="100.3,35.6 100.3,27.7 106.4,27.7 106.4,23.6 100.3,23.6 100.3,19.5 107.4,19.5 107.4,15.4 96.2,15.4 
	96.2,35.6 "/>
<path class="st0" d="M114.4,21.7l1.6,6.4h-3.3L114.4,21.7L114.4,21.7z M118,35.6h4.1l-5.3-20.2h-4.8l-5.3,20.2h4.1l0.9-3.6h5.3
	L118,35.6L118,35.6z"/>
<polygon class="st0" points="88.9,25.5 94.1,15.4 89.3,15.4 86.5,21.3 83.6,15.4 78.9,15.4 84.1,25.5 78.8,35.6 83.7,35.6 
	86.5,29.8 89.3,35.6 94.1,35.6 "/>
<polygon class="st0" points="135.3,15.4 131.7,23.2 128,15.4 123.8,15.4 123.8,35.6 127.8,35.6 127.8,24.1 130.4,29.5 132.9,29.5 
	135.5,24.2 135.5,35.6 139.5,35.6 139.5,15.4 "/>
<g class="st1">
	<path class="st0" d="M73.6,74.5h-1.5L70,65.6l-2.1,8.9h-1.5L64,62.9h1.3l1.9,9.6l2.3-9.6h1.2l2.2,9.6l1.9-9.6H76L73.6,74.5z"/>
	<path class="st0" d="M82.7,74.5v-0.7c-0.4,0.5-1.2,0.8-1.9,0.8c-1.9,0-3.1-1.2-3.1-3.1V66h1.2v5.6c0,0.8,0.3,1.8,1.9,1.8
		c1.1,0,1.9-0.7,1.9-1.8V66h1.2v8.5H82.7z"/>
	<path class="st0" d="M91.5,74.5v-0.7c-0.4,0.5-1.2,0.8-1.9,0.8c-1.9,0-3.1-1.2-3.1-3.1V66h1.2v5.6c0,0.8,0.3,1.8,1.9,1.8
		c1.1,0,1.9-0.7,1.9-1.8V66h1.2v8.5H91.5z"/>
	<path class="st0" d="M98,74.6c-1.8,0-3.1-1.1-3.1-2.9h1.2c0,1.1,0.8,1.7,1.9,1.7c1,0,2-0.2,2-1.4c0-0.6-0.4-0.9-1-1
		c-0.6-0.2-1.6-0.4-2.2-0.5c-1-0.2-1.9-1-1.9-2.1c0-1.8,1.4-2.5,3-2.5c1.8,0,3.1,1,3.1,2.8h-1.2c-0.1-1-0.7-1.6-1.9-1.6
		c-0.8,0-1.7,0.2-1.7,1.3c0,0.5,0.4,0.8,0.9,1c0.6,0.1,1.6,0.3,2.3,0.6c1,0.3,1.8,1,1.8,2.1C101.2,73.9,99.7,74.6,98,74.6z"/>
	<path class="st0" d="M102.4,66h1.6v-3h1.2v3h1.9v1.2h-1.9v5.2c0,0.7,0.4,0.9,0.9,0.9h1v1.2H106c-1.1,0-2-0.6-2-2.2v-5.1h-1.6V66z"
		/>
	<path class="st0" d="M116.5,74.5H115l-1.5-6.3l-1.5,6.3h-1.4l-2-8.5h1.3l1.5,6.7l1.6-6.7h1.2l1.6,6.7l1.5-6.7h1.3L116.5,74.5z"/>
	<path class="st0" d="M126.6,70.6h-5.1v1c0,0.8,0.4,1.9,2,1.9c1.1,0,1.8-0.6,1.9-1.7h1.2c-0.1,1.8-1.4,2.9-3.2,2.9
		c-1.9,0-3.2-1.2-3.2-3.1v-2.7c0-1.9,1.3-3.1,3.2-3.1c1.9,0,3.2,1.2,3.2,3.1V70.6z M125.4,68.9c0-0.9-0.4-1.9-1.9-1.9
		c-1.2,0-2,0.7-2,1.9v0.5h3.9V68.9z"/>
	<path class="st0" d="M128.3,74.5v-1.1l4.2-6.2h-4V66h5.5v1.1l-4.2,6.2h4.5v1.2H128.3z"/>
	<path class="st0" d="M142.5,70.6h-5.1v1c0,0.8,0.4,1.9,2,1.9c1.1,0,1.8-0.6,1.9-1.7h1.2c-0.1,1.8-1.4,2.9-3.2,2.9
		c-1.9,0-3.2-1.2-3.2-3.1v-2.7c0-1.9,1.3-3.1,3.2-3.1c1.9,0,3.2,1.2,3.2,3.1V70.6z M141.2,68.9c0-0.9-0.4-1.9-1.9-1.9
		c-1.2,0-2,0.7-2,1.9v0.5h3.9V68.9z"/>
	<path class="st0" d="M144.7,62.8h1.2v9.5c0,0.7,0.4,0.9,0.9,0.9h0.4v1.2h-0.5c-1.1,0-2-0.6-2-2.2V62.8z"/>
</g>
</svg>
