<svg version="1.1" id="Laag_1" xmlns="http://www.w3.org/2000/svg" x="0" y="0" viewBox="0 0 250 80" xml:space="preserve"><style>.st0{fill:#61a534}.st1{enable-background:new}</style><path class="st0" d="M73.8 55.8h-1.5l-2.1-8.9-2.1 8.9h-1.5l-2.4-11.5h1.2l1.9 9.6 2.3-9.6h1.2l2.2 9.6 1.9-9.6h1.3zM83.8 52h-5.1v1c-.1 1 .6 1.8 1.6 1.9h.4c1 .1 1.9-.7 1.9-1.7v-.1h1.2c0 1.7-1.3 3-3 3h-.2c-1.6.1-3-1-3.2-2.7V50.2c0-1.7 1.3-3 2.9-3.1h.3c1.6-.1 3 1 3.2 2.6V52zm-1.2-1.8c.1-.9-.6-1.8-1.6-1.9h-.4c-1-.1-1.9.5-2 1.5v.9h3.9l.1-.5zM88.8 48.5c-.7 0-1.5.5-1.5 1.9v5.4h-1.2v-8.5h1.2v.8c.4-.5.9-.7 1.5-.8h.7v1.2h-.7zM97.6 52h-5.1v1c-.1 1 .6 1.8 1.6 1.9h.4c1 .1 1.8-.7 1.9-1.6v-.1h1.2c0 1.7-1.3 3-3 3h-.2c-1.6.1-3-1-3.2-2.7V50.3c0-1.7 1.3-3 2.9-3.1h.3c1.6-.1 3 1 3.2 2.6V52zm-1.2-1.7c.1-.9-.6-1.8-1.6-1.9h-.4c-1-.1-1.8.5-2 1.5v.9h3.9l.1-.5zM99.8 44.2h1.2v9.5c-.1.4.2.9.7.9H102.3v1.2h-.5c-1.1 0-2-.8-2-1.9V44.2zM104 50.2c-.1-1.6 1.1-3 2.7-3.1h.5c.7 0 1.4.3 1.9.8v-3.7h1.2v11.5H109V55c-.5.5-1.2.8-1.9.8-1.6.1-3-1.1-3.1-2.7v-2.9zm1.2 2.7c-.1.9.6 1.8 1.6 1.9h.3c.9.1 1.8-.5 1.9-1.4v-3.1c.1-.9-.6-1.8-1.6-1.9h-.3c-.9-.1-1.8.5-1.9 1.4v3.1zM120.3 55.8h-1.4l-1.6-6.3-1.5 6.3h-1.4l-2-8.5h1.2l1.5 6.7 1.6-6.7h1.2l1.6 6.7 1.5-6.7h1.3zM124.3 45.9v-1.8h1.5v1.8h-1.5zm.1 9.9v-8.5h1.2v8.5h-1.2zM133.2 55.8v-5.6c0-.8-.2-1.9-1.7-1.9-1.1-.1-2 .7-2.1 1.8V55.8h-1.2v-8.5h1.2v.8c.5-.6 1.3-.9 2.1-.9 1.5-.2 2.9.9 3 2.4V55.8h-1.3zM141.9 55.8l-2.5-4-1.3 1.4v2.6h-1.2V44.2h1.2v7.2l3.8-4.1h1.5l-3.2 3.6 3.2 4.9zM151.1 52H146v1c-.1 1 .6 1.8 1.6 1.9h.4c1 .1 1.8-.7 1.9-1.6v-.1h1.2c0 1.7-1.3 3-3 3h-.2c-1.6.1-3-1-3.2-2.7V50.3c0-1.7 1.3-3 2.9-3.1h.3c1.6-.1 3 1 3.2 2.6V52zm-1.2-1.7c.1-.9-.6-1.8-1.6-1.9h-.4c-1-.1-1.8.5-2 1.5v.9h3.9l.1-.5zM153.3 44.2h1.2v9.5c-.1.4.2.9.7.9H155.8v1.2h-.5c-1.1 0-2-.8-2-1.8v-9.8zM53 27c0 14.4-11.6 26-26 26S1 41.4 1 27 12.6 1 27 1s26 11.6 26 26zm-36.4-5.9h4.7c.1 0 .3-.1.3-.3.4-2.9 3.2-5 6.1-4.5 2.3.4 4.2 2.2 4.5 4.5 0 .1.1.3.3.3h4.7c.1 0 .3-.1.3-.3-.3-5.8-5.4-10.2-11.3-9.8-5.3.4-9.5 4.6-9.9 9.9.1.1.2.3.3.2zM32.1 31c3.2-1.7 5.2-4.9 5.5-8.5 0-.1-.1-.3-.3-.3h-4.7c-.1 0-.3.1-.3.3-.4 2.9-3.2 5-6.1 4.5-2.3-.4-4.2-2.2-4.5-4.5 0-.1-.1-.3-.3-.3h-4.7c-.1 0-.3.1-.3.3.3 3.6 2.3 6.8 5.5 8.5-3.3 1.8-5.4 5.3-5.5 9.1 0 .1.1.3.3.3h4.7c.1 0 .3-.1.3-.3.2-3 2.7-5.2 5.7-5.1 2.7.2 4.9 2.3 5.1 5.1 0 .1.1.3.3.3h4.7c.1 0 .3-.1.3-.3-.3-3.8-2.4-7.3-5.7-9.1zM73.7 29.8c0 1.6-1.6 2.1-2.5 2.1s-2.5-.5-2.5-2.1v-8.5c0-1.6 1.6-2.1 2.5-2.1s2.5.5 2.5 2.1v8.5zm-2.6-14.7c-4.5 0-6.7 3.2-6.7 5.9v9.1c0 2.7 2.1 5.9 6.7 5.9s6.7-3.2 6.7-5.9V21c0-2.7-2.1-5.9-6.7-5.9zM100.3 35.6v-7.9h6.1v-4.1h-6.1v-4.1h7.1v-4.1H96.2v20.2zM114.4 21.7l1.6 6.4h-3.3l1.7-6.4zm3.6 13.9h4.1l-5.3-20.2H112l-5.3 20.2h4.1l.9-3.6h5.3l1 3.6zM88.9 25.5l5.2-10.1h-4.8l-2.8 5.9-2.9-5.9h-4.7l5.2 10.1-5.3 10.1h4.9l2.8-5.8 2.8 5.8h4.8zM135.3 15.4l-3.6 7.8-3.7-7.8h-4.2v20.2h4V24.1l2.6 5.4h2.5l2.6-5.3v11.4h4V15.4z"/><g class="st1"><path class="st0" d="M70.8 74.5l-.8-3.3h-3.9l-.9 3.3H64l3-11.6h2l3 11.6h-1.2zm-2.7-10.4h-.2L66.4 70h3.3l-1.6-5.9zM76.4 74.6c-1.8 0-3.1-1.1-3.1-2.9h1.2c0 1.1.8 1.7 1.9 1.7 1 0 2-.2 2-1.4 0-.6-.4-.9-1-1-.6-.2-1.6-.4-2.2-.5-1-.2-1.9-1-1.9-2.1 0-1.8 1.4-2.5 3-2.5 1.8 0 3.1 1 3.1 2.8h-1.2c-.1-1-.7-1.6-1.9-1.6-.8 0-1.7.2-1.7 1.3 0 .5.4.8.9 1 .6.1 1.6.3 2.3.6 1 .3 1.8 1 1.8 2.1 0 1.8-1.5 2.5-3.2 2.5zM84.4 74.6c-1.8 0-3.1-1.1-3.1-2.9h1.2c0 1.1.8 1.7 1.9 1.7 1 0 2-.2 2-1.4 0-.6-.4-.9-1-1-.6-.2-1.6-.4-2.2-.5-1-.2-1.9-1-1.9-2.1 0-1.8 1.4-2.5 3-2.5 1.8 0 3.1 1 3.1 2.8h-1.2c-.1-1-.7-1.6-1.9-1.6-.8 0-1.7.2-1.7 1.3 0 .5.4.8.9 1 .6.1 1.6.3 2.3.6 1 .3 1.8 1 1.8 2.1 0 1.8-1.5 2.5-3.2 2.5zM95.9 70.6h-5.1v1c0 .8.4 1.9 2 1.9 1.1 0 1.8-.6 1.9-1.7h1.2c-.1 1.8-1.4 2.9-3.2 2.9-1.9 0-3.2-1.2-3.2-3.1v-2.7c0-1.9 1.3-3.1 3.2-3.1 1.9 0 3.2 1.2 3.2 3.1v1.7zm-1.2-1.7c0-.9-.4-1.9-1.9-1.9-1.2 0-2 .7-2 1.9v.5h3.9v-.5z"/></g></svg>