<?xml version="1.0" encoding="utf-8"?>
<!-- Generator: Adobe Illustrator 26.4.1, SVG Export Plug-In . SVG Version: 6.00 Build 0)  -->
<svg version="1.1" id="Laag_1" xmlns="http://www.w3.org/2000/svg" xmlns:xlink="http://www.w3.org/1999/xlink" x="0px" y="0px"
	 viewBox="0 0 250 80" style="enable-background:new 0 0 250 80;" xml:space="preserve">
<style type="text/css">
	.st0{fill:#61A534;}
</style>
<path class="st0" d="M73.8,55.8h-1.5l-2.1-8.9l-2.1,8.9h-1.5l-2.4-11.5h1.2l1.9,9.6l2.3-9.6h1.2l2.2,9.6l1.9-9.6h1.3L73.8,55.8z
	 M83.8,52h-5.1v1c-0.1,1,0.6,1.8,1.6,1.9h0.4c1,0.1,1.9-0.7,1.9-1.7v-0.1h1.2c0,1.7-1.3,3-3,3h-0.2c-1.6,0.1-3-1-3.2-2.7v-3.2
	c0-1.7,1.3-3,2.9-3.1h0.3c1.6-0.1,3,1,3.2,2.6C83.8,49.7,83.8,52,83.8,52z M82.6,50.2c0.1-0.9-0.6-1.8-1.6-1.9h-0.4
	c-1-0.1-1.9,0.5-2,1.5v0.9h3.9L82.6,50.2z M88.8,48.5c-0.7,0-1.5,0.5-1.5,1.9v5.4h-1.2v-8.5h1.2v0.8c0.4-0.5,0.9-0.7,1.5-0.8h0.7
	v1.2C89.5,48.5,88.8,48.5,88.8,48.5z M97.6,52h-5.1v1c-0.1,1,0.6,1.8,1.6,1.9h0.4c1,0.1,1.8-0.7,1.9-1.6v-0.1h1.2c0,1.7-1.3,3-3,3
	h-0.2c-1.6,0.1-3-1-3.2-2.7v-3.2c0-1.7,1.3-3,2.9-3.1h0.3c1.6-0.1,3,1,3.2,2.6C97.6,49.8,97.6,52,97.6,52z M96.4,50.3
	c0.1-0.9-0.6-1.8-1.6-1.9h-0.4c-1-0.1-1.8,0.5-2,1.5v0.9h3.9L96.4,50.3z M99.8,44.2h1.2v9.5c-0.1,0.4,0.2,0.9,0.7,0.9h0.6v1.2h-0.5
	c-1.1,0-2-0.8-2-1.9V44.2z M104,50.2c-0.1-1.6,1.1-3,2.7-3.1h0.5c0.7,0,1.4,0.3,1.9,0.8v-3.7h1.2v11.5H109V55
	c-0.5,0.5-1.2,0.8-1.9,0.8c-1.6,0.1-3-1.1-3.1-2.7C104,53.1,104,50.2,104,50.2z M105.2,52.9c-0.1,0.9,0.6,1.8,1.6,1.9h0.3
	c0.9,0.1,1.8-0.5,1.9-1.4v-3.1c0.1-0.9-0.6-1.8-1.6-1.9h-0.3c-0.9-0.1-1.8,0.5-1.9,1.4V52.9z M120.3,55.8h-1.4l-1.6-6.3l-1.5,6.3
	h-1.4l-2-8.5h1.2l1.5,6.7l1.6-6.7h1.2l1.6,6.7l1.5-6.7h1.3L120.3,55.8z M124.3,45.9v-1.8h1.5v1.8H124.3z M124.4,55.8v-8.5h1.2v8.5
	H124.4z M133.2,55.8v-5.6c0-0.8-0.2-1.9-1.7-1.9c-1.1-0.1-2,0.7-2.1,1.8v5.7h-1.2v-8.5h1.2v0.8c0.5-0.6,1.3-0.9,2.1-0.9
	c1.5-0.2,2.9,0.9,3,2.4v6.2H133.2z M141.9,55.8l-2.5-4l-1.3,1.4v2.6h-1.2V44.2h1.2v7.2l3.8-4.1h1.5l-3.2,3.6l3.2,4.9L141.9,55.8z
	 M151.1,52H146v1c-0.1,1,0.6,1.8,1.6,1.9h0.4c1,0.1,1.8-0.7,1.9-1.6v-0.1h1.2c0,1.7-1.3,3-3,3h-0.2c-1.6,0.1-3-1-3.2-2.7v-3.2
	c0-1.7,1.3-3,2.9-3.1h0.3c1.6-0.1,3,1,3.2,2.6L151.1,52L151.1,52z M149.9,50.3c0.1-0.9-0.6-1.8-1.6-1.9h-0.4c-1-0.1-1.8,0.5-2,1.5
	v0.9h3.9L149.9,50.3z M153.3,44.2h1.2v9.5c-0.1,0.4,0.2,0.9,0.7,0.9h0.6v1.2h-0.5c-1.1,0-2-0.8-2-1.8
	C153.3,54,153.3,44.2,153.3,44.2z M53,27c0,14.4-11.6,26-26,26S1,41.4,1,27S12.6,1,27,1S53,12.6,53,27z M16.6,21.1h4.7
	c0.1,0,0.3-0.1,0.3-0.3c0.4-2.9,3.2-5,6.1-4.5c2.3,0.4,4.2,2.2,4.5,4.5c0,0.1,0.1,0.3,0.3,0.3h4.7c0.1,0,0.3-0.1,0.3-0.3
	C37.2,15,32.1,10.6,26.2,11c-5.3,0.4-9.5,4.6-9.9,9.9C16.4,21,16.5,21.2,16.6,21.1z M32.1,31c3.2-1.7,5.2-4.9,5.5-8.5
	c0-0.1-0.1-0.3-0.3-0.3h-4.7c-0.1,0-0.3,0.1-0.3,0.3c-0.4,2.9-3.2,5-6.1,4.5c-2.3-0.4-4.2-2.2-4.5-4.5c0-0.1-0.1-0.3-0.3-0.3h-4.7
	c-0.1,0-0.3,0.1-0.3,0.3c0.3,3.6,2.3,6.8,5.5,8.5c-3.3,1.8-5.4,5.3-5.5,9.1c0,0.1,0.1,0.3,0.3,0.3h4.7c0.1,0,0.3-0.1,0.3-0.3
	c0.2-3,2.7-5.2,5.7-5.1c2.7,0.2,4.9,2.3,5.1,5.1c0,0.1,0.1,0.3,0.3,0.3h4.7c0.1,0,0.3-0.1,0.3-0.3C37.5,36.3,35.4,32.8,32.1,31z
	 M73.7,29.8c0,1.6-1.6,2.1-2.5,2.1s-2.5-0.5-2.5-2.1v-8.5c0-1.6,1.6-2.1,2.5-2.1s2.5,0.5,2.5,2.1V29.8z M71.1,15.1
	c-4.5,0-6.7,3.2-6.7,5.9v9.1c0,2.7,2.1,5.9,6.7,5.9s6.7-3.2,6.7-5.9V21C77.8,18.3,75.7,15.1,71.1,15.1z M100.3,35.6v-7.9h6.1v-4.1
	h-6.1v-4.1h7.1v-4.1H96.2v20.2H100.3z M114.4,21.7l1.6,6.4h-3.3C112.7,28.1,114.4,21.7,114.4,21.7z M118,35.6h4.1l-5.3-20.2H112
	l-5.3,20.2h4.1l0.9-3.6h5.3L118,35.6z M88.9,25.5l5.2-10.1h-4.8l-2.8,5.9l-2.9-5.9h-4.7l5.2,10.1l-5.3,10.1h4.9l2.8-5.8l2.8,5.8h4.8
	L88.9,25.5z M135.3,15.4l-3.6,7.8l-3.7-7.8h-4.2v20.2h4V24.1l2.6,5.4h2.5l2.6-5.3v11.4h4V15.4H135.3z"/>
<g>
	<path class="st0" d="M68.3,74.5h-3.5V62.9h3.4c2.6,0,3.1,2.1,3.1,3.1v5.4C71.4,72.4,70.9,74.5,68.3,74.5z M70.1,66
		c0-1.6-1.2-1.9-1.9-1.9h-2.2v9.2h2.2c0.7,0,1.9-0.3,1.9-1.9V66z"/>
	<path class="st0" d="M78.8,74.5v-0.7c-0.4,0.5-1.2,0.8-1.9,0.8c-1.9,0-3.2-1.2-3.2-3.1V66H75v5.6c0,0.8,0.3,1.9,1.9,1.9
		c1.1,0,1.9-0.7,1.9-1.8V66h1.2v8.6H78.8z"/>
	<path class="st0" d="M84.4,67.2v7.3h-1.2v-7.3h-1.5V66h1.5v-0.6c0-1.5,0.7-2.4,2.3-2.4h0.8v1.2h-0.9c-0.4,0-0.9,0.2-0.9,1V66h2v1.2
		H84.4z"/>
	<path class="st0" d="M89.8,67.2v7.3h-1.2v-7.3h-1.5V66h1.5v-0.6c0-1.5,0.7-2.4,2.3-2.4h0.8v1.2h-0.9c-0.4,0-0.9,0.2-0.9,1V66h2v1.2
		H89.8z"/>
	<path class="st0" d="M99.7,70.6h-5.2v1c0,0.8,0.4,1.9,2,1.9c1.1,0,1.8-0.6,1.9-1.7h1.2c-0.1,1.8-1.4,3-3.2,3
		c-1.9,0-3.2-1.2-3.2-3.1v-2.7c0-1.9,1.3-3.1,3.2-3.1c1.9,0,3.2,1.2,3.2,3.1V70.6z M98.5,68.9c0-0.9-0.4-1.9-2-1.9
		c-1.2,0-2,0.7-2,1.9v0.5h3.9V68.9z"/>
	<path class="st0" d="M102,62.8h1.2v9.6c0,0.7,0.4,0.9,0.9,0.9h0.4v1.2H104c-1.1,0-2-0.6-2-2.2V62.8z"/>
</g>
</svg>
