<svg viewBox="0 0 324 77" xmlns="http://www.w3.org/2000/svg" xml:space="preserve" fill-rule="evenodd" clip-rule="evenodd" stroke-linejoin="round" stroke-miterlimit="1.414"><path d="M115.979 32.659c.376.053.814.094 1.312.121.498.027.949.04 1.353.04.565 0 1.157-.053 1.777-.161a5.246 5.246 0 0 0 1.736-.626c.538-.309.983-.74 1.332-1.291.35-.552.526-1.273.526-2.161 0-.834-.135-1.528-.405-2.08a3.34 3.34 0 0 0-1.15-1.332c-.498-.337-1.091-.572-1.776-.707a11.958 11.958 0 0 0-2.283-.203h-2.422v8.4Zm1.777-12.841c.672 0 1.298-.061 1.877-.182a3.942 3.942 0 0 0 1.514-.645c.431-.31.768-.728 1.01-1.252.242-.525.364-1.192.364-1.999 0-.781-.142-1.42-.424-1.918a3.28 3.28 0 0 0-1.092-1.171 3.996 3.996 0 0 0-1.494-.566 9.832 9.832 0 0 0-1.635-.141c-.754 0-1.388.04-1.898.121l.001 7.753h1.777Zm-7.634-11.791a36.264 36.264 0 0 1 2.988-.323c1.131-.081 2.544-.122 4.241-.122 1.48 0 2.88.122 4.2.365 1.318.242 2.469.652 3.452 1.231a6.41 6.41 0 0 1 2.322 2.321c.566.97.848 2.182.848 3.635 0 .862-.127 1.662-.383 2.403a6.687 6.687 0 0 1-1.029 1.938 6.359 6.359 0 0 1-1.454 1.373c-.539.363-1.09.585-1.656.666.62.081 1.306.27 2.06.566a6.974 6.974 0 0 1 2.1 1.312c.646.579 1.183 1.326 1.614 2.242.431.915.647 2.019.647 3.311 0 1.75-.33 3.183-.988 4.301a7.292 7.292 0 0 1-2.666 2.644c-1.117.646-2.409 1.09-3.876 1.332a28.406 28.406 0 0 1-4.624.363 66.57 66.57 0 0 1-3.675-.101 62.887 62.887 0 0 1-4.119-.384l-.002-29.073ZM147.233 24.423c-.053-1.293-.41-2.336-1.069-3.129-.66-.795-1.582-1.192-2.767-1.192-1.346 0-2.369.378-3.069 1.13-.7.755-1.117 1.818-1.251 3.191h8.156Zm-8.197 3.997c.108 1.616.673 2.786 1.696 3.513 1.023.727 2.369 1.09 4.039 1.09.915.001 1.85-.086 2.806-.262a15.943 15.943 0 0 0 2.726-.746c.296.538.552 1.185.768 1.938.215.753.336 1.562.364 2.422-2.1.808-4.469 1.212-7.108 1.211-1.938 0-3.6-.268-4.987-.807-1.387-.538-2.518-1.285-3.392-2.241-.875-.957-1.522-2.093-1.939-3.413-.418-1.319-.626-2.758-.626-4.321 0-1.534.215-2.974.646-4.32.43-1.346 1.071-2.517 1.918-3.514.848-.995 1.898-1.781 3.15-2.361 1.252-.578 2.712-.868 4.382-.868 1.453 0 2.746.256 3.876.768a8.547 8.547 0 0 1 2.887 2.1c.794.888 1.394 1.945 1.797 3.17.404 1.224.606 2.537.606 3.936 0 .512-.02 1.017-.061 1.515-.04.498-.087.894-.141 1.191l-13.407-.001ZM157.005 7.585c.97-.162 1.925-.242 2.867-.242.915 0 1.857.081 2.827.242l.001 21.2c0 .836.046 1.507.141 2.019.095.512.242.908.444 1.192.202.283.465.478.788.585.323.108.727.162 1.211.162a7.076 7.076 0 0 0 1.454-.162c.297 1.104.446 2.18.446 3.231v.585c0 .175-.028.37-.081.585-.431.135-.95.228-1.555.283-.606.054-1.165.08-1.676.08-2.073 0-3.735-.572-4.987-1.716-1.252-1.143-1.879-3.008-1.879-5.592l-.001-22.452ZM178.448 26.808c1.131 0 1.945-.324 2.444-.97.497-.645.747-1.534.747-2.665s-.25-2.025-.747-2.685c-.499-.659-1.313-.99-2.444-.99-1.158-.001-1.993.33-2.504.99-.511.66-.767 1.554-.767 2.685s.256 2.019.767 2.664c.511.647 1.346.97 2.504.971Zm-1.655 11.023c-.592-.027-1.084.04-1.474.202-.39.162-.7.369-.928.626-.23.255-.391.538-.485.848a3.112 3.112 0 0 0-.141.908c0 1.023.383 1.716 1.151 2.08.767.364 1.797.545 3.089.545 1.696 0 3.062-.269 4.099-.807 1.036-.539 1.554-1.266 1.554-2.181 0-.269-.034-.525-.1-.767a1.617 1.617 0 0 0-.384-.666c-.189-.202-.451-.371-.787-.505-.338-.135-.788-.202-1.354-.202l-4.24-.081Zm5.169-4.199c2.45.054 4.254.6 5.411 1.635 1.157 1.037 1.736 2.51 1.736 4.422 0 1.131-.296 2.16-.887 3.09-.593.927-1.401 1.716-2.423 2.361-1.024.647-2.236 1.145-3.635 1.494-1.4.35-2.907.526-4.522.525-1.616 0-2.989-.128-4.12-.384-1.13-.256-2.052-.612-2.766-1.07-.713-.458-1.225-1.024-1.534-1.697a5.242 5.242 0 0 1-.464-2.22c0-1.212.288-2.208.868-2.988.578-.781 1.353-1.468 2.321-2.059a4.567 4.567 0 0 1-1.473-1.394c-.364-.551-.545-1.258-.545-2.119-.001-1.023.214-1.857.644-2.504.431-.646 1.064-1.266 1.899-1.857-.943-.673-1.67-1.495-2.181-2.463-.512-.97-.768-2.046-.768-3.231 0-1.051.203-2.025.607-2.927a6.609 6.609 0 0 1 1.756-2.342c.767-.66 1.702-1.178 2.806-1.555s2.343-.566 3.715-.565c1.347 0 2.585.209 3.716.626 1.131.418 2.072.949 2.826 1.595a4.822 4.822 0 0 1 1.899-1.514c.753-.336 1.776-.505 3.068-.505.054.35.102.693.142 1.029.041.338.06.694.06 1.07 0 .432-.014.863-.04 1.293-.027.431-.081.875-.162 1.332h-3.27c.134.27.255.593.363.969.107.378.162.875.162 1.494a7.292 7.292 0 0 1-.586 2.928 6.352 6.352 0 0 1-1.716 2.322c-.755.646-1.676 1.157-2.766 1.533-1.09.378-2.323.567-3.696.567-1.157-.001-2.194-.122-3.109-.364-.458.296-.74.612-.848.948a3.153 3.153 0 0 0-.161.949c0 .432.141.781.424 1.051.283.269.855.417 1.717.443l5.532.082ZM193.389 12.715a15.598 15.598 0 0 1-.243-2.706c0-.861.082-1.761.243-2.705.457-.08.949-.14 1.473-.181.526-.04 1.003-.061 1.434-.061.458 0 .955.021 1.494.061.538.041 1.036.101 1.494.181.081.459.135.909.162 1.354a22.259 22.259 0 0 1 0 2.685c-.027.457-.081.915-.162 1.373-.458.08-.948.135-1.473.161-.526.027-1.017.04-1.474.04-.432 0-.916-.013-1.454-.04a11.846 11.846 0 0 1-1.494-.162Zm.848 7.874h-2.705a10.646 10.646 0 0 1-.242-2.22c0-.727.08-1.44.242-2.141l8.319.001.001 20.876c-.969.162-1.913.242-2.827.242-.888 0-1.817-.08-2.787-.242l-.001-16.516ZM215.921 13.162a12.181 12.181 0 0 1-.242-2.383c0-.781.081-1.575.242-2.383.404-.08.841-.141 1.312-.182.471-.04.895-.06 1.273-.06.376 0 .8.021 1.271.06.471.041.922.102 1.353.182a18.139 18.139 0 0 1 .162 2.383c0 .377-.014.767-.041 1.172-.026.403-.067.806-.121 1.211-.431.08-.882.134-1.353.162-.471.026-.895.039-1.271.039-.378 0-.802-.014-1.273-.04a9.585 9.585 0 0 1-1.312-.161Zm2.343 11.265c-.054-1.293-.41-2.336-1.07-3.129-.66-.795-1.582-1.191-2.766-1.191-1.347 0-2.369.377-3.07 1.13-.7.755-1.117 1.817-1.251 3.19h8.157Zm-11.267-11.266a38.85 38.85 0 0 1-.142-1.192 11.606 11.606 0 0 1 0-2.362c.041-.404.087-.808.142-1.211.403-.081.841-.142 1.312-.182.47-.041.895-.06 1.272-.06a15.215 15.215 0 0 1 2.625.242c.081.404.134.801.161 1.191a17.269 17.269 0 0 1 0 2.363c-.027.403-.08.807-.161 1.212-.431.08-.875.134-1.333.161-.458.026-.888.04-1.292.04-.351 0-.768-.014-1.252-.041a9.47 9.47 0 0 1-1.332-.161Zm3.069 15.263c.108 1.615.673 2.786 1.697 3.514 1.022.726 2.368 1.09 4.038 1.09.915 0 1.85-.087 2.806-.262a15.894 15.894 0 0 0 2.726-.747c.296.539.553 1.186.769 1.938.214.754.336 1.562.363 2.423-2.1.807-4.469 1.211-7.108 1.211-1.938 0-3.6-.269-4.987-.808-1.387-.538-2.517-1.286-3.391-2.241-.875-.956-1.523-2.093-1.94-3.412-.418-1.319-.626-2.759-.626-4.321 0-1.534.215-2.974.647-4.321.429-1.346 1.07-2.516 1.918-3.513.847-.995 1.897-1.782 3.149-2.362 1.252-.578 2.712-.867 4.382-.867 1.453 0 2.746.255 3.877.767a8.533 8.533 0 0 1 2.886 2.1c.794.888 1.394 1.945 1.797 3.17.405 1.224.606 2.537.606 3.937 0 .512-.02 1.016-.061 1.514-.04.498-.087.895-.14 1.191l-13.408-.001ZM111.874 63.3c.001 2.02 1.333 3.998 3.452 3.998 2.1 0 3.452-1.897 3.451-3.976 0-2.241-1.352-4.018-3.452-4.018-2.119 0-3.451 1.998-3.451 3.996Zm.001 8.944c0 .242-.081.323-.304.323h-.908c-.222 0-.303-.081-.303-.323l-.001-13.747c0-.244.081-.324.303-.324h.484c.182 0 .243.08.344.324l.161 1.877c.485-.767 1.576-2.422 3.957-2.422 2.827 0 4.663 2.442 4.663 5.37.001 2.947-1.835 5.349-4.662 5.349-2.381 0-3.472-1.797-3.734-2.362v5.935ZM123.303 65.321c0 1.251.908 2.159 2.543 2.159 1.393 0 2.704-.948 3.351-1.897l-.001-1.675c-1.029-.424-1.817-.727-2.967-.727-1.918 0-2.927.767-2.926 2.14Zm-.466-5.995-.161-.607c-.061-.222 0-.323.242-.403.242-.061 1.918-.363 3.472-.363 3.391 0 4.32 1.513 4.32 4.845l.001 5.329c0 .243-.08.324-.303.324h-.585c-.163 0-.243-.081-.302-.324l-.083-1.373c-.543.747-1.876 1.917-4.056 1.917-1.939 0-3.594-1.191-3.594-3.35-.001-2.2 1.654-3.271 4.138-3.271 1.07 0 2.241.283 3.27.707 0-2.543-.747-3.472-2.867-3.472-1.292 0-2.341.181-3.108.322-.263.06-.324-.039-.384-.281ZM135.113 63.162l.001 4.965c0 .243-.081.324-.302.324h-.909c-.222 0-.302-.081-.302-.324l-.001-9.63c0-.242.08-.322.302-.322h.504c.162 0 .242.08.344.322l.242 2.02c.404-.849 1.332-2.564 4.199-2.564.283 0 .323.082.283.283l-.121.908c-.061.242-.122.303-.364.303-2.624 0-3.876 1.837-3.876 3.715ZM145.31 68.673c-2.664 0-3.654-1.676-3.655-4.482v-4.764h-.989c-.242 0-.323-.081-.323-.323v-.606c0-.262.081-.323.323-.323h.989v-2.079c0-.243.061-.323.303-.323h.888c.242 0 .302.08.302.323v2.079h3.655c.221 0 .302.061.302.324v.606c0 .242-.06.322-.302.322h-3.655v4.643c.001 2.362.708 3.23 2.324 3.23.564 0 .887-.04 1.392-.303.263-.14.324-.121.404.163l.121.645c.06.202.041.282-.141.384-.808.484-1.676.484-1.938.484ZM151.022 60.316c.424-.808 1.474-2.362 3.453-2.361 2.16 0 3.997 1.312 3.997 4.542l.001 5.631c0 .243-.081.324-.303.324h-.908c-.223 0-.303-.081-.303-.324l-.001-5.228c0-2.403-1.212-3.572-2.847-3.572-1.756-.001-2.886 1.694-2.886 3.712l.001 5.088c0 .243-.081.323-.303.323h-.908c-.223 0-.303-.08-.303-.323l-.001-5.006v-4.623c0-.243.08-.324.303-.324h.504c.162 0 .242.081.343.324l.161 1.817ZM169.072 62.8c-.081-1.817-1.393-3.574-3.452-3.574-2.08 0-3.614 1.757-3.675 3.574h7.127Zm.747 4.018c.142.181.142.303 0 .443-.948.929-2.584 1.413-4.077 1.413-3.049 0-5.39-2.403-5.391-5.35 0-2.948 2.341-5.369 5.289-5.369 3.149 0 4.986 2.544 4.986 5.572 0 .242-.04.323-.303.323l-8.418-.001c.143 1.878 1.859 3.492 3.898 3.492.989 0 2.2-.302 3.169-1.009.222-.121.302-.161.465.021l.382.465ZM174.464 63.164l.001 4.966c0 .242-.081.323-.303.323h-.908c-.223 0-.303-.081-.303-.323l-.001-9.63c0-.243.08-.323.303-.323h.504c.162 0 .242.08.344.323l.242 2.019c.403-.848 1.332-2.564 4.199-2.564.282 0 .322.082.282.283l-.121.909c-.06.242-.121.303-.363.303-2.624-.001-3.876 1.837-3.876 3.714ZM185.73 58.501c0-.242.061-.323.303-.323h.889c.262 0 .322.081.322.323l.001 9.629c0 .242-.08.324-.322.324h-.889c-.242 0-.303-.082-.303-.324l-.001-9.629Zm.727-4.744c.586 0 1.07.465 1.07 1.05a1.06 1.06 0 0 1-1.07 1.05c-.585 0-1.05-.465-1.05-1.051 0-.585.465-1.049 1.05-1.049ZM192.372 60.318c.424-.807 1.474-2.362 3.452-2.362 2.16 0 3.997 1.313 3.997 4.543l.001 5.632c0 .242-.081.324-.302.324h-.909c-.222 0-.302-.082-.302-.324l-.001-5.229c0-2.402-1.212-3.572-2.847-3.572-1.756 0-2.887 1.695-2.887 3.713l.001 5.087c0 .242-.081.324-.303.324h-.908c-.222 0-.302-.082-.302-.324l-.001-5.006v-4.623c0-.242.08-.323.302-.323h.504c.162 0 .242.081.344.323l.161 1.817ZM215.389 63.328c0-2.221-1.696-3.998-3.816-3.998-2.099 0-3.795 1.777-3.795 3.998.001 2.22 1.697 3.996 3.796 3.997 2.12 0 3.816-1.777 3.815-3.997Zm-3.816-5.371c2.948 0 5.31 2.423 5.31 5.371.001 2.947-2.362 5.349-5.309 5.349s-5.309-2.402-5.31-5.349c0-2.948 2.362-5.372 5.309-5.371ZM220.619 60.32c.424-.807 1.474-2.362 3.452-2.362 2.16 0 3.997 1.313 3.997 4.543l.001 5.632c0 .242-.081.323-.302.323h-.909c-.222 0-.302-.081-.302-.323l-.001-5.229c0-2.402-1.212-3.573-2.847-3.573-1.756 0-2.887 1.696-2.887 3.714l.001 5.087c0 .242-.081.323-.302.323h-.909c-.222 0-.302-.081-.302-.323l-.001-5.006v-4.623c0-.242.08-.323.302-.323h.504c.162 0 .242.081.344.323l.161 1.817ZM234.874 68.679c-2.664-.001-3.653-1.677-3.654-4.482v-4.765h-.99c-.242 0-.323-.081-.323-.323v-.606c0-.261.081-.322.323-.322h.99v-2.08c0-.242.06-.322.302-.322h.888c.242 0 .303.08.303.322v2.08h3.654c.222 0 .303.061.303.323v.606c0 .242-.061.323-.303.323l-3.654-.001v4.644c.001 2.361.708 3.229 2.323 3.23.565 0 .888-.041 1.393-.303.262-.141.323-.121.403.161l.121.646c.061.202.041.283-.14.385-.808.484-1.676.484-1.939.484ZM241.376 65.55l2.946-7.388c.081-.142.122-.284.283-.284h.142c.141 0 .201.142.282.284l2.949 7.388 2.138-7.045c.081-.263.202-.324.424-.324l1.091.001c.242 0 .262.081.161.323l-3.128 9.871c-.081.202-.182.303-.263.303h-.14c-.122 0-.202-.101-.304-.303l-3.27-8.095-3.291 8.095c-.1.202-.181.303-.302.303h-.121c-.101 0-.202-.101-.283-.303l-3.13-9.872c-.101-.243-.061-.323.162-.323h1.09c.202 0 .323.061.403.283l2.161 7.086ZM253.934 58.505c0-.242.06-.323.302-.323h.889c.262 0 .322.081.322.323l.001 9.629c0 .242-.08.323-.322.323h-.889c-.242 0-.302-.081-.302-.323l-.001-9.629Zm.726-4.744c.586 0 1.07.465 1.07 1.05a1.06 1.06 0 0 1-1.07 1.05c-.585 0-1.05-.465-1.05-1.05s.465-1.05 1.05-1.05ZM267.603 68.136c.221.242.081.322-.101.322h-1.292c-.223 0-.323-.081-.525-.323l-4.947-4.723.001 4.723c0 .242-.082.323-.324.323h-.867c-.242 0-.323-.081-.323-.323l-.001-14.253c0-.242.081-.322.323-.322h.868c.263 0 .323.08.323.322v8.823l4.683-4.2c.202-.242.304-.322.525-.322h1.272c.202 0 .262.162.101.323l-5.047 4.501 5.331 5.129ZM278.242 68.136c.222.242.081.322-.1.322h-1.292c-.223 0-.324-.08-.526-.322l-4.946-4.724.001 4.724c0 .242-.081.322-.323.322h-.868c-.243 0-.324-.08-.324-.322l-.001-14.253c0-.242.081-.323.324-.323h.868c.262 0 .323.081.323.323v8.822l4.683-4.198c.202-.243.303-.324.525-.324h1.271c.203 0 .263.162.102.324l-5.047 4.5 5.33 5.129ZM288.236 62.807c-.081-1.817-1.393-3.573-3.452-3.573-2.08 0-3.614 1.756-3.675 3.572l7.127.001Zm.747 4.017c.142.181.142.302 0 .445-.948.928-2.584 1.412-4.077 1.412-3.049 0-5.39-2.402-5.391-5.35 0-2.947 2.341-5.37 5.289-5.369 3.149 0 4.986 2.543 4.986 5.572 0 .242-.04.323-.303.323h-8.418c.143 1.877 1.859 3.492 3.898 3.492.989 0 2.2-.303 3.169-1.01.222-.121.302-.161.465.021l.382.464ZM292.194 53.884c0-.242.081-.322.324-.322h.888c.242 0 .303.08.303.322l.001 14.253c0 .242-.061.323-.303.323h-.888c-.243 0-.324-.081-.324-.323l-.001-14.253ZM297.646 58.507c0-.242.06-.322.302-.322h.889c.262 0 .322.08.322.322l.001 9.63c0 .242-.08.323-.322.323h-.889c-.242 0-.303-.081-.303-.323v-9.63Zm.726-4.744c.586 0 1.07.465 1.07 1.051a1.06 1.06 0 0 1-1.07 1.049c-.585 0-1.05-.464-1.05-1.049 0-.586.465-1.051 1.05-1.051ZM304.288 60.325c.424-.808 1.474-2.363 3.452-2.363 2.16.001 3.997 1.314 3.997 4.543l.001 5.633c0 .242-.081.322-.302.322h-.909c-.222 0-.302-.08-.302-.322l-.001-5.228c0-2.403-1.212-3.574-2.847-3.575-1.756 0-2.887 1.696-2.887 3.715l.001 5.088c0 .242-.081.322-.303.322h-.908c-.222 0-.302-.08-.302-.322l-.001-5.008v-4.622c0-.243.08-.323.302-.323h.504c.162 0 .242.08.344.323l.161 1.817ZM315.131 63.333c.001 2.059 1.333 3.977 3.453 3.977 2.099 0 3.451-1.978 3.45-3.996 0-1.999-1.352-3.998-3.451-3.998-2.12 0-3.452 1.777-3.452 4.017Zm6.885 2.989c-.243.564-1.353 2.361-3.736 2.361-2.845 0-4.663-2.402-4.664-5.35 0-2.927 1.837-5.37 4.663-5.369 2.383 0 3.473 1.655 3.978 2.422l.161-1.877c.081-.242.162-.323.344-.323h.464c.221 0 .302.081.302.323l.001 9.226c0 3.876-1.574 5.713-4.703 5.713-2.201 0-3.573-.566-3.997-.728-.202-.08-.242-.14-.182-.363l.202-.768c.06-.242.121-.282.343-.181.625.222 1.675.687 3.412.687 2.604 0 3.412-1.776 3.412-4.199v-1.574Z" fill="#4f5252" fill-rule="nonzero"/><path fill="#9c9fa1" fill-rule="nonzero" d="M88.045 6.845h.805v65.928h-.805z"/><path d="M0 77s4.583-9.433 13.371-17.892c8.089-7.784 15.37-8.594 24.403-9.686 9.035-1.083 19.574-.82 22.492-9.872 0 0 6.557 8.077 4.521 18.277-2.03 10.203-11.251 17.156-26.758 17.989C28.986 76.305 16.954 73.084 0 77Z" fill="url(#a)"/><path d="M30.996 22.196c.262-2.592.199-5.061.09-7.507-.342-7.962-2.272-13.209-2.272-13.209C17.978 1.2 2.006 8.124.83 36.814c-.865 21.095-.174 30.31-.174 30.31S8.78 55.819 17.984 46.905c7.843-7.592 9.959-13.307 11.725-18.652.48-1.817.948-3.886 1.287-6.057Z" fill="#4f5252" fill-rule="nonzero"/><path d="M34.913 27.289c11.563 0 20.234 3.471 25.235 12.37 2.845-3.855 4.523-8.418 4.603-13.327C64.979 12.477 49.752.311 34.216.885c.69 2.179 1.959 7.336 1.826 15.426-.063 3.951-.318 7.62-1.129 10.978Z" fill="url(#b)"/><defs><linearGradient id="a" x1="0" y1="0" x2="1" y2="0" gradientUnits="userSpaceOnUse" gradientTransform="scale(65.59135) rotate(-1.037 49.54 .726)"><stop offset="0" stop-color="#c0202e"/><stop offset="1" stop-color="#ed3b2d"/></linearGradient><linearGradient id="b" x1="0" y1="0" x2="1" y2="0" gradientUnits="userSpaceOnUse" gradientTransform="scale(56.63 -56.63) rotate(-30 -.932 -1.053)"><stop offset="0" stop-color="#fbb427"/><stop offset="1" stop-color="#fadc2a"/></linearGradient></defs></svg>