<?xml version="1.0" encoding="UTF-8" standalone="no"?><!DOCTYPE svg PUBLIC "-//W3C//DTD SVG 1.1//EN" "http://www.w3.org/Graphics/SVG/1.1/DTD/svg11.dtd"><svg width="100%" height="100%" viewBox="0 0 324 77" version="1.1" xmlns="http://www.w3.org/2000/svg" xmlns:xlink="http://www.w3.org/1999/xlink" xml:space="preserve" style="fill-rule:evenodd;clip-rule:evenodd;stroke-linejoin:round;stroke-miterlimit:1.41421;"><g><path d="M115.979,32.659c0.376,0.053 0.814,0.094 1.312,0.121c0.498,0.027 0.949,0.04 1.353,0.04c0.565,0 1.157,-0.053 1.777,-0.161c0.619,-0.107 1.197,-0.316 1.736,-0.626c0.538,-0.309 0.983,-0.74 1.332,-1.291c0.35,-0.552 0.526,-1.273 0.526,-2.161c0,-0.834 -0.135,-1.528 -0.405,-2.08c-0.268,-0.551 -0.652,-0.996 -1.15,-1.332c-0.498,-0.337 -1.091,-0.572 -1.776,-0.707c-0.687,-0.134 -1.449,-0.203 -2.283,-0.203l-2.422,0l0,8.4Zm1.777,-12.841c0.672,0 1.298,-0.061 1.877,-0.182c0.579,-0.121 1.084,-0.336 1.514,-0.645c0.431,-0.31 0.768,-0.728 1.01,-1.252c0.242,-0.525 0.364,-1.192 0.364,-1.999c0,-0.781 -0.142,-1.42 -0.424,-1.918c-0.284,-0.498 -0.648,-0.889 -1.092,-1.171c-0.444,-0.283 -0.942,-0.472 -1.494,-0.566c-0.552,-0.093 -1.097,-0.141 -1.635,-0.141c-0.754,0 -1.388,0.04 -1.898,0.121l0.001,7.753l1.777,0Zm-7.634,-11.791c0.861,-0.135 1.857,-0.242 2.988,-0.323c1.131,-0.081 2.544,-0.122 4.241,-0.122c1.48,0 2.88,0.122 4.2,0.365c1.318,0.242 2.469,0.652 3.452,1.231c0.982,0.579 1.757,1.353 2.322,2.321c0.566,0.97 0.848,2.182 0.848,3.635c0,0.862 -0.127,1.662 -0.383,2.403c-0.256,0.741 -0.6,1.386 -1.029,1.938c-0.431,0.552 -0.916,1.01 -1.454,1.373c-0.539,0.363 -1.09,0.585 -1.656,0.666c0.62,0.081 1.306,0.27 2.06,0.566c0.753,0.296 1.453,0.734 2.1,1.312c0.646,0.579 1.183,1.326 1.614,2.242c0.431,0.915 0.647,2.019 0.647,3.311c0,1.75 -0.33,3.183 -0.988,4.301c-0.661,1.117 -1.549,1.998 -2.666,2.644c-1.117,0.646 -2.409,1.09 -3.876,1.332c-1.468,0.242 -3.009,0.363 -4.624,0.363c-1.238,0 -2.463,-0.034 -3.675,-0.101c-1.211,-0.068 -2.584,-0.195 -4.119,-0.384l-0.002,-29.073Z" style="fill:#4f5252;fill-rule:nonzero;"/><path d="M147.233,24.423c-0.053,-1.293 -0.41,-2.336 -1.069,-3.129c-0.66,-0.795 -1.582,-1.192 -2.767,-1.192c-1.346,0 -2.369,0.378 -3.069,1.13c-0.7,0.755 -1.117,1.818 -1.251,3.191l8.156,0Zm-8.197,3.997c0.108,1.616 0.673,2.786 1.696,3.513c1.023,0.727 2.369,1.09 4.039,1.09c0.915,0.001 1.85,-0.086 2.806,-0.262c0.955,-0.174 1.864,-0.424 2.726,-0.746c0.296,0.538 0.552,1.185 0.768,1.938c0.215,0.753 0.336,1.562 0.364,2.422c-2.1,0.808 -4.469,1.212 -7.108,1.211c-1.938,0 -3.6,-0.268 -4.987,-0.807c-1.387,-0.538 -2.518,-1.285 -3.392,-2.241c-0.875,-0.957 -1.522,-2.093 -1.939,-3.413c-0.418,-1.319 -0.626,-2.758 -0.626,-4.321c0,-1.534 0.215,-2.974 0.646,-4.32c0.43,-1.346 1.071,-2.517 1.918,-3.514c0.848,-0.995 1.898,-1.781 3.15,-2.361c1.252,-0.578 2.712,-0.868 4.382,-0.868c1.453,0 2.746,0.256 3.876,0.768c1.13,0.512 2.093,1.211 2.887,2.1c0.794,0.888 1.394,1.945 1.797,3.17c0.404,1.224 0.606,2.537 0.606,3.936c0,0.512 -0.02,1.017 -0.061,1.515c-0.04,0.498 -0.087,0.894 -0.141,1.191l-13.407,-0.001Z" style="fill:#4f5252;fill-rule:nonzero;"/><path d="M157.005,7.585c0.97,-0.162 1.925,-0.242 2.867,-0.242c0.915,0 1.857,0.081 2.827,0.242l0.001,21.2c0,0.836 0.046,1.507 0.141,2.019c0.095,0.512 0.242,0.908 0.444,1.192c0.202,0.283 0.465,0.478 0.788,0.585c0.323,0.108 0.727,0.162 1.211,0.162c0.215,0 0.45,-0.014 0.707,-0.04c0.255,-0.028 0.505,-0.068 0.747,-0.122c0.297,1.104 0.446,2.18 0.446,3.231c0,0.215 0,0.41 0,0.585c0,0.175 -0.028,0.37 -0.081,0.585c-0.431,0.135 -0.95,0.228 -1.555,0.283c-0.606,0.054 -1.165,0.08 -1.676,0.08c-2.073,0 -3.735,-0.572 -4.987,-1.716c-1.252,-1.143 -1.879,-3.008 -1.879,-5.592l-0.001,-22.452Z" style="fill:#4f5252;fill-rule:nonzero;"/><path d="M178.448,26.808c1.131,0 1.945,-0.324 2.444,-0.97c0.497,-0.645 0.747,-1.534 0.747,-2.665c0,-1.131 -0.25,-2.025 -0.747,-2.685c-0.499,-0.659 -1.313,-0.99 -2.444,-0.99c-1.158,-0.001 -1.993,0.33 -2.504,0.99c-0.511,0.66 -0.767,1.554 -0.767,2.685c0,1.131 0.256,2.019 0.767,2.664c0.511,0.647 1.346,0.97 2.504,0.971Zm-1.655,11.023c-0.592,-0.027 -1.084,0.04 -1.474,0.202c-0.39,0.162 -0.7,0.369 -0.928,0.626c-0.23,0.255 -0.391,0.538 -0.485,0.848c-0.094,0.309 -0.141,0.612 -0.141,0.908c0,1.023 0.383,1.716 1.151,2.08c0.767,0.364 1.797,0.545 3.089,0.545c1.696,0 3.062,-0.269 4.099,-0.807c1.036,-0.539 1.554,-1.266 1.554,-2.181c0,-0.269 -0.034,-0.525 -0.1,-0.767c-0.068,-0.243 -0.197,-0.464 -0.384,-0.666c-0.189,-0.202 -0.451,-0.371 -0.787,-0.505c-0.338,-0.135 -0.788,-0.202 -1.354,-0.202l-4.24,-0.081Zm5.169,-4.199c2.45,0.054 4.254,0.6 5.411,1.635c1.157,1.037 1.736,2.51 1.736,4.422c0,1.131 -0.296,2.16 -0.887,3.09c-0.593,0.927 -1.401,1.716 -2.423,2.361c-1.024,0.647 -2.236,1.145 -3.635,1.494c-1.4,0.35 -2.907,0.526 -4.522,0.525c-1.616,0 -2.989,-0.128 -4.12,-0.384c-1.13,-0.256 -2.052,-0.612 -2.766,-1.07c-0.713,-0.458 -1.225,-1.024 -1.534,-1.697c-0.31,-0.673 -0.464,-1.413 -0.464,-2.22c0,-1.212 0.288,-2.208 0.868,-2.988c0.578,-0.781 1.353,-1.468 2.321,-2.059c-0.619,-0.377 -1.11,-0.841 -1.473,-1.394c-0.364,-0.551 -0.545,-1.258 -0.545,-2.119c-0.001,-1.023 0.214,-1.857 0.644,-2.504c0.431,-0.646 1.064,-1.266 1.899,-1.857c-0.943,-0.673 -1.67,-1.495 -2.181,-2.463c-0.512,-0.97 -0.768,-2.046 -0.768,-3.231c0,-1.051 0.203,-2.025 0.607,-2.927c0.403,-0.903 0.989,-1.683 1.756,-2.342c0.767,-0.66 1.702,-1.178 2.806,-1.555c1.104,-0.377 2.343,-0.566 3.715,-0.565c1.347,0 2.585,0.209 3.716,0.626c1.131,0.418 2.072,0.949 2.826,1.595c0.512,-0.674 1.145,-1.177 1.899,-1.514c0.753,-0.336 1.776,-0.505 3.068,-0.505c0.054,0.35 0.102,0.693 0.142,1.029c0.041,0.338 0.06,0.694 0.06,1.07c0,0.432 -0.014,0.863 -0.04,1.293c-0.027,0.431 -0.081,0.875 -0.162,1.332l-3.27,0c0.134,0.27 0.255,0.593 0.363,0.969c0.107,0.378 0.162,0.875 0.162,1.494c0,1.051 -0.196,2.027 -0.586,2.928c-0.391,0.902 -0.963,1.676 -1.716,2.322c-0.755,0.646 -1.676,1.157 -2.766,1.533c-1.09,0.378 -2.323,0.567 -3.696,0.567c-1.157,-0.001 -2.194,-0.122 -3.109,-0.364c-0.458,0.296 -0.74,0.612 -0.848,0.948c-0.107,0.338 -0.161,0.654 -0.161,0.949c0,0.432 0.141,0.781 0.424,1.051c0.283,0.269 0.855,0.417 1.717,0.443l5.532,0.082Z" style="fill:#4f5252;fill-rule:nonzero;"/><path d="M193.389,12.715c-0.161,-0.915 -0.243,-1.817 -0.243,-2.706c0,-0.861 0.082,-1.761 0.243,-2.705c0.457,-0.08 0.949,-0.14 1.473,-0.181c0.526,-0.04 1.003,-0.061 1.434,-0.061c0.458,0 0.955,0.021 1.494,0.061c0.538,0.041 1.036,0.101 1.494,0.181c0.081,0.459 0.135,0.909 0.162,1.354c0.027,0.444 0.04,0.894 0.04,1.352c0,0.431 -0.013,0.876 -0.04,1.333c-0.027,0.457 -0.081,0.915 -0.162,1.373c-0.458,0.08 -0.948,0.135 -1.473,0.161c-0.526,0.027 -1.017,0.04 -1.474,0.04c-0.432,0 -0.916,-0.013 -1.454,-0.04c-0.539,-0.026 -1.037,-0.081 -1.494,-0.162Zm0.848,7.874l-2.705,0c-0.081,-0.349 -0.141,-0.719 -0.181,-1.11c-0.041,-0.39 -0.061,-0.761 -0.061,-1.11c0,-0.727 0.08,-1.44 0.242,-2.141l8.319,0.001l0.001,20.876c-0.969,0.162 -1.913,0.242 -2.827,0.242c-0.888,0 -1.817,-0.08 -2.787,-0.242l-0.001,-16.516Z" style="fill:#4f5252;fill-rule:nonzero;"/><path d="M215.921,13.162c-0.161,-0.809 -0.242,-1.602 -0.242,-2.383c0,-0.781 0.081,-1.575 0.242,-2.383c0.404,-0.08 0.841,-0.141 1.312,-0.182c0.471,-0.04 0.895,-0.06 1.273,-0.06c0.376,0 0.8,0.021 1.271,0.06c0.471,0.041 0.922,0.102 1.353,0.182c0.054,0.404 0.095,0.802 0.121,1.191c0.027,0.391 0.041,0.788 0.041,1.192c0,0.377 -0.014,0.767 -0.041,1.172c-0.026,0.403 -0.067,0.806 -0.121,1.211c-0.431,0.08 -0.882,0.134 -1.353,0.162c-0.471,0.026 -0.895,0.039 -1.271,0.039c-0.378,0 -0.802,-0.014 -1.273,-0.04c-0.471,-0.027 -0.908,-0.081 -1.312,-0.161Zm2.343,11.265c-0.054,-1.293 -0.41,-2.336 -1.07,-3.129c-0.66,-0.795 -1.582,-1.191 -2.766,-1.191c-1.347,0 -2.369,0.377 -3.07,1.13c-0.7,0.755 -1.117,1.817 -1.251,3.19l8.157,0Zm-11.267,-11.266c-0.055,-0.404 -0.101,-0.801 -0.142,-1.192c-0.041,-0.389 -0.06,-0.787 -0.06,-1.19c0,-0.377 0.019,-0.768 0.06,-1.172c0.041,-0.404 0.087,-0.808 0.142,-1.211c0.403,-0.081 0.841,-0.142 1.312,-0.182c0.47,-0.041 0.895,-0.06 1.272,-0.06c0.377,0 0.801,0.02 1.273,0.06c0.47,0.041 0.921,0.102 1.352,0.182c0.081,0.404 0.134,0.801 0.161,1.191c0.027,0.391 0.041,0.787 0.041,1.192c0,0.377 -0.014,0.767 -0.041,1.171c-0.027,0.403 -0.08,0.807 -0.161,1.212c-0.431,0.08 -0.875,0.134 -1.333,0.161c-0.458,0.026 -0.888,0.04 -1.292,0.04c-0.351,0 -0.768,-0.014 -1.252,-0.041c-0.484,-0.027 -0.929,-0.08 -1.332,-0.161Zm3.069,15.263c0.108,1.615 0.673,2.786 1.697,3.514c1.022,0.726 2.368,1.09 4.038,1.09c0.915,0 1.85,-0.087 2.806,-0.262c0.956,-0.175 1.865,-0.424 2.726,-0.747c0.296,0.539 0.553,1.186 0.769,1.938c0.214,0.754 0.336,1.562 0.363,2.423c-2.1,0.807 -4.469,1.211 -7.108,1.211c-1.938,0 -3.6,-0.269 -4.987,-0.808c-1.387,-0.538 -2.517,-1.286 -3.391,-2.241c-0.875,-0.956 -1.523,-2.093 -1.94,-3.412c-0.418,-1.319 -0.626,-2.759 -0.626,-4.321c0,-1.534 0.215,-2.974 0.647,-4.321c0.429,-1.346 1.07,-2.516 1.918,-3.513c0.847,-0.995 1.897,-1.782 3.149,-2.362c1.252,-0.578 2.712,-0.867 4.382,-0.867c1.453,0 2.746,0.255 3.877,0.767c1.13,0.512 2.093,1.211 2.886,2.1c0.794,0.888 1.394,1.945 1.797,3.17c0.405,1.224 0.606,2.537 0.606,3.937c0,0.512 -0.02,1.016 -0.061,1.514c-0.04,0.498 -0.087,0.895 -0.14,1.191l-13.408,-0.001Z" style="fill:#4f5252;fill-rule:nonzero;"/><path d="M111.874,63.3c0.001,2.02 1.333,3.998 3.452,3.998c2.1,0 3.452,-1.897 3.451,-3.976c0,-2.241 -1.352,-4.018 -3.452,-4.018c-2.119,0 -3.451,1.998 -3.451,3.996Zm0.001,8.944c0,0.242 -0.081,0.323 -0.304,0.323l-0.908,0c-0.222,0 -0.303,-0.081 -0.303,-0.323l-0.001,-13.747c0,-0.244 0.081,-0.324 0.303,-0.324l0.484,0c0.182,0 0.243,0.08 0.344,0.324l0.161,1.877c0.485,-0.767 1.576,-2.422 3.957,-2.422c2.827,0 4.663,2.442 4.663,5.37c0.001,2.947 -1.835,5.349 -4.662,5.349c-2.381,0 -3.472,-1.797 -3.734,-2.362l0,5.935Z" style="fill:#4f5252;fill-rule:nonzero;"/><path d="M123.303,65.321c0,1.251 0.908,2.159 2.543,2.159c1.393,0 2.704,-0.948 3.351,-1.897l-0.001,-1.675c-1.029,-0.424 -1.817,-0.727 -2.967,-0.727c-1.918,0 -2.927,0.767 -2.926,2.14Zm-0.466,-5.995l-0.161,-0.607c-0.061,-0.222 0,-0.323 0.242,-0.403c0.242,-0.061 1.918,-0.363 3.472,-0.363c3.391,0 4.32,1.513 4.32,4.845l0.001,5.329c0,0.243 -0.08,0.324 -0.303,0.324l-0.585,0c-0.163,0 -0.243,-0.081 -0.302,-0.324l-0.083,-1.373c-0.543,0.747 -1.876,1.917 -4.056,1.917c-1.939,0 -3.594,-1.191 -3.594,-3.35c-0.001,-2.2 1.654,-3.271 4.138,-3.271c1.07,0 2.241,0.283 3.27,0.707c0,-2.543 -0.747,-3.472 -2.867,-3.472c-1.292,0 -2.341,0.181 -3.108,0.322c-0.263,0.06 -0.324,-0.039 -0.384,-0.281Z" style="fill:#4f5252;fill-rule:nonzero;"/><path d="M135.113,63.162l0.001,4.965c0,0.243 -0.081,0.324 -0.302,0.324l-0.909,0c-0.222,0 -0.302,-0.081 -0.302,-0.324l-0.001,-9.63c0,-0.242 0.08,-0.322 0.302,-0.322l0.504,0c0.162,0 0.242,0.08 0.344,0.322l0.242,2.02c0.404,-0.849 1.332,-2.564 4.199,-2.564c0.283,0 0.323,0.082 0.283,0.283l-0.121,0.908c-0.061,0.242 -0.122,0.303 -0.364,0.303c-2.624,0 -3.876,1.837 -3.876,3.715Z" style="fill:#4f5252;fill-rule:nonzero;"/><path d="M145.31,68.673c-2.664,0 -3.654,-1.676 -3.655,-4.482l0,-4.764l-0.989,0c-0.242,0 -0.323,-0.081 -0.323,-0.323l0,-0.606c0,-0.262 0.081,-0.323 0.323,-0.323l0.989,0l0,-2.079c0,-0.243 0.061,-0.323 0.303,-0.323l0.888,0c0.242,0 0.302,0.08 0.302,0.323l0,2.079l3.655,0c0.221,0 0.302,0.061 0.302,0.324l0,0.606c0,0.242 -0.06,0.322 -0.302,0.322l-3.655,0l0,4.643c0.001,2.362 0.708,3.23 2.324,3.23c0.564,0 0.887,-0.04 1.392,-0.303c0.263,-0.14 0.324,-0.121 0.404,0.163l0.121,0.645c0.06,0.202 0.041,0.282 -0.141,0.384c-0.808,0.484 -1.676,0.484 -1.938,0.484Z" style="fill:#4f5252;fill-rule:nonzero;"/><path d="M151.022,60.316c0.424,-0.808 1.474,-2.362 3.453,-2.361c2.16,0 3.997,1.312 3.997,4.542l0.001,5.631c0,0.243 -0.081,0.324 -0.303,0.324l-0.908,0c-0.223,0 -0.303,-0.081 -0.303,-0.324l-0.001,-5.228c0,-2.403 -1.212,-3.572 -2.847,-3.572c-1.756,-0.001 -2.886,1.694 -2.886,3.712l0.001,5.088c0,0.243 -0.081,0.323 -0.303,0.323l-0.908,0c-0.223,0 -0.303,-0.08 -0.303,-0.323l-0.001,-5.006l0,-4.623c0,-0.243 0.08,-0.324 0.303,-0.324l0.504,0c0.162,0 0.242,0.081 0.343,0.324l0.161,1.817Z" style="fill:#4f5252;fill-rule:nonzero;"/><path d="M169.072,62.8c-0.081,-1.817 -1.393,-3.574 -3.452,-3.574c-2.08,0 -3.614,1.757 -3.675,3.574l7.127,0Zm0.747,4.018c0.142,0.181 0.142,0.303 0,0.443c-0.948,0.929 -2.584,1.413 -4.077,1.413c-3.049,0 -5.39,-2.403 -5.391,-5.35c0,-2.948 2.341,-5.369 5.289,-5.369c3.149,0 4.986,2.544 4.986,5.572c0,0.242 -0.04,0.323 -0.303,0.323l-8.418,-0.001c0.143,1.878 1.859,3.492 3.898,3.492c0.989,0 2.2,-0.302 3.169,-1.009c0.222,-0.121 0.302,-0.161 0.465,0.021l0.382,0.465Z" style="fill:#4f5252;fill-rule:nonzero;"/><path d="M174.464,63.164l0.001,4.966c0,0.242 -0.081,0.323 -0.303,0.323l-0.908,0c-0.223,0 -0.303,-0.081 -0.303,-0.323l-0.001,-9.63c0,-0.243 0.08,-0.323 0.303,-0.323l0.504,0c0.162,0 0.242,0.08 0.344,0.323l0.242,2.019c0.403,-0.848 1.332,-2.564 4.199,-2.564c0.282,0 0.322,0.082 0.282,0.283l-0.121,0.909c-0.06,0.242 -0.121,0.303 -0.363,0.303c-2.624,-0.001 -3.876,1.837 -3.876,3.714Z" style="fill:#4f5252;fill-rule:nonzero;"/><path d="M185.73,58.501c0,-0.242 0.061,-0.323 0.303,-0.323l0.889,0c0.262,0 0.322,0.081 0.322,0.323l0.001,9.629c0,0.242 -0.08,0.324 -0.322,0.324l-0.889,0c-0.242,0 -0.303,-0.082 -0.303,-0.324l-0.001,-9.629Zm0.727,-4.744c0.586,0 1.07,0.465 1.07,1.05c0,0.585 -0.484,1.05 -1.07,1.05c-0.585,0 -1.05,-0.465 -1.05,-1.051c0,-0.585 0.465,-1.049 1.05,-1.049Z" style="fill:#4f5252;fill-rule:nonzero;"/><path d="M192.372,60.318c0.424,-0.807 1.474,-2.362 3.452,-2.362c2.16,0 3.997,1.313 3.997,4.543l0.001,5.632c0,0.242 -0.081,0.324 -0.302,0.324l-0.909,0c-0.222,0 -0.302,-0.082 -0.302,-0.324l-0.001,-5.229c0,-2.402 -1.212,-3.572 -2.847,-3.572c-1.756,0 -2.887,1.695 -2.887,3.713l0.001,5.087c0,0.242 -0.081,0.324 -0.303,0.324l-0.908,0c-0.222,0 -0.302,-0.082 -0.302,-0.324l-0.001,-5.006l0,-4.623c0,-0.242 0.08,-0.323 0.302,-0.323l0.504,0c0.162,0 0.242,0.081 0.344,0.323l0.161,1.817Z" style="fill:#4f5252;fill-rule:nonzero;"/><path d="M215.389,63.328c0,-2.221 -1.696,-3.998 -3.816,-3.998c-2.099,0 -3.795,1.777 -3.795,3.998c0.001,2.22 1.697,3.996 3.796,3.997c2.12,0 3.816,-1.777 3.815,-3.997Zm-3.816,-5.371c2.948,0 5.31,2.423 5.31,5.371c0.001,2.947 -2.362,5.349 -5.309,5.349c-2.947,0 -5.309,-2.402 -5.31,-5.349c0,-2.948 2.362,-5.372 5.309,-5.371Z" style="fill:#4f5252;fill-rule:nonzero;"/><path d="M220.619,60.32c0.424,-0.807 1.474,-2.362 3.452,-2.362c2.16,0 3.997,1.313 3.997,4.543l0.001,5.632c0,0.242 -0.081,0.323 -0.302,0.323l-0.909,0c-0.222,0 -0.302,-0.081 -0.302,-0.323l-0.001,-5.229c0,-2.402 -1.212,-3.573 -2.847,-3.573c-1.756,0 -2.887,1.696 -2.887,3.714l0.001,5.087c0,0.242 -0.081,0.323 -0.302,0.323l-0.909,0c-0.222,0 -0.302,-0.081 -0.302,-0.323l-0.001,-5.006l0,-4.623c0,-0.242 0.08,-0.323 0.302,-0.323l0.504,0c0.162,0 0.242,0.081 0.344,0.323l0.161,1.817Z" style="fill:#4f5252;fill-rule:nonzero;"/><path d="M234.874,68.679c-2.664,-0.001 -3.653,-1.677 -3.654,-4.482l0,-4.765l-0.99,0c-0.242,0 -0.323,-0.081 -0.323,-0.323l0,-0.606c0,-0.261 0.081,-0.322 0.323,-0.322l0.99,0l0,-2.08c0,-0.242 0.06,-0.322 0.302,-0.322l0.888,0c0.242,0 0.303,0.08 0.303,0.322l0,2.08l3.654,0c0.222,0 0.303,0.061 0.303,0.323l0,0.606c0,0.242 -0.061,0.323 -0.303,0.323l-3.654,-0.001l0,4.644c0.001,2.361 0.708,3.229 2.323,3.23c0.565,0 0.888,-0.041 1.393,-0.303c0.262,-0.141 0.323,-0.121 0.403,0.161l0.121,0.646c0.061,0.202 0.041,0.283 -0.14,0.385c-0.808,0.484 -1.676,0.484 -1.939,0.484Z" style="fill:#4f5252;fill-rule:nonzero;"/><path d="M241.376,65.55l2.946,-7.388c0.081,-0.142 0.122,-0.284 0.283,-0.284l0.142,0c0.141,0 0.201,0.142 0.282,0.284l2.949,7.388l2.138,-7.045c0.081,-0.263 0.202,-0.324 0.424,-0.324l1.091,0.001c0.242,0 0.262,0.081 0.161,0.323l-3.128,9.871c-0.081,0.202 -0.182,0.303 -0.263,0.303l-0.14,0c-0.122,0 -0.202,-0.101 -0.304,-0.303l-3.27,-8.095l-3.291,8.095c-0.1,0.202 -0.181,0.303 -0.302,0.303l-0.121,0c-0.101,0 -0.202,-0.101 -0.283,-0.303l-3.13,-9.872c-0.101,-0.243 -0.061,-0.323 0.162,-0.323l1.09,0c0.202,0 0.323,0.061 0.403,0.283l2.161,7.086Z" style="fill:#4f5252;fill-rule:nonzero;"/><path d="M253.934,58.505c0,-0.242 0.06,-0.323 0.302,-0.323l0.889,0c0.262,0 0.322,0.081 0.322,0.323l0.001,9.629c0,0.242 -0.08,0.323 -0.322,0.323l-0.889,0c-0.242,0 -0.302,-0.081 -0.302,-0.323l-0.001,-9.629Zm0.726,-4.744c0.586,0 1.07,0.465 1.07,1.05c0,0.585 -0.484,1.05 -1.07,1.05c-0.585,0 -1.05,-0.465 -1.05,-1.05c0,-0.585 0.465,-1.05 1.05,-1.05Z" style="fill:#4f5252;fill-rule:nonzero;"/><path d="M267.603,68.136c0.221,0.242 0.081,0.322 -0.101,0.322l-1.292,0c-0.223,0 -0.323,-0.081 -0.525,-0.323l-4.947,-4.723l0.001,4.723c0,0.242 -0.082,0.323 -0.324,0.323l-0.867,0c-0.242,0 -0.323,-0.081 -0.323,-0.323l-0.001,-14.253c0,-0.242 0.081,-0.322 0.323,-0.322l0.868,0c0.263,0 0.323,0.08 0.323,0.322l0,8.823l4.683,-4.2c0.202,-0.242 0.304,-0.322 0.525,-0.322l1.272,0c0.202,0 0.262,0.162 0.101,0.323l-5.047,4.501l5.331,5.129Z" style="fill:#4f5252;fill-rule:nonzero;"/><path d="M278.242,68.136c0.222,0.242 0.081,0.322 -0.1,0.322l-1.292,0c-0.223,0 -0.324,-0.08 -0.526,-0.322l-4.946,-4.724l0.001,4.724c0,0.242 -0.081,0.322 -0.323,0.322l-0.868,0c-0.243,0 -0.324,-0.08 -0.324,-0.322l-0.001,-14.253c0,-0.242 0.081,-0.323 0.324,-0.323l0.868,0c0.262,0 0.323,0.081 0.323,0.323l0,8.822l4.683,-4.198c0.202,-0.243 0.303,-0.324 0.525,-0.324l1.271,0c0.203,0 0.263,0.162 0.102,0.324l-5.047,4.5l5.33,5.129Z" style="fill:#4f5252;fill-rule:nonzero;"/><path d="M288.236,62.807c-0.081,-1.817 -1.393,-3.573 -3.452,-3.573c-2.08,0 -3.614,1.756 -3.675,3.572l7.127,0.001Zm0.747,4.017c0.142,0.181 0.142,0.302 0,0.445c-0.948,0.928 -2.584,1.412 -4.077,1.412c-3.049,0 -5.39,-2.402 -5.391,-5.35c0,-2.947 2.341,-5.37 5.289,-5.369c3.149,0 4.986,2.543 4.986,5.572c0,0.242 -0.04,0.323 -0.303,0.323l-8.418,0c0.143,1.877 1.859,3.492 3.898,3.492c0.989,0 2.2,-0.303 3.169,-1.01c0.222,-0.121 0.302,-0.161 0.465,0.021l0.382,0.464Z" style="fill:#4f5252;fill-rule:nonzero;"/><path d="M292.194,53.884c0,-0.242 0.081,-0.322 0.324,-0.322l0.888,0c0.242,0 0.303,0.08 0.303,0.322l0.001,14.253c0,0.242 -0.061,0.323 -0.303,0.323l-0.888,0c-0.243,0 -0.324,-0.081 -0.324,-0.323l-0.001,-14.253Z" style="fill:#4f5252;fill-rule:nonzero;"/><path d="M297.646,58.507c0,-0.242 0.06,-0.322 0.302,-0.322l0.889,0c0.262,0 0.322,0.08 0.322,0.322l0.001,9.63c0,0.242 -0.08,0.323 -0.322,0.323l-0.889,0c-0.242,0 -0.303,-0.081 -0.303,-0.323l0,-9.63Zm0.726,-4.744c0.586,0 1.07,0.465 1.07,1.051c0,0.585 -0.484,1.049 -1.07,1.049c-0.585,0 -1.05,-0.464 -1.05,-1.049c0,-0.586 0.465,-1.051 1.05,-1.051Z" style="fill:#4f5252;fill-rule:nonzero;"/><path d="M304.288,60.325c0.424,-0.808 1.474,-2.363 3.452,-2.363c2.16,0.001 3.997,1.314 3.997,4.543l0.001,5.633c0,0.242 -0.081,0.322 -0.302,0.322l-0.909,0c-0.222,0 -0.302,-0.08 -0.302,-0.322l-0.001,-5.228c0,-2.403 -1.212,-3.574 -2.847,-3.575c-1.756,0 -2.887,1.696 -2.887,3.715l0.001,5.088c0,0.242 -0.081,0.322 -0.303,0.322l-0.908,0c-0.222,0 -0.302,-0.08 -0.302,-0.322l-0.001,-5.008l0,-4.622c0,-0.243 0.08,-0.323 0.302,-0.323l0.504,0c0.162,0 0.242,0.08 0.344,0.323l0.161,1.817Z" style="fill:#4f5252;fill-rule:nonzero;"/><path d="M315.131,63.333c0.001,2.059 1.333,3.977 3.453,3.977c2.099,0 3.451,-1.978 3.45,-3.996c0,-1.999 -1.352,-3.998 -3.451,-3.998c-2.12,0 -3.452,1.777 -3.452,4.017Zm6.885,2.989c-0.243,0.564 -1.353,2.361 -3.736,2.361c-2.845,0 -4.663,-2.402 -4.664,-5.35c0,-2.927 1.837,-5.37 4.663,-5.369c2.383,0 3.473,1.655 3.978,2.422l0.161,-1.877c0.081,-0.242 0.162,-0.323 0.344,-0.323l0.464,0c0.221,0 0.302,0.081 0.302,0.323l0.001,9.226c0,3.876 -1.574,5.713 -4.703,5.713c-2.201,0 -3.573,-0.566 -3.997,-0.728c-0.202,-0.08 -0.242,-0.14 -0.182,-0.363l0.202,-0.768c0.06,-0.242 0.121,-0.282 0.343,-0.181c0.625,0.222 1.675,0.687 3.412,0.687c2.604,0 3.412,-1.776 3.412,-4.199l0,-1.574Z" style="fill:#4f5252;fill-rule:nonzero;"/><rect x="88.045" y="6.845" width="0.805" height="65.928" style="fill:#9c9fa1;fill-rule:nonzero;"/><path d="M0,77c0,0 4.583,-9.433 13.371,-17.892c8.089,-7.784 15.37,-8.594 24.403,-9.686c9.035,-1.083 19.574,-0.82 22.492,-9.872c0,0 6.557,8.077 4.521,18.277c-2.03,10.203 -11.251,17.156 -26.758,17.989c-9.043,0.489 -21.075,-2.732 -38.029,1.184Z" style="fill:url(#_Linear1);"/><path d="M30.996,22.196c0.262,-2.592 0.199,-5.061 0.09,-7.507c-0.342,-7.962 -2.272,-13.209 -2.272,-13.209c-10.836,-0.28 -26.808,6.644 -27.984,35.334c-0.865,21.095 -0.174,30.31 -0.174,30.31c0,0 8.124,-11.305 17.328,-20.219c7.843,-7.592 9.959,-13.307 11.725,-18.652c0.48,-1.817 0.948,-3.886 1.287,-6.057Z" style="fill:#4f5252;fill-rule:nonzero;"/><path d="M34.913,27.289c11.563,0 20.234,3.471 25.235,12.37c2.845,-3.855 4.523,-8.418 4.603,-13.327c0.228,-13.855 -14.999,-26.021 -30.535,-25.447c0.69,2.179 1.959,7.336 1.826,15.426c-0.063,3.951 -0.318,7.62 -1.129,10.978Z" style="fill:url(#_Linear2);"/></g><defs><linearGradient id="_Linear1" x1="0" y1="0" x2="1" y2="0" gradientUnits="userSpaceOnUse" gradientTransform="matrix(65.5806,-1.18725,1.18725,65.5806,-0.329102,58.8252)"><stop offset="0" style="stop-color:#c0202e;stop-opacity:1"/><stop offset="1" style="stop-color:#ed3b2d;stop-opacity:1"/></linearGradient><linearGradient id="_Linear2" x1="0" y1="0" x2="1" y2="0" gradientUnits="userSpaceOnUse" gradientTransform="matrix(49.043,28.3149,28.3149,-49.043,22.7568,34.3808)"><stop offset="0" style="stop-color:#fbb427;stop-opacity:1"/><stop offset="1" style="stop-color:#fadc2a;stop-opacity:1"/></linearGradient></defs></svg>