<svg height="54" width="130" xmlns="http://www.w3.org/2000/svg"><path d="m15.646 14.636c.062-.163.15-.032.337-.147.199-.186.403-.489.725-.591.232-.07.55-.037.766.045.144.036.057.401-.051.495-.23.168-.91-.109-.91.394.028.824 1.129-.026 1.705-.003.28 2.01-3.073 1.456-2.572-.193zm.614 1.831c1.25.36 2.58.165 2.876.907-.574.301-.121 1.296.456 1.133.476-1.322.717-6.432-6.238-4.89.736.095 1.204 2.358 2.906 2.85zm-11.51 1.067c4.258-3.466 3.219-4.967 3.076-5.243-.408-.812-1.156-.777-1.156-.777s1.07.872-4.153 5.167c-5.227 4.3-.69 6.788-.69 6.788s-1.327-2.474 2.923-5.935zm-.351-5.709c2.649-1.643 1.494-4.509 1.494-4.509-.145.769-1.274 1.53-1.274 1.53-.625.406-3.134 1.509-3.32 4.234-.041.546.015 1.159.2 1.844.643-1.286 1.557-2.264 2.9-3.099zm5.344 18.542c1.45-6.293-.617-7.842-.617-7.842s.364 1.723-1.178 6.156c-4.033 11.594 3.672 12.692 5.865 15.418 0 0 .849-1.182-2.646-4.961-1.275-1.381-2.427-4.424-1.424-8.771zm-4.887-2.306c.304-2.316 1.726-4.802 2.939-6.539 1.442-2.073.918-4.217.643-5.177-.134 2.176-3.548 5.151-4.62 7.059-.523.938-1.163 2.549-1.33 3.482-.453 2.597.123 4.21.765 5.729 1.13 2.671-.153 3.653.73 3.111 1.095-.879.928-2.928.848-4.208-.064-1.038-.134-2.22.025-3.457zm15.662 7.762c1.766-.125 2.832.38 3.767.38l-.01-9.313c-1.341-1.009-1.97.008-2.813-.06-.713-.055-1.382-1.192-1.935-.921-1.054.53.423 2.4 1.064 2.782.57.338 1.289.648 1.462.726.847.392 1.184.983 1.29 1.906.028.211 0 .695-.052.919-.386 1.619-3.262 3.088-4.913 1.976-.777-.524-1.487-1.203-1.732-2.404-.445-2.127-2.002-3.691-2.501-5.772-.304-1.265-.528-2.599-.863-3.871-.34-1.316-.691-2.618-.97-3.813-.254-1.111-.79-2.771-1.178-3.783-1.577-4.059-2.29-3.764-2.29-3.764s.575 1.126 2.663 11.077c.086.407.845 4.79 1.399 6.233.198.518.544 1.622.772 2.111.664 1.425 2.418 3.587 2.534 5.535.067 1.127.197 2.058.224 2.911.016.249.128 1.266.293 1.717.428 1.188 3.885 5.022 7.556 5.022v-2.905c-3.647 0-7.083-2.016-7.168-2.228-.053-.094.19-1.469.437-2.081.478-1.183 1.379-2.265 2.964-2.38zm3.64-35.734 18.596 53.914.265-.09-18.596-53.913zm98.435 38.461c-.274 0-.517-.092-.69-.307-.17-.213-.277-.54-.277-1.025v-2.603h1.489v-.734h-1.49v-1.087h-.052l-.75.139v.948h-.594v.734h.594v2.603c0 .74.18 1.261.487 1.588.304.331.713.474 1.184.474.42 0 .87-.117 1.325-.322l-.217-.724c-.352.199-.7.316-1.01.316zm-4.568-1.459c-.25-.286-.42-.531-.445-.648l2.183-2.562h-1.025l-2.132 2.511v-4.603h-.051l-.75.138v7.251h.8v-2.689c.012.031.048.091.11.189.057.097.135.209.233.342.192.27.46.607.756.933.289.332.62.659.937.899.315.244.63.413.9.428l.33-.699c-.273-.082-.614-.306-.945-.587a8.073 8.073 0 0 1 -.901-.903zm-4.113-3.312c-.497 0-.922.251-1.32.705l-.186-.603h-.538v5.297h.802v-3.959c.274-.414.642-.71 1.112-.71.223 0 .538.066.74.163l.28-.709a2.077 2.077 0 0 0 -.44-.138 2.561 2.561 0 0 0 -.45-.046zm-6.79 2.235c.068-.434.229-.812.478-1.076.248-.266.574-.424.983-.424.419 0 .683.169.843.444.16.276.218.648.222 1.056h-2.525zm2.688-1.878c-.276-.219-.658-.357-1.211-.357-.808 0-1.382.291-1.755.77-.378.481-.554 1.159-.554 1.914 0 .98.29 1.679.745 2.139.456.459 1.08.678 1.749.678.497 0 .984-.107 1.542-.377v-.73l-.015-.005c-.492.244-.968.377-1.45.377-.46 0-.883-.147-1.2-.449-.315-.301-.533-.755-.574-1.367h3.348v-.715c0-.331-.021-.693-.11-1.025-.087-.332-.247-.633-.515-.853zm-6.282 4.17-1.33-4.425h-.734l-1.33 4.425-1.418-4.425h-.777l1.699 5.297h.998l1.196-4.031 1.194 4.031h.994l1.703-5.297h-.771zm-10.808-1.965c-.202.209-.502.352-.901.352-.41 0-.715-.143-.922-.352a1.077 1.077 0 0 1 -.315-.75c0-.266.104-.541.31-.751.208-.209.513-.356.912-.356.398 0 .704.142.91.356.202.215.306.495.306.761 0 .265-.098.536-.3.74zm-1.765 2.408h.606c.563 0 1.08.015 1.459.133.373.122.605.337.605.73 0 .321-.187.648-.513.892-.331.25-.791.424-1.33.424-.475 0-.802-.112-1.01-.301-.206-.188-.294-.459-.294-.77 0-.367.187-.781.477-1.108zm3.28-5.26c-.18 0-.408.044-.646.137a3.17 3.17 0 0 0 -.725.399 2.135 2.135 0 0 0 -1.04-.246c-.585 0-1.081.189-1.432.505a1.66 1.66 0 0 0 -.555 1.261c0 .225.042.464.114.684.072.224.186.428.33.576-.253.311-.387.638-.387.924 0 .148.042.316.114.474a.806.806 0 0 0 .326.378c-.41.409-.642.918-.642 1.347 0 .47.192.894.534 1.194.34.307.837.494 1.453.494.668 0 1.362-.223 1.883-.596.524-.366.88-.882.88-1.459 0-.393-.175-.771-.527-1.046-.357-.276-.9-.444-1.641-.444h-1.014c-.43 0-.662-.209-.662-.475 0-.138.062-.285.18-.435.285.139.617.231.994.231.585 0 1.087-.214 1.444-.557.352-.342.559-.805.559-1.31 0-.368-.11-.7-.31-.986a2.797 2.797 0 0 1 1.009-.382l-.24-.668zm-7.58.29c-.253 0-.548.077-.832.189a4.622 4.622 0 0 0 -.776.403l-.151-.49h-.538v5.297h.803v-4.159c.207-.122.43-.249.672-.347.243-.097.497-.163.746-.163.326 0 .62.076.832.281.207.203.342.535.342 1.045v3.343h.803v-3.388c0-.751-.217-1.251-.565-1.567-.351-.316-.822-.444-1.335-.444zm-4.51-1.888a.552.552 0 0 0 -.554.546c0 .148.06.281.165.378a.543.543 0 0 0 .389.163.567.567 0 0 0 .393-.163c.104-.097.165-.23.165-.378s-.061-.286-.165-.387a.576.576 0 0 0 -.393-.159zm-.4 7.287h.798v-5.297h-.797v5.297zm-2.611-1.215c-.284.393-.735.577-1.273.577-.575 0-.978-.245-1.243-.618-.264-.372-.383-.877-.383-1.402 0-.669.193-1.174.524-1.511.326-.337.786-.506 1.324-.506.337 0 .688.072 1.05.21v3.25zm0-6.072v1.995a5.183 5.183 0 0 0 -.994-.107c-.926 0-1.6.291-2.043.776-.446.484-.663 1.147-.663 1.898 0 .771.227 1.475.63 1.985.405.515.984.837 1.688.837.62 0 1.102-.219 1.51-.566l.167.469h.508v-7.389h-.053zm-5.74 0v7.287h.798v-7.389h-.051l-.746.102zm-4.473 4.123c.067-.434.227-.812.476-1.076.248-.266.575-.424.983-.424.419 0 .683.169.844.444.16.276.216.648.222 1.056zm2.685-1.878c-.274-.219-.657-.357-1.211-.357-.807 0-1.381.291-1.753.77-.378.481-.554 1.159-.554 1.914 0 .98.289 1.679.745 2.139.455.459 1.08.678 1.749.678.497 0 .983-.107 1.542-.377v-.73l-.016-.005c-.491.244-.967.377-1.45.377-.46 0-.884-.147-1.2-.449-.315-.301-.532-.755-.573-1.367h3.347v-.715c0-.331-.02-.693-.108-1.025s-.248-.633-.518-.853zm-7.58 1.878c.067-.434.228-.812.476-1.076a1.3 1.3 0 0 1 .984-.424c.419 0 .683.169.843.444.16.276.218.648.223 1.056zm2.686-1.878c-.274-.219-.657-.357-1.211-.357-.807 0-1.381.291-1.754.77-.378.481-.554 1.159-.554 1.914 0 .98.29 1.679.745 2.139.456.459 1.082.678 1.749.678.498 0 .984-.107 1.542-.377v-.73l-.015-.005c-.491.244-.968.377-1.448.377-.462 0-.886-.147-1.201-.449-.316-.301-.533-.755-.575-1.367h3.349v-.715c0-.331-.021-.693-.11-1.025-.087-.332-.248-.633-.517-.853zm-5.665 3.854c-.331.366-.792.566-1.33.566-.352 0-.698-.026-1.051-.164v-3.302c.275-.388.735-.576 1.273-.576.575 0 .978.22 1.243.566.263.348.382.822.382 1.348 0 .668-.191 1.199-.517 1.562zm-1-4.211c-.558 0-1.003.178-1.381.464v-2.454h-.051l-.751.102v7.012c.497.204 1.128.377 1.796.377.926 0 1.604-.322 2.049-.832.445-.504.658-1.199.658-1.95 0-.77-.228-1.448-.632-1.938a2.138 2.138 0 0 0 -1.687-.781zm-4.076 0c-.496 0-.921.251-1.32.705l-.186-.603h-.538v5.297h.802v-3.959c.274-.414.642-.71 1.113-.71.222 0 .538.066.74.163l.279-.709a2.032 2.032 0 0 0 -.44-.138c-.16-.03-.32-.046-.45-.046zm-6.787 2.235c.066-.434.227-.812.475-1.076a1.3 1.3 0 0 1 .984-.424c.419 0 .683.169.843.444.16.276.217.648.222 1.056zm2.685-1.878c-.274-.219-.657-.357-1.211-.357-.807 0-1.382.291-1.754.77-.378.481-.554 1.159-.554 1.914 0 .98.29 1.679.745 2.139.456.459 1.082.678 1.75.678.496 0 .983-.107 1.542-.377v-.73l-.016-.005c-.492.244-.968.377-1.45.377-.46 0-.884-.147-1.2-.449-.315-.301-.533-.755-.574-1.367h3.348v-.715c0-.331-.02-.693-.108-1.025s-.25-.633-.518-.853zm-6.462 4.2-1.553-4.455h-.828l1.843 5.297h1.07l1.848-5.297h-.828zm83.549-21.393c-.628-.539-1.494-.782-2.395-.782a5.592 5.592 0 0 0 -3.018.908l-.21-.728h-1.805v9.328h2.133v-6.91a4.026 4.026 0 0 1 2.06-.576c.556 0 1.103.126 1.496.432.39.305.646.79.646 1.482v5.572h2.133v-6.192c0-1.159-.41-1.995-1.04-2.534zm-14.747 3.181c.118-.674.419-1.159.792-1.483a1.898 1.898 0 0 1 1.249-.458c.41 0 .83.135 1.158.45.327.323.556.808.619 1.491zm3.37-3.738a4.48 4.48 0 0 0 -1.393-.225 4.074 4.074 0 0 0 -2.925 1.24c-.803.827-1.331 2.031-1.331 3.604 0 1.618.564 2.84 1.459 3.639.892.801 2.105 1.205 3.417 1.205.4 0 .866-.045 1.339-.135.465-.09.92-.215 1.349-.422v-2.04l-.081-.027a5.191 5.191 0 0 1 -2.38.611c-.61 0-1.221-.135-1.721-.459-.511-.323-.904-.835-1.076-1.59h5.742v-1.402c0-1.294-.32-2.211-.775-2.831a3.318 3.318 0 0 0 -1.623-1.168zm-6.49-.144a5.56 5.56 0 0 0 -.956-.081c-.947 0-1.75.395-2.406.944l-.22-.764h-1.804v9.328h2.133v-6.794c.575-.431 1.213-.683 1.905-.683.537 0 1.066.144 1.604.467l.675-2.13c-.248-.135-.584-.224-.93-.287zm-11.913 2.399a1.898 1.898 0 0 1 1.249-.458c.41 0 .829.135 1.157.45.328.323.556.808.62 1.491h-3.818c.118-.674.419-1.159.792-1.483zm3.144 7.073c.465-.09.92-.215 1.349-.422v-2.04l-.081-.027a5.194 5.194 0 0 1 -2.38.611c-.611 0-1.221-.135-1.723-.459-.51-.323-.902-.835-1.074-1.59h5.74v-1.402c0-1.294-.318-2.211-.773-2.831a3.322 3.322 0 0 0 -1.623-1.168 4.486 4.486 0 0 0 -1.395-.225 4.07 4.07 0 0 0 -2.924 1.24c-.803.827-1.332 2.031-1.332 3.604 0 1.618.565 2.84 1.459 3.639.893.801 2.105 1.205 3.417 1.205.402 0 .866-.045 1.34-.135zm-13.563-6.875c.473-.485 1.157-.719 1.969-.719.427 0 .974.063 1.512.198v4.934c-.574.35-1.294.575-1.941.575-.756 0-1.32-.351-1.704-.881-.383-.53-.584-1.222-.584-1.932 0-.971.274-1.69.748-2.175zm1.076 7.01c1.047 0 1.813-.341 2.543-.88l.382.7h1.612v-13.013h-.327l-1.805.18v3.415c-.501-.063-.966-.09-1.394-.09-1.458 0-2.715.422-3.61 1.285-.892.872-1.43 2.184-1.43 3.945 0 1.151.329 2.265.994 3.092.664.827 1.677 1.366 3.035 1.366zm-9.107-9.688a5.592 5.592 0 0 0 -3.018.908l-.21-.728h-1.805v9.328h2.133v-6.91a4.026 4.026 0 0 1 2.06-.576c.556 0 1.103.126 1.496.432.39.305.646.79.646 1.482v5.572h2.133v-6.192c0-1.159-.41-1.995-1.04-2.534s-1.494-.782-2.395-.782zm-9.82 6.3c0 .746-.31 1.151-.691 1.384-.384.234-.83.288-1.094.288-.775 0-1.331-.423-1.331-1.187 0-.548.292-.818.82-.943.529-.127 1.303-.108 2.296-.108zm2.106.234v-3.469c0-1.142-.41-1.905-1.057-2.391-.656-.485-1.531-.683-2.47-.683-1.194 0-2.461.323-3.455.791l.502 1.833c.374-.18.812-.332 1.248-.45a5.168 5.168 0 0 1 1.286-.188c.51 0 .966.108 1.303.377.338.27.546.72.546 1.367v.467c-.837-.072-1.43-.072-1.94-.072-1.267 0-2.097.243-2.607.683-.511.441-.711 1.096-.711 1.915 0 .826.2 1.437.52 1.877.319.441.747.711 1.212.872.464.162.948.225 1.385.225.61 0 1.057-.108 1.458-.288.393-.17.72-.413 1.094-.691.356.386.71.629 1.066.772.356.153.703.207 1.057.207l.966-1.761c-.41-.081-.756-.207-1.002-.423-.255-.216-.401-.529-.401-.97zm-11.412-.234c0 .746-.31 1.151-.693 1.384-.383.234-.83.288-1.094.288-.774 0-1.331-.423-1.331-1.187 0-.548.292-.818.82-.943.53-.127 1.304-.108 2.298-.108zm3.508 1.627c-.41-.081-.756-.207-1.002-.423-.255-.216-.401-.529-.401-.97v-3.469c0-1.142-.41-1.905-1.058-2.391-.656-.485-1.531-.683-2.47-.683-1.193 0-2.46.323-3.453.791l.5 1.833c.375-.18.812-.332 1.25-.45a5.14 5.14 0 0 1 1.285-.188c.51 0 .966.108 1.303.377.337.27.547.72.547 1.367v.467c-.84-.072-1.431-.072-1.942-.072-1.267 0-2.096.243-2.606.683-.511.441-.711 1.096-.711 1.915 0 .826.2 1.437.52 1.877.318.441.747.711 1.212.872.464.162.948.225 1.385.225.61 0 1.057-.108 1.458-.288.392-.17.72-.413 1.094-.691.355.386.71.629 1.066.772.355.153.702.207 1.058.207zm-10.49-11.432h-.274l-1.86.18v12.833h2.134zm-7.795 13.193 4.2-12.025h-2.26l-3.19 9.131-3.19-9.131h-2.26l4.202 12.025z" fill="#333332" fill-rule="evenodd"/></svg>