<?xml version="1.0" encoding="utf-8"?>
<svg width="30" height="30" viewBox="0 0 30 30" fill="none" xmlns="http://www.w3.org/2000/svg">
<path d="M14.9579 0C14.9407 0 14.922 0 14.9049 0C6.66063 0.0280636 -0.0264203 6.76021 7.8484e-05 15.0078C0.0265773 23.2788 6.74948 30 14.9937 30C15 30 15.0062 30 15.0109 30C19.0215 29.9953 22.7953 28.4191 25.6369 25.5613C28.4676 22.7144 30.0185 18.9507 29.9998 14.9641C29.964 6.70253 23.2208 0 14.9579 0ZM14.9095 1.55909C14.9267 1.55909 14.9407 1.55909 14.9563 1.55909C18.3902 1.55909 21.5233 2.86249 23.9082 4.98753L18.741 10.1575C17.9179 10.2463 17.1277 10.555 16.5307 11.0602C16.9609 10.3336 17.2181 9.50733 17.2181 8.62332C17.2165 7.14531 16.5649 5.7889 15.4317 4.89866L15.0031 4.5619L14.5713 4.8971C13.4412 5.77487 12.7896 7.12504 12.7819 8.60462C12.7772 9.4933 13.0359 10.3274 13.4693 11.0586C12.4997 10.2417 11.0018 9.88463 9.76099 10.2417L9.29492 10.3757L9.25595 10.8575C9.17957 11.7571 9.35571 12.6006 9.77813 13.3614C10.0992 13.9398 10.5248 14.3639 10.9675 14.7038C10.5544 14.6882 10.146 14.7147 9.75943 14.8223L9.29648 14.9563L9.25595 15.4397C9.17957 16.3408 9.35571 17.1843 9.77969 17.9436C10.093 18.508 10.5061 18.9227 10.9378 19.2594C10.5357 19.247 10.1366 19.2766 9.76099 19.3857L9.29648 19.5198L9.28557 19.6523L9.26686 19.6336L4.98341 23.9164C2.86974 21.5419 1.56974 18.4238 1.55883 15.0016C1.53545 7.61459 7.52418 1.58403 14.9095 1.55909ZM15.0015 23.893C14.9579 22.7736 14.7459 21.5903 13.8948 20.5987L14.9906 20.9245V20.9308L15.0015 20.9277L15.0124 20.9308V20.9245L16.1082 20.5987C15.2572 21.5887 15.0436 22.7721 15.0015 23.893ZM13.5815 23.6077C13.4116 23.5563 13.2464 23.5017 13.0858 23.4378C12.0352 23.02 11.393 22.5226 11.0064 21.8241C10.8007 21.4562 10.6838 21.0695 10.6495 20.6517C11.3852 20.6127 12.2207 20.8793 12.6961 21.3548C13.2853 21.9395 13.5082 22.6551 13.5815 23.6077ZM15.0015 19.3327C14.9579 18.2024 14.7412 17.0081 13.8714 16.0119L14.9906 16.3471V16.3533L15.0015 16.3502L15.0124 16.3533V16.3471L16.1332 16.0119C15.2603 17.005 15.0436 18.2008 15.0015 19.3327ZM14.5651 12.3542L14.9984 12.6988L15.4333 12.3558C15.4894 12.3121 15.5299 12.2529 15.5829 12.2061C15.1543 13.0168 15.0327 13.9024 15 14.7521C14.9688 13.904 14.8456 13.0184 14.4185 12.2077C14.4715 12.2529 14.5105 12.3106 14.5651 12.3542ZM14.1847 8.61085C14.1894 7.77518 14.4809 7.00031 15 6.41098C15.5237 7.00655 15.8136 7.78609 15.8152 8.62332C15.8167 9.459 15.5237 10.2401 15.0015 10.8404C14.4731 10.2339 14.1816 9.44964 14.1847 8.61085ZM11.0064 12.6816C10.8007 12.3121 10.6838 11.9239 10.6495 11.5076C11.393 11.464 12.2191 11.7353 12.6961 12.2123C13.2838 12.7986 13.5082 13.5126 13.5799 14.4637C13.4116 14.4138 13.2464 14.3592 13.0858 14.2953C12.0337 13.8759 11.393 13.3785 11.0064 12.6816ZM12.6977 16.793C13.2853 17.3792 13.5098 18.0948 13.5815 19.0458C13.4116 18.9944 13.2464 18.9398 13.0858 18.8759C12.0337 18.4565 11.393 17.9592 11.0064 17.2622C10.8007 16.8943 10.6838 16.5076 10.6495 16.0898C11.4117 16.0539 12.2207 16.319 12.6977 16.793ZM17.3054 21.3533C17.7496 20.9105 18.4947 20.6455 19.1946 20.6455C19.2476 20.6455 19.3006 20.647 19.3536 20.6501C19.3208 21.068 19.2024 21.4546 18.9966 21.8241C18.61 22.521 17.9694 23.02 16.9157 23.4362C16.7536 23.5017 16.5899 23.5547 16.4215 23.6062C16.4932 22.6536 16.7177 21.9379 17.3054 21.3533ZM16.9172 18.8759C16.7551 18.9398 16.5914 18.9944 16.4215 19.0458C16.4948 18.0932 16.7177 17.3776 17.3054 16.793C17.7496 16.3502 18.4962 16.0851 19.1977 16.0851C19.2491 16.0851 19.3006 16.0867 19.3536 16.0898C19.3208 16.5076 19.2024 16.8943 18.9966 17.2638C18.6116 17.9607 17.9678 18.4565 16.9172 18.8759ZM16.9172 14.2953C16.7551 14.3592 16.5914 14.4138 16.4215 14.4637C16.4948 13.5126 16.7177 12.797 17.3054 12.2123C17.7496 11.768 18.4947 11.503 19.1961 11.503C19.2476 11.503 19.3006 11.5045 19.3536 11.5076C19.3208 11.9255 19.2024 12.3137 18.9966 12.6832C18.6116 13.3785 17.9678 13.8743 16.9172 14.2953ZM24.5317 24.4621C21.9832 27.0253 18.6022 28.4378 15.0093 28.4409C15.0046 28.4409 15 28.4409 14.9937 28.4409C11.5769 28.4409 8.45943 27.1406 6.08545 25.0187L9.43521 21.6682C9.5225 21.9551 9.63005 22.2357 9.77813 22.5023C10.4983 23.8026 11.7141 24.4013 12.5652 24.7396C12.9003 24.8737 13.2479 24.9735 13.6205 25.0795L14.989 25.4896V25.4958L15 25.4927L15.0109 25.4958V25.4896L16.3795 25.0795C16.7504 24.9751 17.0996 24.8737 17.4332 24.7396C18.2858 24.4013 19.5016 23.8011 20.2218 22.5039C20.6442 21.7431 20.8219 20.9012 20.7455 20L20.705 19.5182L20.2405 19.3842C19.8664 19.2766 19.4673 19.2454 19.0652 19.2579C19.497 18.9211 19.91 18.508 20.2218 17.9436C20.6442 17.1827 20.8219 16.3393 20.7455 15.4381L20.705 14.9548L20.2405 14.8223C19.857 14.7147 19.4471 14.6882 19.0324 14.7038C19.4751 14.3639 19.9007 13.9398 20.2218 13.3614C20.6442 12.599 20.8219 11.7555 20.7455 10.8559L20.7081 10.3929L25.0118 6.08669C27.1239 8.45338 28.4255 11.5591 28.4411 14.9704C28.4567 18.5407 27.0678 21.9114 24.5317 24.4621Z" fill="#494949"/>
</svg>
