<?xml version="1.0" encoding="utf-8"?>
<svg width="30" height="30" viewBox="0 0 30 30" fill="none" xmlns="http://www.w3.org/2000/svg">
<path d="M14.9571 0C14.9399 0 14.9212 0 14.9041 0C6.66028 0.0280636 -0.0248692 6.76021 6.95488e-05 15.0078C0.026567 23.2788 6.75068 30 14.9961 30C15.0007 30 15.007 30 15.0116 30C19.0221 29.9953 22.7956 28.4175 25.6371 25.5597C28.4677 22.7128 30.0185 18.9492 29.9998 14.9626C29.964 6.70097 23.2212 0 14.9571 0ZM14.9088 1.55909C14.9259 1.55909 14.9399 1.55909 14.9555 1.55909C18.3908 1.55909 21.5222 2.86249 23.907 4.98597L18.7618 10.1325C18.6901 9.89086 18.6106 9.65232 18.5436 9.4091L18.5 9.2454C18.4423 9.0396 18.3862 8.83224 18.3238 8.62021C18.6168 8.12753 18.7899 7.41347 18.5545 6.80231C18.2942 6.12722 17.532 5.56907 16.8135 5.53321C15.6133 5.4724 14.3913 5.47084 13.1942 5.53009C12.4835 5.56439 11.7182 6.11007 11.4516 6.76957C11.2069 7.37917 11.3581 8.10571 11.6683 8.61865L11.5436 9.02089C11.2599 9.95479 10.9638 10.9183 10.7237 11.8865C10.4821 12.8594 10.2811 13.7418 10.2515 14.6804C10.214 15.9448 10.2156 17.2123 10.2218 18.4705L10.2234 18.6763L4.9847 23.9164C2.87114 21.5419 1.56965 18.4253 1.55874 15.0016C1.53692 7.61459 7.52534 1.58403 14.9088 1.55909ZM18.1976 18.5688C18.1991 19.3078 18.2007 20.0437 18.196 20.7811C18.1867 22.0003 17.3746 22.8625 16.176 22.9249C15.3951 22.9607 14.6017 22.9623 13.8115 22.9233C12.6175 22.8609 11.8101 22.0175 11.7992 20.8216L11.7805 18.4612C11.7727 17.2201 11.7712 15.9698 11.8101 14.7256C11.8335 13.9429 12.0174 13.1478 12.2372 12.2622C12.471 11.3221 12.7578 10.3835 13.0368 9.47615L13.2223 8.86654C13.3439 8.46741 13.2815 8.16495 13.0119 7.82819C12.9183 7.7097 12.8622 7.43997 12.8981 7.35267C12.9417 7.256 13.1662 7.09542 13.2706 7.0845C13.8395 7.05644 14.4131 7.04397 14.9898 7.04397C15.5728 7.04397 16.1557 7.058 16.734 7.08606C16.8415 7.09698 17.0613 7.26068 17.1003 7.3589C17.1268 7.44153 17.0722 7.69878 16.9584 7.85937C16.7901 8.09791 16.6218 8.39102 16.7605 8.83068C16.8446 9.10664 16.9226 9.3826 16.9974 9.66168L17.0426 9.82382C17.1875 10.3539 17.3403 10.8965 17.5679 11.5451C17.6458 11.7555 17.7128 11.9676 17.7736 12.1827C18.2521 13.8385 18.2568 15.5067 18.196 16.9177V16.9192C18.1898 17.0876 18.1913 17.256 18.1929 17.4197L18.1976 18.5688ZM24.532 24.4606C21.9851 27.0237 18.6028 28.4362 15.0101 28.4409C15.0054 28.4409 15.0007 28.4409 14.9961 28.4409C11.5779 28.4409 8.46054 27.1406 6.08513 25.0203L10.2437 20.8606C10.2733 22.8547 11.7338 24.3764 13.7304 24.4793C14.1528 24.5026 14.5783 24.512 15.0007 24.512C15.42 24.512 15.8377 24.5011 16.2555 24.4793C18.2677 24.3764 19.7391 22.8235 19.7547 20.7905C19.7594 20.0483 19.7578 19.3062 19.7562 18.5641L19.7531 17.4104C19.7516 17.2669 19.75 17.1235 19.7562 16.9816C19.8186 15.4615 19.8077 13.6592 19.2871 11.8132L25.0121 6.08669C27.1241 8.45338 28.4256 11.5591 28.4412 14.9688C28.4567 18.5391 27.0695 21.9099 24.532 24.4606Z" fill="#494949"/>
</svg>
