<?xml version="1.0" encoding="utf-8"?>
<svg width="30" height="30" viewBox="0 0 30 30" fill="none" xmlns="http://www.w3.org/2000/svg">
<path d="M14.958 0C14.9408 0 14.9221 0 14.905 0C6.66068 0.0296227 -0.0264205 6.76177 7.84846e-05 15.0078C0.0265775 23.2788 6.74953 30 14.9923 30C14.9985 30 15.0048 30 15.0094 30C19.0217 29.9953 22.7955 28.4191 25.6371 25.5613C28.4678 22.7144 30.0188 18.9507 30.0001 14.9641C29.9642 6.70253 23.221 0 14.958 0ZM24.5319 24.4621C21.9833 27.0253 18.6008 28.4378 15.0079 28.4409C15.0032 28.4409 14.9985 28.4409 14.9923 28.4409C7.60685 28.4409 1.58067 22.415 1.55884 15.0016C1.53546 7.61615 7.52424 1.58559 14.9097 1.55909C14.9268 1.55909 14.9408 1.55909 14.9564 1.55909C22.3621 1.55909 28.407 7.56782 28.4398 14.9719C28.4569 18.5407 27.068 21.9114 24.5319 24.4621Z" fill="#494949"/>
<path d="M18.1719 13.346C17.2101 9.61358 13.9367 6.26154 13.784 6.10875L13.0872 5.41028L12.5697 6.25219C12.4341 6.47046 11.7591 7.51505 11.6812 7.62886C11.0016 8.61733 10.5059 9.39999 10.0803 10.1639C8.67901 12.6647 5.85453 18.8621 9.89797 22.3966C10.3407 22.7817 10.8426 23.0888 11.438 23.3382C11.8838 23.5238 12.378 23.6844 12.5385 23.7343L12.5962 23.7498C13.0108 23.9634 13.3678 24.0367 13.4332 24.0476C13.5252 24.0601 13.6125 24.057 13.7029 24.0663L13.7123 24.0695V24.0679C13.9773 24.0944 14.2438 24.1225 14.4979 24.1225C16.0535 24.1225 17.4175 23.6314 18.5647 22.6522C21.9971 19.7212 22.192 13.4489 22.1997 13.1839L22.2247 12.2001L21.2629 12.4012C21.199 12.4121 19.8554 12.6975 18.1719 13.346ZM10.9221 21.2194C7.74064 18.4396 10.2253 13.0935 11.4411 10.9232C11.8433 10.2029 12.3141 9.45923 12.9672 8.51131C13.0015 8.45986 13.162 8.21352 13.3413 7.93444C14.3467 9.09908 16.1969 11.5016 16.7487 13.9525C16.7035 13.9744 16.6692 13.9993 16.6256 14.0196C16.0785 14.2862 15.5734 14.5621 15.1089 14.8521C15.0325 14.8989 14.9608 14.9488 14.886 14.9956C14.4309 15.2933 14.0115 15.602 13.639 15.9263C13.586 15.9731 13.5377 16.0199 13.4878 16.0667C13.1184 16.4019 12.7864 16.7495 12.5058 17.1112C12.4793 17.1455 12.4575 17.1814 12.4325 17.2157C12.1473 17.5992 11.901 17.9937 11.7139 18.4053C11.5487 18.7701 11.4271 19.1053 11.3258 19.4265C11.2946 19.5232 11.2728 19.6136 11.2463 19.7056C11.1839 19.9332 11.1372 20.1484 11.1045 20.3526C11.092 20.4321 11.0764 20.5132 11.0686 20.5896C11.0405 20.8499 11.0265 21.0963 11.0405 21.3177C11 21.2865 10.9595 21.2537 10.9221 21.2194ZM17.5546 21.4642C16.4884 22.3716 15.204 22.7115 13.6764 22.5088C13.6733 22.5088 13.4379 22.462 13.1901 22.303C12.2081 21.6731 12.6165 20.1873 13.1324 19.0523C13.9897 17.1674 16.2172 15.878 17.935 15.1265C18.9357 14.69 19.8834 14.3813 20.563 14.1864C20.3666 15.9809 19.7088 19.6245 17.5546 21.4642Z" fill="#494949"/>
</svg>
