<?xml version="1.0" encoding="utf-8"?>
<svg width="30" height="30" viewBox="0 0 30 30" fill="none" xmlns="http://www.w3.org/2000/svg">
<path d="M14.9579 0C14.9407 0 14.922 0 14.9049 0C6.66063 0.0280636 -0.0264203 6.76021 7.8484e-05 15.0078C0.0265773 23.2788 6.75104 30 14.9968 30C15.0015 30 15.0077 30 15.0124 30C19.0231 29.9953 22.7968 28.4175 25.6369 25.5597C28.4676 22.7128 30.0185 18.9492 29.9998 14.9626C29.964 6.70097 23.2208 0 14.9579 0ZM1.55883 15.0016C1.53545 7.61459 7.52418 1.58403 14.9095 1.55909C14.9267 1.55909 14.9407 1.55909 14.9563 1.55909C18.3918 1.55909 21.5233 2.86249 23.9082 4.98597L21.0962 7.80012L20.8453 6.75086L20.3808 6.86155L10.1772 9.23916L7.10176 12.7113L7.11267 12.7222L7.10331 12.7237L8.83821 19.9938L4.95224 23.8806C2.85727 21.5108 1.56974 18.4066 1.55883 15.0016ZM18.5259 10.6143L19.6996 8.65295L21.7026 17.0268L20.5631 19.1487L18.5259 10.6143ZM16.7816 10.4927L9.70487 12.1235L11.0142 10.6455L17.6077 9.10976L16.7816 10.4927ZM8.98473 13.8899L17.2508 11.9847L19.2335 20.2931L10.9659 22.1999L8.98473 13.8899ZM24.5317 24.4606C21.9847 27.0237 18.6022 28.4362 15.0109 28.4409C15.0062 28.4409 15.0015 28.4409 14.9968 28.4409C11.5613 28.4409 8.42981 27.1266 6.0496 24.986L9.26219 21.7727L9.80931 24.0661L21.1149 21.4593L21.104 21.4125L21.1134 21.4172L23.3549 17.242L21.5218 9.57905L25.0118 6.08669C27.1239 8.45338 28.4255 11.5575 28.4395 14.9688C28.4567 18.5391 27.0694 21.9099 24.5317 24.4606Z" fill="#494949"/>
</svg>
