<svg xmlns="http://www.w3.org/2000/svg" viewBox="0 0 84.74 67.81"><defs><style>.cls-1{fill:#1dbe71;}</style></defs><g id="Laag_2" data-name="Laag 2"><g id="Capa_1" data-name="Capa 1"><path class="cls-1" d="M84.12,28.17h0a2.13,2.13,0,0,0-3,0h0L76.25,33a33.9,33.9,0,0,0-63.87-15,2.12,2.12,0,1,0,3.75,2A29.66,29.66,0,0,1,72,33l-4.84-4.84a2.12,2.12,0,0,0-3,3l8.47,8.47a2.14,2.14,0,0,0,3,0l8.48-8.47A2.12,2.12,0,0,0,84.12,28.17Z"/><path class="cls-1" d="M71.48,46.86h0a2.11,2.11,0,0,0-2.86.88A29.66,29.66,0,0,1,12.73,34.8l4.84,4.84a2.12,2.12,0,0,0,3-3L12.1,28.17a2.12,2.12,0,0,0-3,0L.62,36.64a2.12,2.12,0,0,0,3,3l4.87-4.87a33.9,33.9,0,0,0,63.87,15A2.13,2.13,0,0,0,71.48,46.86Z"/><path class="cls-1" d="M36.69,30.41l-7.28,9.41V42.4H40V39.66H32.91l6-7.76a5.67,5.67,0,0,0-.42-7.29A5.26,5.26,0,0,0,34.58,23,4.93,4.93,0,0,0,31,24.58a5.92,5.92,0,0,0-1.55,4h2.66A3.2,3.2,0,0,1,33,26.49a2.52,2.52,0,0,1,1.83-.73,2.44,2.44,0,0,1,1.92.84,2.86,2.86,0,0,1,.66,1.88,4.66,4.66,0,0,1-.1.88A3.85,3.85,0,0,1,36.69,30.41Z"/><polygon class="cls-1" points="48.08 23.18 41.85 36.96 41.85 39.54 49.62 39.54 49.62 42.4 52.28 42.4 52.28 39.54 53.77 39.54 53.77 36.96 52.28 36.96 52.28 31.42 49.62 31.42 49.62 36.96 44.75 36.96 51.04 23.18 48.08 23.18"/></g></g></svg>