<?xml version="1.0" encoding="utf-8"?>
<!-- Generator: Adobe Illustrator 24.3.0, SVG Export Plug-In . SVG Version: 6.00 Build 0)  -->
<svg version="1.1" id="Layer_1" xmlns="http://www.w3.org/2000/svg" xmlns:xlink="http://www.w3.org/1999/xlink" x="0px" y="0px"
	 viewBox="0 0 8 14" style="enable-background:new 0 0 8 14;" xml:space="preserve">
<style type="text/css">
	.st0{fill:#FFFFFF;}
</style>
<path class="st0" d="M1.7,0.3c-0.4-0.4-1-0.4-1.4,0s-0.4,1,0,1.4L1.7,0.3z M7,7l0.7,0.7C7.9,7.5,8,7.3,8,7S7.9,6.5,7.7,6.3L7,7z
	 M0.3,12.3c-0.4,0.4-0.4,1,0,1.4c0.4,0.4,1,0.4,1.4,0L0.3,12.3z M0.3,1.7l6,6l1.4-1.4l-6-6L0.3,1.7z M6.3,6.3c0.2-0.2-3,3-6,6
	l1.4,1.4l6-6L6.3,6.3z"/>
</svg>
