<svg xmlns="http://www.w3.org/2000/svg" width="34.323" height="44.577" viewBox="0 0 34.323 44.577" fill="#888888">
  <g id="Group_47" data-name="Group 47" transform="translate(-58.885 0)">
    <g id="Group_46" data-name="Group 46" transform="translate(58.885 0)">
      <path id="Path_139" data-name="Path 139" d="M89.062,3.419C86.315,1.066,82.573.387,78.523,1.507A11.851,11.851,0,0,0,71.59,7.08,27.256,27.256,0,0,0,68.381,15.8a50.494,50.494,0,0,0-.9,6.7A133.263,133.263,0,0,1,65.13.644.653.653,0,0,0,63.88.39a25.545,25.545,0,0,0-1.449,5.459,49.442,49.442,0,0,0-.661,8.958c-1.03-4.059-1.527-6.549-1.538-6.6a.653.653,0,0,0-1.292.088A82.146,82.146,0,0,0,59.3,19.448a92.788,92.788,0,0,0,5.676,24.714.653.653,0,0,0,1.216-.476A91.452,91.452,0,0,1,60.6,19.356c-.182-1.948-.287-3.707-.345-5.218A216.831,216.831,0,0,0,66.648,35.19a.653.653,0,0,0,1.228-.444q-.187-.517-.368-1.028a25.233,25.233,0,0,1,.77-4.891c.59-2.187,1.748-4.888,3.92-5.332,2.149-.439,5.831,1.955,10.368,6.742,1.081,1.141,2.1,2.3,3,3.363-.859-.663-1.788-1.368-2.735-2.066-2.19-1.616-4.05-2.886-5.526-3.774-2.623-1.578-3.569-1.672-4.1-1.577-.906.161-1.9,1.254-3.019,8.1-.284,1.736-.511,3.471-.672,4.819q-.321-.824-.635-1.655a.653.653,0,0,0-1.222.462c.807,2.132,1.648,4.24,2.5,6.265a.653.653,0,0,0,1.2-.507q-.412-.977-.819-1.979c.044-.451.363-3.642.886-6.908,1.026-6.406,1.883-7.224,2.027-7.318.163-.015.884.035,3.174,1.412,1.441.867,3.265,2.113,5.422,3.7,3.687,2.721,7.1,5.536,7.137,5.564a.653.653,0,0,0,.944-.888,90.857,90.857,0,0,0-6.608-7.911c-5-5.281-8.9-7.68-11.586-7.132a5.213,5.213,0,0,0-3.245,2.37c.011-.344.027-.715.047-1.108.482-1.432,2.16-5.97,4.967-8.966a6.726,6.726,0,0,1,3.212-.345.653.653,0,1,0,.19-1.292,7.515,7.515,0,0,0-1.376-.073,6.558,6.558,0,0,1,2.94-1.04,6.948,6.948,0,0,1,5.756,1.912c2.857,2.82,3.644,8.094,3.828,11.71-.312-.787-.683-1.655-1.111-2.558-2.135-4.5-4.587-7.528-7.286-9.008a.653.653,0,1,0-.628,1.145c5.9,3.233,9.014,14.365,9.045,14.477a.653.653,0,0,0,.629.48c.021,0,.042,0,.063,0a.653.653,0,0,0,.588-.6,36.734,36.734,0,0,0-.185-6.349c-.543-4.681-1.9-8.12-4.025-10.221a8.2,8.2,0,0,0-6.79-2.285,8.6,8.6,0,0,0-5.042,2.406,18.548,18.548,0,0,0-3.453,4.469c-.335.581-.638,1.157-.91,1.712.133-.975.3-1.988.513-3.01a25.93,25.93,0,0,1,3.044-8.284,13.17,13.17,0,0,1,2.134-2.673c2.682-.694,6.266.2,9.6,2.385a17.7,17.7,0,0,1,7.324,9.426.653.653,0,0,0,1.274-.111C93.721,10.944,92.307,6.2,89.062,3.419ZM66.511,30.843c-1.179-3.485-2.183-6.757-3.02-9.672a53.245,53.245,0,0,1,.216-15.038c.09-.522.184-1.008.279-1.454.3,5.37,1.125,15.093,3.372,22.689A21.759,21.759,0,0,0,66.511,30.843ZM85.16,6.374A16,16,0,0,0,76.932,3.55a9.146,9.146,0,0,1,1.939-.784c3.617-1,6.935-.416,9.341,1.645C90.58,6.44,91.852,9.7,91.9,13.755A19.826,19.826,0,0,0,85.16,6.374Z" transform="translate(-58.885 0)"/>
    </g>
  </g>
</svg>
