<svg xmlns="http://www.w3.org/2000/svg" width="32.798" height="38.62" viewBox="0 0 32.798 38.62">
  <g id="Group_23" data-name="Group 23" transform="translate(-1001.19 -1585)">
    <path id="Path_15" data-name="Path 15" d="M1033.5,1601.941a2.47,2.47,0,0,0-1.6-1.166,4.133,4.133,0,0,0-2.157.185,28.338,28.338,0,0,0,.4-2.927,2.116,2.116,0,0,0,.013-.241l0-.039v-.011c-.031-1.357-1.286-2.472-3.735-3.319a31.11,31.11,0,0,0-7.965-1.379.965.965,0,1,0-.112,1.927,29.089,29.089,0,0,1,7.446,1.276c1.941.672,2.414,1.328,2.437,1.529l0,.054c-.06.267-.722,1.041-3.254,1.763a39.975,39.975,0,0,1-18.583,0c-2.531-.724-3.2-1.5-3.254-1.763l0-.056c.041-.446,1.7-1.813,6.893-2.516a.967.967,0,0,0-.261-1.915,22.448,22.448,0,0,0-5.841,1.473c-1.784.79-2.7,1.775-2.725,2.927v.006l0,.041a2.147,2.147,0,0,0,.014.242,30.489,30.489,0,0,0,2.112,8.82c2.531,6.073,6.8,9.284,12.356,9.284a11.9,11.9,0,0,0,8.987-3.874.981.981,0,0,0,.261-.077,35.213,35.213,0,0,0,3.918-2.2c2.8-1.825,4.478-3.586,4.984-5.235a3.38,3.38,0,0,0-.321-2.809Zm-17.828,12.263c-4.765,0-8.317-2.709-10.556-8.054a27.624,27.624,0,0,1-1.62-5.582,13.58,13.58,0,0,0,2.352.882,41.88,41.88,0,0,0,19.645,0,13.7,13.7,0,0,0,2.352-.882,27.544,27.544,0,0,1-1.62,5.582c-2.24,5.343-5.791,8.054-10.556,8.054Zm16.3-10.016c-.357,1.164-1.842,2.646-4.175,4.167-.232.153-.463.3-.691.438.326-.61.635-1.259.921-1.943a27.714,27.714,0,0,0,1.191-3.553,3.922,3.922,0,0,1,2.248-.641.534.534,0,0,1,.376.276,1.446,1.446,0,0,1,.129,1.25Z" transform="translate(0 7.485)" fill="#434343"/>
    <path id="Path_16" data-name="Path 16" d="M1012.008,1606.242h.029a.966.966,0,1,0-.033-1.931,3.385,3.385,0,0,1-2.157-.821,2.811,2.811,0,0,1-.726-2.076,9.576,9.576,0,0,1,1.427-5.389,9.585,9.585,0,0,0,1.469-5.231,12.647,12.647,0,0,0-1.068-5.26.967.967,0,0,0-1.73.863,10.714,10.714,0,0,1,.865,4.395,7.772,7.772,0,0,1-1.23,4.3,11.459,11.459,0,0,0-1.666,6.316,4.644,4.644,0,0,0,1.315,3.464,5.325,5.325,0,0,0,3.5,1.363Z" transform="translate(5.585)" fill="#434343"/>
  </g>
</svg>
