<svg xmlns="http://www.w3.org/2000/svg" width="36.419" height="24.279" viewBox="0 0 36.419 24.279">
  <g id="Group_66" data-name="Group 66" transform="translate(0 -85.333)">
    <g id="Group_49" data-name="Group 49" transform="translate(0 85.333)">
      <g id="Group_48" data-name="Group 48" transform="translate(0 0)">
        <path id="Path_140" data-name="Path 140" d="M32.625,85.333H3.794A3.8,3.8,0,0,0,0,89.127v16.692a3.8,3.8,0,0,0,3.794,3.794H32.625a3.8,3.8,0,0,0,3.794-3.794V89.127A3.8,3.8,0,0,0,32.625,85.333ZM34.9,105.819a2.279,2.279,0,0,1-2.276,2.276H3.794a2.279,2.279,0,0,1-2.276-2.276V89.127a2.279,2.279,0,0,1,2.276-2.276H32.625A2.279,2.279,0,0,1,34.9,89.127v16.692Z" transform="translate(0 -85.333)" fill="#434343"/>
      </g>
    </g>
    <g id="Group_51" data-name="Group 51" transform="translate(4.552 100.508)">
      <g id="Group_50" data-name="Group 50">
        <path id="Path_141" data-name="Path 141" d="M70.829,298.667h-6.07a.759.759,0,1,0,0,1.517h6.07a.759.759,0,1,0,0-1.517Z" transform="translate(-64 -298.667)" fill="#434343"/>
      </g>
    </g>
    <g id="Group_53" data-name="Group 53" transform="translate(4.552 103.542)">
      <g id="Group_52" data-name="Group 52">
        <path id="Path_142" data-name="Path 142" d="M75.381,341.333H64.759a.759.759,0,1,0,0,1.517H75.381a.759.759,0,0,0,0-1.517Z" transform="translate(-64 -341.333)" fill="#434343"/>
      </g>
    </g>
    <g id="Group_55" data-name="Group 55" transform="translate(13.911 88.625)">
      <g id="Group_54" data-name="Group 54" transform="translate(0 0)">
        <path id="Path_143" data-name="Path 143" d="M198.459,131.7a2.265,2.265,0,0,0-2.437.833,2.2,2.2,0,0,0-.358,1.962,8.4,8.4,0,0,0,8,5.964.759.759,0,0,0,.759-.759A8.4,8.4,0,0,0,198.459,131.7Zm-1.341,2.363a.693.693,0,0,1,.12-.622.757.757,0,0,1,.595-.316.706.706,0,0,1,.193.029,6.874,6.874,0,0,1,4.83,5.739A6.875,6.875,0,0,1,197.118,134.066Z" transform="translate(-195.572 -131.614)" fill="#434343"/>
      </g>
    </g>
    <g id="Group_57" data-name="Group 57" transform="translate(21.244 88.625)">
      <g id="Group_56" data-name="Group 56" transform="translate(0 0)">
        <path id="Path_144" data-name="Path 144" d="M307.068,132.539a2.269,2.269,0,0,0-2.437-.833,8.4,8.4,0,0,0-5.964,8,.759.759,0,0,0,.759.759,8.4,8.4,0,0,0,8-5.964A2.205,2.205,0,0,0,307.068,132.539Zm-1.1,1.53a6.869,6.869,0,0,1-5.737,4.83,6.875,6.875,0,0,1,4.83-5.739.726.726,0,0,1,.194-.029.752.752,0,0,1,.593.316A.693.693,0,0,1,305.971,134.068Z" transform="translate(-298.667 -131.617)" fill="#434343"/>
      </g>
    </g>
    <g id="Group_59" data-name="Group 59" transform="translate(21.244 85.333)">
      <g id="Group_58" data-name="Group 58" transform="translate(0 0)">
        <path id="Path_145" data-name="Path 145" d="M299.425,85.333a.759.759,0,0,0-.759.759v22.762a.759.759,0,0,0,1.518,0V86.092A.759.759,0,0,0,299.425,85.333Z" transform="translate(-298.666 -85.333)" fill="#434343"/>
      </g>
    </g>
    <g id="Group_61" data-name="Group 61" transform="translate(16.692 95.956)">
      <g id="Group_60" data-name="Group 60">
        <path id="Path_146" data-name="Path 146" d="M240.508,234.9a.759.759,0,0,0-1.073,0l-4.552,4.552a.759.759,0,0,0,1.073,1.073l4.552-4.552A.759.759,0,0,0,240.508,234.9Z" transform="translate(-234.661 -234.683)" fill="#434343"/>
      </g>
    </g>
    <g id="Group_63" data-name="Group 63" transform="translate(21.244 95.956)">
      <g id="Group_62" data-name="Group 62">
        <path id="Path_147" data-name="Path 147" d="M304.508,239.457l-4.552-4.552a.759.759,0,0,0-1.073,1.073l4.552,4.552a.759.759,0,1,0,1.073-1.073Z" transform="translate(-298.661 -234.683)" fill="#434343"/>
      </g>
    </g>
    <g id="Group_65" data-name="Group 65" transform="translate(0 95.955)">
      <g id="Group_64" data-name="Group 64" transform="translate(0 0)">
        <path id="Path_148" data-name="Path 148" d="M35.66,234.667H.759a.759.759,0,1,0,0,1.517h34.9a.759.759,0,1,0,0-1.517Z" transform="translate(0 -234.667)" fill="#434343"/>
      </g>
    </g>
  </g>
</svg>
