<svg xmlns="http://www.w3.org/2000/svg" width="31.995" height="37.469" viewBox="0 0 31.995 37.469">
  <path id="Path_164" data-name="Path 164" d="M-338.494-445.284a2.594,2.594,0,0,1-1.432-.929,2.055,2.055,0,0,1-.422-1.257q0-2.846,0-5.692a2.246,2.246,0,0,1,1.716-2.125,3.929,3.929,0,0,1,1.013-.118q9.466-.01,18.933,0c1.976,0,3.951-.009,5.927.006a2.45,2.45,0,0,1,2.118,1.128,1.956,1.956,0,0,1,.33,1.123c0,.906-.011,1.813-.011,2.719,0,.924-.02,1.849.018,2.771a2.333,2.333,0,0,1-1.831,2.365c.048.049.084.09.123.128a8.317,8.317,0,0,1,2.552,5.243c.036.369.027.744.027,1.116q0,5.818,0,11.637a17.293,17.293,0,0,1-.089,2.275,7.573,7.573,0,0,1-3.329,5.373,7.554,7.554,0,0,1-4.414,1.375c-.762,0-1.523-.011-2.285-.01-4.509,0-9.018,0-13.528.017a7.931,7.931,0,0,1-4.063-.974,7.705,7.705,0,0,1-4.009-5.867,8.513,8.513,0,0,1-.072-1.184q-.008-6.494,0-12.988a8.154,8.154,0,0,1,2.285-5.7C-338.812-445-338.664-445.124-338.494-445.284Zm28.013,7.785h-29.692v9.686h29.692Zm-.2,13.155h-29.3c.026.1.044.182.068.262a6.813,6.813,0,0,0,6.564,4.891q7.619,0,15.237,0a12.2,12.2,0,0,0,1.831-.081,6.668,6.668,0,0,0,4.961-3.442A5.848,5.848,0,0,0-310.683-424.344Zm-.1-16.925c-.03-.1-.05-.168-.076-.24a7.781,7.781,0,0,0-2.668-3.567.655.655,0,0,0-.439-.135q-11.374,0-22.748,0a.589.589,0,0,0-.388.125,7.762,7.762,0,0,0-2.569,3.272c-.07.17-.127.345-.2.546Zm-29.412,2.718h29.751c-.026-.516-.054-1.012-.073-1.507-.005-.129-.048-.17-.183-.17q-5.877.005-11.755,0h-17.682Zm14.359-7.708v-8.095h-6.2v8.095Zm7.237,0v-8.094h-6.172v8.094Zm-21.565,19.483c0,.439,0,.851,0,1.264,0,.122.09.106.166.106h2.044q13.526.009,27.052.012c.468,0,.4.1.429-.4.015-.32,0-.642,0-.981Zm7.076-19.483v-7.9c0-.036,0-.072,0-.108.007-.1-.037-.124-.129-.122-.387.01-.774.018-1.161.02-.751,0-1.5,0-2.252,0h-.209v8.11Zm19.314,0v-8.1h-3.76v8.1Zm-24.108-.015v-8.095c-.134.019-.246.03-.356.053a1.253,1.253,0,0,0-1.061,1.19q-.013,1.684-.016,3.368c0,.738.013,1.477.015,2.215A1.314,1.314,0,0,0-337.888-446.276Zm25.173.015c.084-.011.149-.016.213-.028a1.276,1.276,0,0,0,1.146-1.353q0-1.25,0-2.5c0-1,0-2.006,0-3.008a1.092,1.092,0,0,0-.066-.368,1.4,1.4,0,0,0-1.29-.831Zm-.046,1.073-.016,0h-.724v0Z" transform="translate(341.327 455.512)" fill="#434343" stroke="#434343" stroke-width="0.2"/>
</svg>
