<svg xmlns="http://www.w3.org/2000/svg" width="45.002" height="45" viewBox="0 0 45.002 45" fill="#888888">
  <g id="Group_69" data-name="Group 69" transform="translate(-19 -19.621)">
    <path id="Path_160" data-name="Path 160" d="M64,33.521a2.924,2.924,0,0,0-.862-2.083L52.183,20.483a2.947,2.947,0,0,0-4.166,0l-8.549,8.549-.19-.19a.666.666,0,0,0-.941,0L22.318,44.855,19.372,46.3a.665.665,0,0,0-.178,1.068l17.06,17.06a.665.665,0,0,0,.471.2.713.713,0,0,0,.109-.009.666.666,0,0,0,.488-.364L38.766,61.3l9.027-9.027.065.152a.666.666,0,0,0,.523.4.658.658,0,0,0,.09.006.666.666,0,0,0,.521-.251l5.822-7.33a.665.665,0,0,0-.03-.909l-.193-.193L63.137,35.6A2.928,2.928,0,0,0,64,33.521ZM36.537,62.826,20.8,47.084l1.783-.875L37.411,61.043Zm1.68-2.858L23.652,45.4,38.578,30.48l8.655,20.47Zm10.429-9.094-7.9-18.683.518.518,0,0,0,0,3.959,3.959.006.008.008.006,1.683,1.683.008.01.01.008L53.162,44.6c.005.006.009.013.015.018l.018.015.228.228ZM42.679,32.243l1.394-1.4L47.1,33.878l-1.393,1.393Zm5.67,5.668,1.393-1.393,3.032,3.029-1.394,1.394ZM62.2,34.662,53.649,43.21l-1.327-1.327,1.863-1.863a.665.665,0,0,0,0-.941h0l-3.974-3.97a.665.665,0,0,0-.941,0h0l-1.863,1.863-.76-.76,1.863-1.863a.665.665,0,0,0,0-.941l-3.97-3.974a.684.684,0,0,0-.941,0L41.736,31.3l-1.327-1.327,8.549-8.549a1.616,1.616,0,0,1,2.281,0L62.195,32.379a1.616,1.616,0,0,1,0,2.283Z"/>
    <path id="Path_161" data-name="Path 161" d="M362.142,117.266a.665.665,0,0,0-.941,0l-3.971,3.971a.665.665,0,0,0,0,.941h0l3.971,3.971a.665.665,0,0,0,.94,0h0l3.971-3.97a.665.665,0,0,0,0-.941h0Zm-.47,7.471-3.03-3.03,3.03-3.03,3.03,3.03Z" transform="translate(-305.902 -88.187)"/>
    <path id="Path_162" data-name="Path 162" d="M306.462,61.655l-3.971-3.971a.684.684,0,0,0-.941,0l-3.971,3.971a.665.665,0,0,0,0,.94h0l3.97,3.971a.665.665,0,0,0,.941,0h0l3.972-3.971A.666.666,0,0,0,306.462,61.655Zm-4.441,3.5-3.03-3.03,3.03-3.028,3.03,3.03Z" transform="translate(-251.921 -34.275)"/>
    <path id="Path_163" data-name="Path 163" d="M118.8,230.437l-2.1,2.1a.665.665,0,0,0,.924.957l.016-.016,2.1-2.1a.665.665,0,0,0-.941-.941Z" transform="translate(-88.227 -190.607)"/>
  </g>
</svg>
