<svg xmlns="http://www.w3.org/2000/svg" width="26.113" height="35.084" viewBox="0 0 26.113 35.084" fill="#888888">
  <g id="Group_24" data-name="Group 24" transform="translate(-1082.247 -1585.001)">
    <path id="Path_17" data-name="Path 17" d="M1106.589,1585.443a.873.873,0,0,0-.759-.442H1084.78a.873.873,0,0,0-.761.442,12.077,12.077,0,0,0-1.772,5.953,9.492,9.492,0,0,0,1.387,4.869c1.651,2.78,4.417,4.853,6.857,6.687,1.935,1.454,3.936,2.952,3.936,3.976v8.771c0,1.426-.8,2.631-1.754,2.631h-2.631a.877.877,0,1,0,0,1.754h10.525a.877.877,0,0,0,0-1.754h-2.631c-.951,0-1.754-1.205-1.754-2.631v-8.771c0-1.022,2-2.522,3.936-3.976,2.438-1.833,5.206-3.9,6.855-6.687a9.473,9.473,0,0,0,1.387-4.869A12.078,12.078,0,0,0,1106.589,1585.443Zm-1.124,9.928c-1.47,2.482-4.089,4.445-6.4,6.178a21.574,21.574,0,0,0-3.76,3.236,21.677,21.677,0,0,0-3.763-3.236c-2.308-1.733-4.926-3.7-6.4-6.178-1.565-2.64-1.517-5.462.154-8.616h20.012c1.668,3.154,1.716,5.976.154,8.616Z" transform="translate(0 0)"/>
  </g>
</svg>
