<?xml version="1.0" encoding="utf-8"?>
<svg version="1.1" xmlns:xlink="http://www.w3.org/1999/xlink" width="13px" height="10px" xmlns="http://www.w3.org/2000/svg">
  <g transform="matrix(1 0 0 1 -575 -460 )">
    <path d="M 12.7651612903226 1.38047138047138  C 12.9217204301075 1.53759820426487  13 1.72839506172839  13 1.95286195286195  C 13 2.17732884399551  12.9217204301075 2.36812570145903  12.7651612903226 2.52525252525253  L 6.69290322580645 8.61952861952862  L 5.55225806451613 9.76430976430976  C 5.39569892473118 9.92143658810325  5.20559139784946 10  4.98193548387097 10  C 4.75827956989247 10  4.56817204301075 9.92143658810325  4.41161290322581 9.76430976430976  L 3.27096774193548 8.61952861952862  L 0.234838709677419 5.57239057239057  C 0.0782795698924732 5.41526374859708  0 5.22446689113356  0 5  C 0 4.77553310886644  0.0782795698924732 4.58473625140292  0.234838709677419 4.42760942760943  L 1.37548387096774 3.28282828282828  C 1.53204301075269 3.12570145903479  1.72215053763441 3.04713804713805  1.9458064516129 3.04713804713805  C 2.1694623655914 3.04713804713805  2.35956989247312 3.12570145903479  2.51612903225806 3.28282828282828  L 4.98193548387097 5.76599326599327  L 10.4838709677419 0.235690235690236  C 10.6404301075269 0.0785634118967449  10.8305376344086 0  11.0541935483871 0  C 11.2778494623656 0  11.4679569892473 0.0785634118967449  11.6245161290323 0.235690235690236  L 12.7651612903226 1.38047138047138  Z " fill-rule="nonzero" fill="#39d330" stroke="none" transform="matrix(1 0 0 1 575 460 )" />
  </g>
</svg>