<svg version="1.1" xmlns:xlink="http://www.w3.org/1999/xlink" width="14px" height="14px" xmlns="http://www.w3.org/2000/svg">
    <g transform="matrix(1 0 0 1 -967 -532 )">
        <path d="M 8.08463541666666 3.58203125  C 8.13932291666666 3.63671875  8.16666666666666 3.70659722222223  8.16666666666666 3.79166666666669  L 8.16666666666666 7.875  C 8.16666666666666 7.96006944444446  8.13932291666666 8.02994791666663  8.08463541666666 8.08463541666663  C 8.02994791666666 8.13932291666663  7.96006944444446 8.16666666666663  7.875 8.16666666666663  L 4.95833333333334 8.16666666666663  C 4.87326388888889 8.16666666666663  4.80338541666666 8.13932291666663  4.74869791666666 8.08463541666663  C 4.69401041666666 8.02994791666663  4.66666666666666 7.96006944444446  4.66666666666666 7.875  L 4.66666666666666 7.29166666666663  C 4.66666666666666 7.20659722222217  4.69401041666666 7.13671875  4.74869791666666 7.08203125  C 4.80338541666666 7.02734375  4.87326388888889 7  4.95833333333334 7  L 7 7  L 7 3.79166666666669  C 7 3.70659722222223  7.02734375 3.63671875  7.08203125 3.58203125  C 7.13671875 3.52734375  7.20659722222223 3.5  7.29166666666666 3.5  L 7.875 3.5  C 7.96006944444446 3.5  8.02994791666666 3.52734375  8.08463541666666 3.58203125  Z M 11.29296875 9.48828125  C 11.7365451388889 8.72873263888891  11.9583333333333 7.89930555555554  11.9583333333333 7  C 11.9583333333333 6.10069444444446  11.7365451388889 5.27126736111109  11.29296875 4.51171875  C 10.8493923611111 3.75217013888891  10.2478298611111 3.15060763888891  9.48828125 2.70703125  C 8.72873263888889 2.26345486111109  7.89930555555554 2.04166666666669  7 2.04166666666669  C 6.10069444444446 2.04166666666669  5.27126736111111 2.26345486111109  4.51171875 2.70703125  C 3.75217013888889 3.15060763888891  3.15060763888889 3.75217013888891  2.70703125 4.51171875  C 2.26345486111111 5.27126736111109  2.04166666666666 6.10069444444446  2.04166666666666 7  C 2.04166666666666 7.89930555555554  2.26345486111111 8.72873263888891  2.70703125 9.48828125  C 3.15060763888889 10.2478298611111  3.75217013888889 10.8493923611111  4.51171875 11.29296875  C 5.27126736111111 11.7365451388889  6.10069444444446 11.9583333333334  7 11.9583333333334  C 7.89930555555554 11.9583333333334  8.72873263888889 11.7365451388889  9.48828125 11.29296875  C 10.2478298611111 10.8493923611111  10.8493923611111 10.2478298611111  11.29296875 9.48828125  Z M 13.0611979166667 3.486328125  C 13.6870659722222 4.55881076388891  14 5.73003472222223  14 7  C 14 8.26996527777783  13.6870659722222 9.44118923611109  13.0611979166667 10.513671875  C 12.4353298611111 11.5861545138889  11.5861545138889 12.4353298611111  10.513671875 13.0611979166666  C 9.44118923611111 13.6870659722222  8.26996527777777 14  7 14  C 5.73003472222223 14  4.55881076388889 13.6870659722222  3.486328125 13.0611979166666  C 2.41384548611111 12.4353298611111  1.56467013888889 11.5861545138889  0.938802083333343 10.513671875  C 0.312934027777771 9.44118923611109  0 8.26996527777783  0 7  C 0 5.73003472222223  0.312934027777771 4.55881076388891  0.938802083333343 3.486328125  C 1.56467013888889 2.41384548611109  2.41384548611111 1.56467013888891  3.486328125 0.938802083333314  C 4.55881076388889 0.312934027777771  5.73003472222223 0  7 0  C 8.26996527777777 0  9.44118923611111 0.312934027777771  10.513671875 0.938802083333314  C 11.5861545138889 1.56467013888891  12.4353298611111 2.41384548611109  13.0611979166667 3.486328125  Z " fill-rule="nonzero" fill="#333333" stroke="none" transform="matrix(1 0 0 1 967 532 )"/>
    </g>
</svg>