<svg xmlns="http://www.w3.org/2000/svg" viewBox="0 0 48.16 50.84"><defs><style>.cls-1{fill:#40ac6d;}</style></defs><g id="Laag_2" data-name="Laag 2"><g id="Laag_1-2" data-name="Laag 1"><g id="Group_6" data-name="Group 6"><g id="Group_5" data-name="Group 5"><path id="Path_2" data-name="Path 2" class="cls-1" d="M25.42,50.84A25.42,25.42,0,1,1,48,13.76a1.32,1.32,0,0,1,.09,1,1.37,1.37,0,0,1-.66.78l-19.1,9.85,19.1,9.86A1.32,1.32,0,0,1,48,37.07h0A25.42,25.42,0,0,1,25.42,50.84Zm0-48.16A22.75,22.75,0,1,0,45,37L24.8,26.61a1.33,1.33,0,0,1-.57-1.8,1.39,1.39,0,0,1,.57-.58L45,13.82A22.64,22.64,0,0,0,25.42,2.68Z"/><path id="Path_3" data-name="Path 3" class="cls-1" d="M30.77,16.06a4,4,0,1,1,4-4A4,4,0,0,1,30.77,16.06Zm0-5.36A1.34,1.34,0,1,0,32.1,12a1.32,1.32,0,0,0-1.33-1.33Z"/></g></g></g></g></svg>