<svg xmlns="http://www.w3.org/2000/svg" viewBox="0 0 69.32 69.3"><defs><style>.cls-1{fill:#3391ff;}</style></defs><g id="Laag_2" data-name="Laag 2"><g id="Capa_1" data-name="Capa 1"><path class="cls-1" d="M66.55,21.12A34.67,34.67,0,0,0,34.65,0h0A34.6,34.6,0,0,0,2.84,20.91l-.56.18.21.65a34.65,34.65,0,1,0,64.06-.62ZM60,45.49l-4.45-8.88V32.36a1.38,1.38,0,0,0-.62-1.16l-3.44-2.3a1.38,1.38,0,0,0-1.12-.19l-4.13,1-6.87-2.95-.93-6.55L41,17.7h5.55l1.88,2.82a1.37,1.37,0,0,0,.93.6l6.88,1.15a1.53,1.53,0,0,0,.67-.06l6.13-2A31.83,31.83,0,0,1,61.6,51.6l-1.48-1.47v-4A1.56,1.56,0,0,0,60,45.49ZM18.58,34.9h7.24l3,5.06a1.43,1.43,0,0,0,1.2.68h2.89l-.73,3.64-4.29,4.29a1.41,1.41,0,0,0-.41,1V52.3l-4,3a1.4,1.4,0,0,0-.56,1.11v3.8l-1-.33L20,55V43.83a1.39,1.39,0,0,0-1.11-1.37l-5.07-1L12,37.76V35.23l3.95-3.95,1.43,2.85A1.36,1.36,0,0,0,18.58,34.9ZM22.06,5.38l2.63,1.77a1.37,1.37,0,0,0,.55.21l5.27.88L30.1,9.47l-2.78.93a1.38,1.38,0,0,0-.76.6L23.3,16.44l-5.19,3.11-7.75,1.11A1.4,1.4,0,0,0,9.16,22v3.44a1.41,1.41,0,0,0,.41,1l1.88,1.88v1.4L7.14,26.88l-1.67-5A31.94,31.94,0,0,1,22.06,5.38ZM9.58,33.66a1.35,1.35,0,0,0-.41,1v3.44a1.48,1.48,0,0,0,.14.62l2.3,4.59a1.4,1.4,0,0,0,1,.75L17.2,45V55.29a1.3,1.3,0,0,0,.1.52l2.29,5.73a1.37,1.37,0,0,0,.85.81l3.44,1.15a1.31,1.31,0,0,0,.44.07,1.4,1.4,0,0,0,1.4-1.4v-5l4-3A1.4,1.4,0,0,0,30.3,53V50.14L34.48,46a1.39,1.39,0,0,0,.39-.71L36,39.51a1.33,1.33,0,0,0-.21-1,1.37,1.37,0,0,0-.88-.6,1.32,1.32,0,0,0-.28,0H30.85l-3-5.06a1.4,1.4,0,0,0-1.19-.68H19.45l-1.89-3.82a1.4,1.4,0,0,0-1-.75,1.36,1.36,0,0,0-1.21.39L14.25,29V27.77a1.38,1.38,0,0,0-.41-1L12,24.9V23.25l6.83-1a1.4,1.4,0,0,0,.52-.18L25,18.65a1.47,1.47,0,0,0,.48-.48l3.17-5.29,2.95-1a1.37,1.37,0,0,0,.89-.88l1.14-3.44a1.38,1.38,0,0,0-.08-1.07,1.35,1.35,0,0,0-.81-.69.8.8,0,0,0-.21,0L26,4.66,25.3,4.2A31.85,31.85,0,0,1,46.17,5l-1.54.77H40.37a1.4,1.4,0,0,0-1.25.78l-2.29,4.58A1.38,1.38,0,0,0,37.45,13l.19.08,3.43,1.14a1.33,1.33,0,0,0,.79,0l4.19-1,3.05,1,.17.05L55,15.38a1.41,1.41,0,0,0,1-.21l2.43-1.62a32.27,32.27,0,0,1,3.12,4.14l-5.29,1.77-5.94-1-2-2.94a1.4,1.4,0,0,0-1.15-.62H40.38a1.41,1.41,0,0,0-1,.41L36,18.76a1.41,1.41,0,0,0-.4,1.19l1.15,8a1.4,1.4,0,0,0,.84,1.08l8,3.44a1.36,1.36,0,0,0,.89.07l4-1,2.3,1.54v3.83a1.35,1.35,0,0,0,.14.63l4.44,8.88v4.26a1.39,1.39,0,0,0,.41,1L60,53.94A31.85,31.85,0,0,1,4,26.11l.7,2.1a1.37,1.37,0,0,0,.55.72l5.46,3.65ZM55,12.53l-5.07-1-3.37-1.13a1.44,1.44,0,0,0-.78,0l-4.19,1.05-1.53-.51,1.19-2.37H45a1.35,1.35,0,0,0,.62-.15l3.85-1.93a31.83,31.83,0,0,1,7.07,5.07Z"/></g></g></svg>