<svg xmlns="http://www.w3.org/2000/svg" viewBox="0 0 75.45 74.45"><defs><style>.cls-1{fill:#ffcc41;}</style></defs><g id="Laag_2" data-name="Laag 2"><g id="Capa_1" data-name="Capa 1"><g id="Group_20" data-name="Group 20"><path id="Path_9" data-name="Path 9" class="cls-1" d="M75.14,31.59,62.51,15.19a1.47,1.47,0,0,0-2-.34L52.39,20H41.76a1.41,1.41,0,0,0-.41.07l-8.24,2.37-8.56-2.34-8.31-5.28a1.47,1.47,0,0,0-1.94.31l-14,17.3a1.48,1.48,0,0,0,.18,2l7.32,6.3,6.57,8.85a5.23,5.23,0,0,0,3.29,8.78,5.29,5.29,0,0,0-.06.8,5.23,5.23,0,0,0,5.22,5.23h.06v.1a5.23,5.23,0,0,0,5.23,5.23h0a5.52,5.52,0,0,0,.81-.06,5.22,5.22,0,0,0,8.9,3.18l.8-.8.34.27a5.23,5.23,0,0,0,8.86-3.84,5.22,5.22,0,0,0,5.31-5.13v-.17a5.21,5.21,0,0,0,5.3-5.14v-.17a5.23,5.23,0,0,0,4.47-8.07l4.8-10,7.21-6.2A1.48,1.48,0,0,0,75.14,31.59ZM15.77,18.05l6,3.8-13,15.84L3.53,33.21Zm.84,33.58,1.8-1.8a1.22,1.22,0,0,1,.17-.15,2.23,2.23,0,0,1,1.23-.5h.24a2.24,2.24,0,0,1,1.61.71,2.32,2.32,0,0,1-.1,3.22l-1.74,1.75a2.27,2.27,0,1,1-3.21-3.21Zm4.64,9.21a2.26,2.26,0,0,1,0-3.21h0l3.5-3.5a2.31,2.31,0,0,1,2.58-.45A2.28,2.28,0,0,1,28.58,56a2.39,2.39,0,0,1-.68,1.36l-3.44,3.45a2.28,2.28,0,0,1-3.21,0Zm5.28,5.33a2.28,2.28,0,0,1,0-3.21h0l3.5-3.5a2.31,2.31,0,0,1,2.75-.36,2.28,2.28,0,0,1,1.08,2.3,2.42,2.42,0,0,1-.67,1.33l-3.45,3.44a2.26,2.26,0,0,1-3.2,0Zm6,4.65a2.26,2.26,0,0,1,0-3.21l1.8-1.8.17-.15h0a2.25,2.25,0,0,1,1-.47h0l.19,0H36a2.27,2.27,0,0,1,1.62.71,2.09,2.09,0,0,1,.14.17,2.33,2.33,0,0,1-.24,3l-1.74,1.74a2.27,2.27,0,0,1-3.21,0Zm27.6-16.51a2.26,2.26,0,0,1-3.21,0l-.1-.09-9.51-9.61a1.48,1.48,0,0,0-2.1,2.08l9.61,9.72h0a2.27,2.27,0,0,1-3.21,3.21l-6.43-6.5a1.48,1.48,0,1,0-2.17,2,.46.46,0,0,1,.07.07l6.34,6.4a.52.52,0,0,0,.1.11,2.27,2.27,0,0,1-3.21,3.21h0l-3.51-3.54a1.48,1.48,0,0,0-2.1,2.08l3.41,3.44a.58.58,0,0,0,.1.12A2.27,2.27,0,0,1,41,70.23a2.88,2.88,0,0,0-.34-.27.16.16,0,0,1-.07-.24c0-.12.12-.23.17-.35a3.93,3.93,0,0,0,.14-.41,5.28,5.28,0,0,0,.19-2.27,5.17,5.17,0,0,0-4.41-4.45,5.2,5.2,0,0,0-5-6.4h-.16a5.17,5.17,0,0,0-5-5.33h-.1a5.42,5.42,0,0,0-1.27.13,5.21,5.21,0,0,0-8.64-3.1L10.8,39.85,24.48,23.18l4.36,1.19L23.15,34.42a5.23,5.23,0,0,0,2,7.13l.23.12h0a4.78,4.78,0,0,0,.62.26,5.23,5.23,0,0,0,6.25-2.36l3.7-6.53,6.61.46,17.59,17.6a2.27,2.27,0,0,1,0,3.21Zm.61-6.78L44.26,31l-.1-.09a1.48,1.48,0,0,0-.85-.34L35.22,30a1.5,1.5,0,0,0-1.39.74l-4.16,7.35a2.27,2.27,0,0,1-4-2.24l5.56-9.8,2.25-.65,0,0L42,23H52.12l12.67,16.1Zm6-10.76L55,21.87l6-3.8L71.94,32.29Z"/><path id="Path_10" data-name="Path 10" class="cls-1" d="M45.71,17.25a1.44,1.44,0,0,0,1-.43L56.85,6.71a1.48,1.48,0,0,0-2.09-2.09L44.66,14.73a1.48,1.48,0,0,0,1.05,2.52Z"/><path id="Path_11" data-name="Path 11" class="cls-1" d="M28.69,16.82a1.48,1.48,0,0,0,2.09-2.09L20.68,4.62a1.48,1.48,0,0,0-2.09,2.09Z"/><path id="Path_12" data-name="Path 12" class="cls-1" d="M37.72,17.25a1.48,1.48,0,0,0,1.48-1.48V7.41a1.48,1.48,0,0,0-3,0v8.36a1.48,1.48,0,0,0,1.48,1.48Z"/><path id="Path_13" data-name="Path 13" class="cls-1" d="M36.36,2.05A1.47,1.47,0,1,0,37.15.11a2,2,0,0,0-.25.14A1.48,1.48,0,0,0,36.36,2.05Z"/></g></g></g></svg>