<svg width="24" height="24" viewBox="0 0 24 24" fill="none" xmlns="http://www.w3.org/2000/svg">
<path d="M11.8968 21C11.7562 21 11.6227 20.9376 11.5349 20.8286C11.4823 20.7624 10.2298 19.1957 8.96056 16.8815C8.2131 15.5199 7.61671 14.1822 7.18878 12.907C6.64814 11.299 6.375 9.78258 6.375 8.39998C6.375 5.42269 8.85276 3 11.8977 3C14.9421 3 17.4205 5.42269 17.4205 8.39998C17.4205 9.78258 17.1462 11.2982 16.6069 12.907C16.1789 14.1823 15.5821 15.5199 14.8342 16.8815C13.5651 19.1956 12.3129 20.7624 12.2603 20.8286C12.1727 20.9376 12.0396 21 11.8984 21H11.8968ZM11.8968 3.89992C9.35916 3.89992 7.29441 5.91877 7.29441 8.39998C7.29441 11.3285 8.64091 14.3975 9.77134 16.456C10.6018 17.9687 11.4364 19.1683 11.8968 19.7948C12.3588 19.1657 13.1993 17.959 14.0307 16.4411C15.156 14.3871 16.4989 11.3232 16.4989 8.39998C16.4989 5.91877 14.4343 3.89992 11.8968 3.89992Z" fill="white"/>
<path d="M11.8977 11.1817C10.4318 11.1817 9.23865 9.98888 9.23865 8.52262C9.23865 7.05681 10.4318 5.86353 11.8977 5.86353C13.3641 5.86353 14.5568 7.05681 14.5568 8.52262C14.5568 9.98888 13.3641 11.1817 11.8977 11.1817ZM11.8977 6.74993C10.92 6.74993 10.1251 7.5441 10.1251 8.52262C10.1251 9.50113 10.92 10.2953 11.8977 10.2953C12.8759 10.2953 13.6705 9.50113 13.6705 8.52262C13.6705 7.5441 12.8759 6.74993 11.8977 6.74993Z" fill="white"/>
</svg>
