<svg xmlns="http://www.w3.org/2000/svg" viewBox="0 0 799.01 270.1" fill="#44841a"><path class="cls-1" d="M357.34 269.31h-7.4l-10.25-43.73-10.34 43.73H322l-11.77-56.68h6.2l9.31 47.14 11.05-47.06h5.88l10.89 47 9.38-47.06h6.28ZM406.79 250.31h-25.2V255c0 4.13 1.9 9.14 9.62 9.14 5.4 0 8.9-3.1 9.46-8.51h6c-.72 8.83-6.76 14.47-15.5 14.47-9.46 0-15.67-5.8-15.67-15.1v-13.12c0-9.14 6.36-15 15.67-15s15.58 5.72 15.58 15Zm-6-8.43c0-4.21-1.91-9.14-9.54-9.14-6 0-9.62 3.34-9.62 9.14v2.55h19.16ZM431.36 233.53c-3.18 0-7.4 2.39-7.4 9.23v26.55h-6v-41.74h6v3.82a10.28 10.28 0 0 1 7.48-3.82h3.34v6ZM474.49 250.31h-25.2V255c0 4.13 1.91 9.14 9.62 9.14 5.41 0 8.9-3.1 9.46-8.51h6c-.71 8.83-6.76 14.47-15.5 14.47-9.46 0-15.66-5.8-15.66-15.1v-13.12c0-9.14 6.36-15 15.66-15s15.58 5.72 15.58 15Zm-6-8.43c0-4.21-1.91-9.14-9.54-9.14-6 0-9.62 3.34-9.62 9.14v2.55h19.16ZM485.47 212.07h6v46.74c0 3.5 2 4.62 4.37 4.62h1.91v5.88h-2.31c-5.48 0-10-3.1-10-10.81ZM506 241.88c0-9.3 6-15 15.35-15 3.65 0 7.39 1.43 9.38 4.13v-18.38h6v56.68h-6v-3.26c-1.59 2.38-5.89 4.05-9.38 4.05-9.23 0-15.35-6-15.35-15.1Zm6 13.12c0 5.72 3.42 9.14 9.31 9.14 7.71 0 9.38-5 9.38-9.14v-13.12c0-5.8-3.5-9.14-9.38-9.14-7.64 0-9.31 4.93-9.31 9.14ZM585.9 269.31h-7.07l-7.56-30.93-7.55 30.93h-7l-9.85-41.82h6.2l7.31 32.68 8-32.68h5.72l8 32.76 7.32-32.76h6.2ZM605.48 220.65v-8.58h7.31v8.58Zm.71 48.66v-41.82h6v41.82ZM649.35 269.31v-27.43c0-4.13-.87-9.14-8.59-9.14-5.56 0-10.17 3.66-10.17 9v27.59h-6v-41.76h6v3.82c2.07-2.94 6.52-4.53 10.17-4.53 9.47 0 14.55 5.64 14.55 15v27.43ZM692.18 269.31l-12.64-19.88-6.12 6.68v13.2h-6v-57.24h6v35.61l18.28-20.19h7.87l-16.13 17.57 15.82 24.25ZM737.14 250.31h-25.2V255c0 4.13 1.91 9.14 9.62 9.14 5.41 0 8.9-3.1 9.46-8.51h6c-.71 8.83-6.76 14.47-15.5 14.47-9.46 0-15.66-5.8-15.66-15.1v-13.12c0-9.14 6.36-15 15.66-15s15.58 5.72 15.58 15Zm-6-8.43c0-4.21-1.91-9.14-9.54-9.14-6 0-9.62 3.34-9.62 9.14v2.55h19.12ZM748.12 212.07h6v46.74c0 3.5 2 4.62 4.37 4.62h1.91v5.88h-2.31c-5.48 0-10-3.1-10-10.81ZM783.43 269.94c-9 0-15.42-5.32-15.42-14.31h6c0 5.49 3.74 8.35 9.46 8.35 4.69 0 9.62-1.19 9.62-7.07 0-2.71-2-4.22-4.69-5-3.1-.8-7.63-1.83-10.58-2.55-5.08-1.19-9.14-5.08-9.14-10.33 0-8.67 6.84-12.08 14.55-12.08 8.74 0 15 4.84 15.34 13.51h-6c-.32-4.77-3.42-7.63-9.46-7.63-4.13 0-8.43 1.19-8.43 6.2 0 2.23 1.91 4 4.62 4.69 3 .72 7.63 1.67 11 2.7 4.92 1.51 8.74 4.93 8.74 10.5-.04 9.53-7.26 13.02-15.61 13.02ZM255.14 127.57A127.57 127.57 0 1 1 127.57 0a127.58 127.58 0 0 1 127.57 127.57ZM76.76 99H100a1.34 1.34 0 0 0 1.3-1.3 26.52 26.52 0 0 1 52.45 0 1.44 1.44 0 0 0 1.38 1.3h23.2a1.31 1.31 0 0 0 1.31-1.3 52.26 52.26 0 0 0-104.22 0 1.3 1.3 0 0 0 1.34 1.3Zm75.84 48.43a52.25 52.25 0 0 0 27-41.9 1.31 1.31 0 0 0-1.31-1.3h-23.24a1.35 1.35 0 0 0-1.3 1.3 26.51 26.51 0 0 1-52.45 0 1.32 1.32 0 0 0-1.31-1.3H76.72a1.3 1.3 0 0 0-1.3 1.3 52.24 52.24 0 0 0 27 41.9 52.24 52.24 0 0 0-27.17 44.52 1.31 1.31 0 0 0 1.31 1.31h23.17a1.3 1.3 0 0 0 1.31-1.31 26.52 26.52 0 0 1 53 0 1.31 1.31 0 0 0 1.31 1.31h23.15a1.3 1.3 0 0 0 1.3-1.31 52.2 52.2 0 0 0-27.2-44.56ZM357 141.39c0 7.67-7.87 10.27-12.48 10.27S332 149.06 332 141.39V99.58c0-7.67 7.87-10.27 12.49-10.27S357 91.91 357 99.58Zm-12.53-72.34c-22.3.06-32.66 15.7-32.66 29v44.9c0 13.29 10.36 28.93 32.66 29s32.65-15.7 32.65-29V98c0-13.25-10.36-28.89-32.65-28.95ZM487.57 170.08v-39.1h30.13v-20.04h-29.99v-19.9h34.92V70.87h-55.18v99.21h20.12zM556.8 101.83l8.05 31.22h-16.27Zm17.61 68.25h20.11l-26.3-99.21H544.7l-25.89 99.21H539l4.61-17.57h26.26ZM431.47 120.41l25.68-49.54h-23.3L419.8 99.76l-14.05-28.89h-23.31l25.69 49.54-25.83 49.67h23.57l13.93-28.82 13.92 28.82h23.57l-25.82-49.67zM659.4 70.87l-17.76 38.17-17.99-38.17h-20.66v99.22h19.71v-56.44l12.67 26.38h12.59l12.67-26.3v56.36h19.72V70.87H659.4z"/></svg>