<svg version="1.1" id="Laag_1" xmlns="http://www.w3.org/2000/svg" x="0" y="0" viewBox="0 0 799 270.1" xml:space="preserve"><style>.st0{fill:#61a534}</style><path class="st0" d="M357.3 269.3h-7.4l-10.2-43.7-10.3 43.7H322l-11.8-56.7h6.2l9.3 47.1 11-47.1h5.9l10.9 47 9.4-47.1h6.3l-11.9 56.8zm49.5-19h-25.2v4.7c0 4.1 1.9 9.1 9.6 9.1 5.4 0 8.9-3.1 9.5-8.5h6c-.7 8.8-6.8 14.5-15.5 14.5-9.5 0-15.7-5.8-15.7-15.1v-13.1c0-9.1 6.4-15 15.7-15s15.6 5.7 15.6 15v8.4zm-6-8.4c0-4.2-1.9-9.1-9.5-9.1-6 0-9.6 3.3-9.6 9.1v2.6h19.2v-2.6h-.1zm30.6-8.4c-3.2 0-7.4 2.4-7.4 9.2v26.6h-6v-41.7h6v3.8c1.8-2.3 4.6-3.7 7.5-3.8h3.3v6l-3.4-.1zm43.1 16.8h-25.2v4.7c0 4.1 1.9 9.1 9.6 9.1 5.4 0 8.9-3.1 9.5-8.5h6c-.7 8.8-6.8 14.5-15.5 14.5-9.5 0-15.7-5.8-15.7-15.1v-13.1c0-9.1 6.4-15 15.7-15s15.6 5.7 15.6 15v8.4zm-6-8.4c0-4.2-1.9-9.1-9.5-9.1-6 0-9.6 3.3-9.6 9.1v2.6h19.2v-2.6h-.1zm17-29.8h6v46.7c0 3.5 2 4.6 4.4 4.6h1.9v5.9h-2.3c-5.5 0-10-3.1-10-10.8v-46.4zm20.5 29.8c0-9.3 6-15 15.3-15 3.7 0 7.4 1.4 9.4 4.1v-18.4h6v56.7h-6V266c-1.6 2.4-5.9 4-9.4 4-9.2 0-15.4-6-15.4-15.1l.1-13zm6 13.1c0 5.7 3.4 9.1 9.3 9.1 7.7 0 9.4-5 9.4-9.1v-13.1c0-5.8-3.5-9.1-9.4-9.1-7.6 0-9.3 4.9-9.3 9.1V255zm73.9 14.3h-7.1l-7.6-30.9-7.5 30.9h-7l-9.8-41.8h6.2l7.3 32.7 8-32.7h5.7l8 32.8 7.3-32.8h6.2l-9.7 41.8zm19.6-48.7V212h7.3v8.6h-7.3zm.7 48.7v-41.8h6v41.8h-6zm43.1 0v-27.4c0-4.1-.9-9.1-8.6-9.1-5.6 0-10.2 3.7-10.2 9v27.6h-6v-41.8h6v3.8c2.1-2.9 6.5-4.5 10.2-4.5 9.5 0 14.5 5.6 14.5 15v27.4h-5.9zm42.9 0l-12.6-19.9-6.1 6.7v13.2h-6v-57.2h6v35.6l18.3-20.2h7.9l-16.1 17.6 15.8 24.2h-7.2zm44.9-19h-25.2v4.7c0 4.1 1.9 9.1 9.6 9.1 5.4 0 8.9-3.1 9.5-8.5h6c-.7 8.8-6.8 14.5-15.5 14.5-9.5 0-15.7-5.8-15.7-15.1v-13.1c0-9.1 6.4-15 15.7-15s15.6 5.7 15.6 15v8.4zm-6-8.4c0-4.2-1.9-9.1-9.5-9.1-6 0-9.6 3.3-9.6 9.1v2.6h19.1v-2.6zm17-29.8h6v46.7c0 3.5 2 4.6 4.4 4.6h1.9v5.9h-2.3c-5.5 0-10-3.1-10-10.8v-46.4zm35.3 57.8c-9 0-15.4-5.3-15.4-14.3h6c0 5.5 3.7 8.4 9.5 8.4 4.7 0 9.6-1.2 9.6-7.1 0-2.7-2-4.2-4.7-5-3.1-.8-7.6-1.8-10.6-2.6-5.1-1.2-9.1-5.1-9.1-10.3 0-8.7 6.8-12.1 14.5-12.1 8.7 0 15 4.8 15.3 13.5h-6c-.3-4.8-3.4-7.6-9.5-7.6-4.1 0-8.4 1.2-8.4 6.2 0 2.2 1.9 4 4.6 4.7 3 .7 7.6 1.7 11 2.7 4.9 1.5 8.7 4.9 8.7 10.5.1 9.6-7.1 13-15.5 13zM357 141.4c0 7.7-7.9 10.3-12.5 10.3s-12.5-2.6-12.5-10.3V99.6c0-7.7 7.9-10.3 12.5-10.3S357 91.9 357 99.6v41.8zm-12.5-72.3c-22.3.1-32.7 15.7-32.7 29V143c0 13.3 10.4 28.9 32.7 29s32.6-15.7 32.6-29V98c0-13.2-10.3-28.9-32.6-28.9zm143.1 101V131h30.1v-20.1h-30V91h34.9V70.9h-55.1v99.2zm69.2-68.3l8 31.2h-16.3l8.3-31.2zm17.6 68.3h20.1l-26.3-99.2h-23.5l-25.9 99.2H539l4.6-17.6h26.3l4.5 17.6zm-142.9-49.7l25.6-49.5h-23.2l-14.1 28.9-14-28.9h-23.4l25.7 49.5-25.8 49.7h23.6l13.9-28.8 13.9 28.8h23.6zm227.9-49.5L641.6 109l-17.9-38.1H603v99.2h19.7v-56.4l12.7 26.3H648l12.6-26.3v56.4h19.7V70.9zM212.5 36c9.4 0 17.1-7.6 17.1-17.1 0-9.4-7.6-17.1-17.1-17.1-9.4 0-17.1 7.6-17.1 17.1 0 9.5 7.6 17.1 17.1 17.1zM96.8 61.8c.7.4 1.5.8 2.2 1.1.8.3 1.5.6 2.3.8 1.9.6 3.9.9 5.9.9 8.4 0 15.7-4.9 19.1-12.1.4-.7.7-1.5.9-2.3.3-.8.5-1.6.7-2.4 0-.2.1-.3.1-.5.2-.9.3-1.9.3-2.9v-1c0-11.7-9.5-21.2-21.2-21.2-4.6 0-8.9 1.5-12.3 4C89.5 30 86 36.3 86 43.4c.1 7.8 4.4 14.7 10.8 18.4zm-60.3 42.9c0-9.4-7.6-17.1-17.1-17.1S2.3 95.2 2.3 104.7c0 9.4 7.6 17.1 17.1 17.1s17.1-7.7 17.1-17.1zm181.7-27.4v-.9c.1-2.7-1.3-4.4-4.2-4.5l-3.6-.2-.5 9.5 3.6.2c3 .1 4.5-1.4 4.7-4.1zm-36.8-2.2l-1.5 13.2 6.3-.8-4.8-12.4zm-75.6 73.3c2.5-2.1 5.2-4.2 8-6.3 3-2.2 6.2-4.4 9.5-6.6 16-10.4 35.5-19.2 58.3-23.2 2.3-.4 4.6-.7 7-1 16.1-2 33.8-1.5 53 2.5v-.2c0-.5 0-1-.2-1.5l-.1-.3-18.5-73.2s-3.9 2.3-10.3 2.3c-6.2 0-11.7-2.5-15.7-6.6L185.5 51c-7.4 11.1-22 14.9-33.9 8.8l-19.1-9.7c-.4 1.6-1 3.2-1.7 4.6-1.6 3.4-4 6.4-7 8.9-4.7 3.8-10.5 5.9-16.6 5.9-2.5 0-4.9-.4-7.3-1-1.6-.5-3.1-1.1-4.6-1.8L89.6 87c-3.6 12.9-16.3 21-29.5 19l-19-2.9c0 .6.1 1.1.1 1.7 0 9.7-6.3 17.9-15 20.8l40.9 62.6.2.3c.3.4.6.8 1 1.1.1.1.2.2.3.2.2 0 12.7-21 37.2-41.4zm97.1-50.5l.4-8.5.1-2.7.3-5.4.1-1.6.7-14.2 10.6.5c5.7.3 9.6 4.5 9.3 10.4l-.1 1.4c-.2 4-2.4 7-5.6 8.5l1.7 4 4.4 10.5-6.7-.3-5.4-13.4-3.1-.2-.7 13.1-6.2-.3.2-1.8zm-30.6 2.5l2.9-23.4.8-6.1.4-3 8-1 2.5 6.4 7 17.7 1.2 3 1.7 4.4.6 1.4-2.2.3-4 .5-.7-1.9-2-5.3-.1-.3-9.2 1.2-.4 3.3-.5 4.6-6.3.8.3-2.6zm-22.9-26.5l18.2 28.5.8 1.3-6 2-.5-.8-3.7-6-8.8 2.9.5 6.4.1 1.6-6 2-.1-1.3-2.3-34 7.8-2.6zm-25.8 9.8l11.1 21.3c2.6 5 2.1 9.4-1 12.2-.6.6-1.4 1.1-2.3 1.6-1.3.7-2.7 1.1-4 1.2-3.6.2-7-1.9-9.2-6.5l5.5-2.8c1.3 2.5 2.6 4.2 5 2.9 2.2-1.1 1.9-3 .7-5.4l-8.6-16.5-8.2 4.3-2.7-5.2 13.7-7.1zm-42.6 75c-4 4.4-9.7 5-14.7.5l4.1-4.6c2.2 2 4.3 2.3 6.2.2 1.5-1.7 1.5-3.5.3-5.1-.2-.3-.5-.6-.9-1l-1.5-1.3c-1.5-1.4-3.1-1.7-4.6-.8-.5.3-1 .7-1.5 1.2l-1.8 2-3.9 4.4-3.5-3.1-9.2-10L60.9 129l4.4 3.9-7.1 7.9 4.3 4.8 2-2.3c1.2-1.4 2.6-2.3 4-2.9.5-.2.9-.3 1.4-.4 2.5-.6 5.2.1 7.6 2 .2.1.3.3.5.4l2 1.8c.7.7 1.4 1.4 1.9 2.1 1 1.4 1.5 2.9 1.7 4.4.5 2.7-.4 5.6-2.6 8zm5.3-19.5l-.7-.8L76 127c-.7-.8-1.2-1.6-1.6-2.4-1.8-3.8-.9-8.1 2.6-11.1 1.6-1.3 3.4-2.1 5.2-2.4 3-.4 6.1.8 8.4 3.5l10.3 12.2c1 1.2 1.7 2.5 2.1 3.9.9 3.4-.2 7.1-3.2 9.7-.2.2-.5.4-.7.6-2.8 2-6.2 2.3-9.1 1-1.4-.6-2.6-1.5-3.7-2.8zm159.1-18.9l-5-1c-11.2-2.3-22.4-3.5-33.2-3.5-6.6 0-13.1.4-19.6 1.3 7.1 6.5 11.7 15.6 12.5 25.8 0 .5-.4 1-1 1h-17.4c-.5 0-1-.4-1-1-1.2-8.3-7.6-15-15.8-16.6-1.2-.2-2.5-.4-3.8-.4-7.6 0-14.2 4.3-17.5 10.5-1 2-1.8 4.1-2.1 6.4-.1.6-.4 1-1 1h-19.6c-.6.4-1.3.9-1.9 1.3-3.9 2.8-7.7 5.8-11.5 9-22.3 19.1-33.8 38.2-33.9 38.4l-2.7 4.5c13.1 37.1 48.5 63.8 90.2 63.8 52.8 0 95.6-42.8 95.6-95.6-.1-16.2-4.1-31.5-11.3-44.9zm-46.3 94.2h-17.4c-.5 0-1-.4-1-1-.5-10.5-9.2-18.9-19.9-18.9-10.6 0-19.3 8.4-19.8 18.9 0 .5-.4 1-1 1h-17.3c-.5 0-1-.4-1-1 .4-14.4 8.5-26.9 20.4-33.4-11.3-6.2-19.3-17.8-20.3-31.4 0-.5.4-1 1-1h17.4c.5 0 .9.4 1 1 1.4 9.6 9.7 16.9 19.7 16.9s18.2-7.4 19.7-16.9c.1-.5.4-1 1-1H199c.5 0 1 .4 1 1-1 13.6-8.9 25.2-20.3 31.4 11.9 6.5 20 19 20.4 33.4 0 .5-.4 1-1 1zM96 135.9c.9-.8 1.3-1.7 1.2-2.6-.1-.8-.5-1.6-1.2-2.5l-10.2-12c-1.6-1.9-3.4-2.2-5.1-.8-1.7 1.4-1.7 3.2-.1 5.2l10.2 12c.2.2.4.5.6.7 1.6 1.2 3.2 1.2 4.6 0zm53-40.1l6.1-2-7-11.2.1 1.3.8 11.9z"/></svg>