<?xml version="1.0" encoding="utf-8"?>
<!-- Generator: Adobe Illustrator 25.0.0, SVG Export Plug-In . SVG Version: 6.00 Build 0)  -->
<svg version="1.1" id="Laag_1" xmlns="http://www.w3.org/2000/svg" xmlns:xlink="http://www.w3.org/1999/xlink" x="0px" y="0px"
	 viewBox="0 0 799 270.1" style="enable-background:new 0 0 799 270.1;" xml:space="preserve">
<style type="text/css">
	.st0{fill:#61A534;}
	.st1{fill:#FF3444;}
	.st2{fill:#EAE9EE;}
</style>
<path class="st0" d="M357.3,269.3h-7.4l-10.2-43.7l-10.3,43.7H322l-11.8-56.7h6.2l9.3,47.1l11-47.1h5.9l10.9,47l9.4-47.1h6.3
	L357.3,269.3z"/>
<path class="st0" d="M406.8,250.3h-25.2v4.7c0,4.1,1.9,9.1,9.6,9.1c5.4,0,8.9-3.1,9.5-8.5h6c-0.7,8.8-6.8,14.5-15.5,14.5
	c-9.5,0-15.7-5.8-15.7-15.1v-13.1c0-9.1,6.4-15,15.7-15s15.6,5.7,15.6,15L406.8,250.3z M400.8,241.9c0-4.2-1.9-9.1-9.5-9.1
	c-6,0-9.6,3.3-9.6,9.1v2.6h19.2V241.9z"/>
<path class="st0" d="M431.4,233.5c-3.2,0-7.4,2.4-7.4,9.2v26.6h-6v-41.7h6v3.8c1.8-2.3,4.6-3.7,7.5-3.8h3.3v6L431.4,233.5z"/>
<path class="st0" d="M474.5,250.3h-25.2v4.7c0,4.1,1.9,9.1,9.6,9.1c5.4,0,8.9-3.1,9.5-8.5h6c-0.7,8.8-6.8,14.5-15.5,14.5
	c-9.5,0-15.7-5.8-15.7-15.1v-13.1c0-9.1,6.4-15,15.7-15s15.6,5.7,15.6,15L474.5,250.3z M468.5,241.9c0-4.2-1.9-9.1-9.5-9.1
	c-6,0-9.6,3.3-9.6,9.1v2.6h19.2V241.9z"/>
<path class="st0" d="M485.5,212.1h6v46.7c0,3.5,2,4.6,4.4,4.6h1.9v5.9h-2.3c-5.5,0-10-3.1-10-10.8L485.5,212.1z"/>
<path class="st0" d="M506,241.9c0-9.3,6-15,15.3-15c3.7,0,7.4,1.4,9.4,4.1v-18.4h6v56.7h-6V266c-1.6,2.4-5.9,4-9.4,4
	c-9.2,0-15.4-6-15.4-15.1L506,241.9z M512,255c0,5.7,3.4,9.1,9.3,9.1c7.7,0,9.4-5,9.4-9.1v-13.1c0-5.8-3.5-9.1-9.4-9.1
	c-7.6,0-9.3,4.9-9.3,9.1V255z"/>
<path class="st0" d="M585.9,269.3h-7.1l-7.6-30.9l-7.5,30.9h-7l-9.8-41.8h6.2l7.3,32.7l8-32.7h5.7l8,32.8l7.3-32.8h6.2L585.9,269.3z
	"/>
<path class="st0" d="M605.5,220.6v-8.6h7.3v8.6H605.5z M606.2,269.3v-41.8h6v41.8H606.2z"/>
<path class="st0" d="M649.3,269.3v-27.4c0-4.1-0.9-9.1-8.6-9.1c-5.6,0-10.2,3.7-10.2,9v27.6h-6v-41.8h6v3.8
	c2.1-2.9,6.5-4.5,10.2-4.5c9.5,0,14.5,5.6,14.5,15v27.4L649.3,269.3z"/>
<path class="st0" d="M692.2,269.3l-12.6-19.9l-6.1,6.7v13.2h-6v-57.2h6v35.6l18.3-20.2h7.9l-16.1,17.6l15.8,24.2H692.2z"/>
<path class="st0" d="M737.1,250.3h-25.2v4.7c0,4.1,1.9,9.1,9.6,9.1c5.4,0,8.9-3.1,9.5-8.5h6c-0.7,8.8-6.8,14.5-15.5,14.5
	c-9.5,0-15.7-5.8-15.7-15.1v-13.1c0-9.1,6.4-15,15.7-15s15.6,5.7,15.6,15L737.1,250.3z M731.1,241.9c0-4.2-1.9-9.1-9.5-9.1
	c-6,0-9.6,3.3-9.6,9.1v2.6h19.1L731.1,241.9z"/>
<path class="st0" d="M748.1,212.1h6v46.7c0,3.5,2,4.6,4.4,4.6h1.9v5.9h-2.3c-5.5,0-10-3.1-10-10.8L748.1,212.1z"/>
<path class="st0" d="M783.4,269.9c-9,0-15.4-5.3-15.4-14.3h6c0,5.5,3.7,8.4,9.5,8.4c4.7,0,9.6-1.2,9.6-7.1c0-2.7-2-4.2-4.7-5
	c-3.1-0.8-7.6-1.8-10.6-2.6c-5.1-1.2-9.1-5.1-9.1-10.3c0-8.7,6.8-12.1,14.5-12.1c8.7,0,15,4.8,15.3,13.5h-6
	c-0.3-4.8-3.4-7.6-9.5-7.6c-4.1,0-8.4,1.2-8.4,6.2c0,2.2,1.9,4,4.6,4.7c3,0.7,7.6,1.7,11,2.7c4.9,1.5,8.7,4.9,8.7,10.5
	C799,266.5,791.8,269.9,783.4,269.9z"/>
<path class="st0" d="M255.1,127.6c0,70.5-57.1,127.6-127.6,127.6S0,198,0,127.6S57.1,0,127.6,0C198,0,255.1,57.1,255.1,127.6z
	 M76.8,99H100c0.7,0,1.3-0.6,1.3-1.3c2.2-14.5,15.7-24.5,30.2-22.3c11.5,1.7,20.5,10.8,22.3,22.3c0.1,0.7,0.7,1.3,1.4,1.3h23.2
	c0.7,0,1.3-0.6,1.3-1.3c-2.2-28.8-27.3-50.3-56.1-48.2c-25.7,2-46.2,22.4-48.2,48.2C75.4,98.4,76,99,76.8,99
	C76.7,99,76.7,99,76.8,99z M152.6,147.4c15.5-8.5,25.7-24.3,27-41.9c0-0.7-0.6-1.3-1.3-1.3h-23.2c-0.7,0-1.3,0.6-1.3,1.3
	c-2.1,14.5-15.6,24.5-30.1,22.3c-11.6-1.7-20.6-10.8-22.3-22.3c0-0.7-0.6-1.3-1.3-1.3H76.7c-0.7,0-1.3,0.6-1.3,1.3v0
	c1.3,17.6,11.5,33.4,27,41.9c-16.3,8.9-26.7,25.9-27.2,44.5c0,0.7,0.6,1.3,1.3,1.3h23.2c0.7,0,1.3-0.6,1.3-1.3c0,0,0,0,0,0
	c0.6-14.6,12.9-26,27.5-25.5c13.8,0.5,24.9,11.6,25.5,25.5c0,0.7,0.6,1.3,1.3,1.3h23.1c0.7,0,1.3-0.6,1.3-1.3c0,0,0,0,0,0
	C179.3,173.3,169,156.3,152.6,147.4L152.6,147.4z"/>
<path class="st0" d="M357,141.4c0,7.7-7.9,10.3-12.5,10.3s-12.5-2.6-12.5-10.3V99.6c0-7.7,7.9-10.3,12.5-10.3S357,91.9,357,99.6
	V141.4z M344.5,69.1c-22.3,0.1-32.7,15.7-32.7,29V143c0,13.3,10.4,28.9,32.7,29s32.6-15.7,32.6-29V98
	C377.1,84.8,366.8,69.1,344.5,69.1z"/>
<polygon class="st0" points="487.6,170.1 487.6,131 517.7,131 517.7,110.9 487.7,110.9 487.7,91 522.6,91 522.6,70.9 467.5,70.9 
	467.5,170.1 "/>
<path class="st0" d="M556.8,101.8l8,31.2h-16.3L556.8,101.8z M574.4,170.1h20.1l-26.3-99.2h-23.5l-25.9,99.2H539l4.6-17.6h26.3
	L574.4,170.1z"/>
<polygon class="st0" points="431.5,120.4 457.1,70.9 433.9,70.9 419.8,99.8 405.8,70.9 382.4,70.9 408.1,120.4 382.3,170.1 
	405.9,170.1 419.8,141.3 433.7,170.1 457.3,170.1 "/>
<polygon class="st0" points="659.4,70.9 641.6,109 623.7,70.9 603,70.9 603,170.1 622.7,170.1 622.7,113.7 635.4,140 648,140 
	660.6,113.7 660.6,170.1 680.3,170.1 680.3,70.9 "/>
<g>
	<path class="st1" d="M201.2,128.7c-10.2-6.7-14.1-16.5-13.9-28.3c13.2-8.2,7.4-24.4-2.5-28.8c-1.7-0.8-3-0.8-4.7-0.2
		c-4.5,1.5-9,3.1-13.6,4.3c-19.4,5-39.2,6-59.1,4.5C92.4,79.1,77.7,76,63.7,70.2c3.6-7.3,7.2-14.5,11.6-21.4
		c10.5-16.3,23.3-30.1,41.2-38.4c12.4-5.7,25.5-7,39-5.5c9.7,1.1,19.1,3.8,27.2,8.7c16.1,9.9,29.2,22.6,33,42.5
		c3,16.1,2.4,31.9-3,47.5c-2,5.8-3.3,11.7-3.3,17.8c-1.4,0.3-2.5,1.2-3.6,2.1C203.7,125,203.5,127.7,201.2,128.7z"/>
	<path class="st2" d="M63.7,70.2c14,5.8,28.7,8.9,43.8,10.1c19.9,1.5,39.7,0.5,59.1-4.5c4.6-1.2,9.1-2.7,13.6-4.3
		c1.7-0.6,3-0.6,4.7,0.2c9.8,4.4,15.7,20.5,2.5,28.8c-13.4,6.6-28,8.1-42.5,10.1c-18.3,2.5-36.5,1.1-54.6-1.7
		c-9.8-1.5-19.4-3.9-28.7-7.5c-6.4-2.5-10-7.6-9.9-14.3c0.1-6.2,3.4-11.2,8.7-14.7C61.5,71.5,62.6,70.9,63.7,70.2z"/>
	<path class="st2" d="M195.8,129.3c2.7-1.2,2.9-4.5,5.2-6.2c1.4-1,2.6-2.1,4.3-2.5c8.5-2.4,16,1.7,17.3,10.1
		c1.1,7.4-2,15.2-11.4,16.3c-8.3,1-14.6-4.7-15-13.6C196.1,132.1,195.9,130.7,195.8,129.3z"/>
</g>
</svg>
