<svg version="1.1" id="Laag_1" xmlns="http://www.w3.org/2000/svg" x="0" y="0" viewBox="0 0 799 270.1" xml:space="preserve"><style>.st0{fill:#61a534}.st1{fill:#ff3444}.st2{fill:#eae9ee}</style><path class="st0" d="M357.3 269.3h-7.4l-10.2-43.7-10.3 43.7H322l-11.8-56.7h6.2l9.3 47.1 11-47.1h5.9l10.9 47 9.4-47.1h6.3l-11.9 56.8zm49.5-19h-25.2v4.7c0 4.1 1.9 9.1 9.6 9.1 5.4 0 8.9-3.1 9.5-8.5h6c-.7 8.8-6.8 14.5-15.5 14.5-9.5 0-15.7-5.8-15.7-15.1v-13.1c0-9.1 6.4-15 15.7-15s15.6 5.7 15.6 15v8.4zm-6-8.4c0-4.2-1.9-9.1-9.5-9.1-6 0-9.6 3.3-9.6 9.1v2.6h19.2v-2.6zm30.6-8.4c-3.2 0-7.4 2.4-7.4 9.2v26.6h-6v-41.7h6v3.8c1.8-2.3 4.6-3.7 7.5-3.8h3.3v6l-3.4-.1zm43.1 16.8h-25.2v4.7c0 4.1 1.9 9.1 9.6 9.1 5.4 0 8.9-3.1 9.5-8.5h6c-.7 8.8-6.8 14.5-15.5 14.5-9.5 0-15.7-5.8-15.7-15.1v-13.1c0-9.1 6.4-15 15.7-15s15.6 5.7 15.6 15v8.4zm-6-8.4c0-4.2-1.9-9.1-9.5-9.1-6 0-9.6 3.3-9.6 9.1v2.6h19.2v-2.6zm17-29.8h6v46.7c0 3.5 2 4.6 4.4 4.6h1.9v5.9h-2.3c-5.5 0-10-3.1-10-10.8v-46.4zm20.5 29.8c0-9.3 6-15 15.3-15 3.7 0 7.4 1.4 9.4 4.1v-18.4h6v56.7h-6V266c-1.6 2.4-5.9 4-9.4 4-9.2 0-15.4-6-15.4-15.1l.1-13zm6 13.1c0 5.7 3.4 9.1 9.3 9.1 7.7 0 9.4-5 9.4-9.1v-13.1c0-5.8-3.5-9.1-9.4-9.1-7.6 0-9.3 4.9-9.3 9.1V255zm73.9 14.3h-7.1l-7.6-30.9-7.5 30.9h-7l-9.8-41.8h6.2l7.3 32.7 8-32.7h5.7l8 32.8 7.3-32.8h6.2l-9.7 41.8zm19.6-48.7V212h7.3v8.6h-7.3zm.7 48.7v-41.8h6v41.8h-6zm43.1 0v-27.4c0-4.1-.9-9.1-8.6-9.1-5.6 0-10.2 3.7-10.2 9v27.6h-6v-41.8h6v3.8c2.1-2.9 6.5-4.5 10.2-4.5 9.5 0 14.5 5.6 14.5 15v27.4h-5.9zm42.9 0l-12.6-19.9-6.1 6.7v13.2h-6v-57.2h6v35.6l18.3-20.2h7.9l-16.1 17.6 15.8 24.2h-7.2zm44.9-19h-25.2v4.7c0 4.1 1.9 9.1 9.6 9.1 5.4 0 8.9-3.1 9.5-8.5h6c-.7 8.8-6.8 14.5-15.5 14.5-9.5 0-15.7-5.8-15.7-15.1v-13.1c0-9.1 6.4-15 15.7-15s15.6 5.7 15.6 15v8.4zm-6-8.4c0-4.2-1.9-9.1-9.5-9.1-6 0-9.6 3.3-9.6 9.1v2.6h19.1v-2.6zm17-29.8h6v46.7c0 3.5 2 4.6 4.4 4.6h1.9v5.9h-2.3c-5.5 0-10-3.1-10-10.8v-46.4zm35.3 57.8c-9 0-15.4-5.3-15.4-14.3h6c0 5.5 3.7 8.4 9.5 8.4 4.7 0 9.6-1.2 9.6-7.1 0-2.7-2-4.2-4.7-5-3.1-.8-7.6-1.8-10.6-2.6-5.1-1.2-9.1-5.1-9.1-10.3 0-8.7 6.8-12.1 14.5-12.1 8.7 0 15 4.8 15.3 13.5h-6c-.3-4.8-3.4-7.6-9.5-7.6-4.1 0-8.4 1.2-8.4 6.2 0 2.2 1.9 4 4.6 4.7 3 .7 7.6 1.7 11 2.7 4.9 1.5 8.7 4.9 8.7 10.5.1 9.6-7.1 13-15.5 13zM255.1 127.6c0 70.5-57.1 127.6-127.6 127.6S0 198 0 127.6 57.1 0 127.6 0C198 0 255.1 57.1 255.1 127.6zM76.8 99H100c.7 0 1.3-.6 1.3-1.3 2.2-14.5 15.7-24.5 30.2-22.3 11.5 1.7 20.5 10.8 22.3 22.3.1.7.7 1.3 1.4 1.3h23.2c.7 0 1.3-.6 1.3-1.3-2.2-28.8-27.3-50.3-56.1-48.2-25.7 2-46.2 22.4-48.2 48.2 0 .7.6 1.3 1.4 1.3-.1 0-.1 0 0 0zm75.8 48.4c15.5-8.5 25.7-24.3 27-41.9 0-.7-.6-1.3-1.3-1.3h-23.2c-.7 0-1.3.6-1.3 1.3-2.1 14.5-15.6 24.5-30.1 22.3-11.6-1.7-20.6-10.8-22.3-22.3 0-.7-.6-1.3-1.3-1.3H76.7c-.7 0-1.3.6-1.3 1.3 1.3 17.6 11.5 33.4 27 41.9-16.3 8.9-26.7 25.9-27.2 44.5 0 .7.6 1.3 1.3 1.3h23.2c.7 0 1.3-.6 1.3-1.3.6-14.6 12.9-26 27.5-25.5 13.8.5 24.9 11.6 25.5 25.5 0 .7.6 1.3 1.3 1.3h23.1c.7 0 1.3-.6 1.3-1.3-.4-18.6-10.7-35.6-27.1-44.5zm204.4-6c0 7.7-7.9 10.3-12.5 10.3s-12.5-2.6-12.5-10.3V99.6c0-7.7 7.9-10.3 12.5-10.3S357 91.9 357 99.6v41.8zm-12.5-72.3c-22.3.1-32.7 15.7-32.7 29V143c0 13.3 10.4 28.9 32.7 29s32.6-15.7 32.6-29V98c0-13.2-10.3-28.9-32.6-28.9zm143.1 101V131h30.1v-20.1h-30V91h34.9V70.9h-55.1v99.2zm69.2-68.3l8 31.2h-16.3l8.3-31.2zm17.6 68.3h20.1l-26.3-99.2h-23.5l-25.9 99.2H539l4.6-17.6h26.3l4.5 17.6zm-142.9-49.7l25.6-49.5h-23.2l-14.1 28.9-14-28.9h-23.4l25.7 49.5-25.8 49.7h23.6l13.9-28.8 13.9 28.8h23.6zm227.9-49.5L641.6 109l-17.9-38.1H603v99.2h19.7v-56.4l12.7 26.3H648l12.6-26.3v56.4h19.7V70.9z"/><path class="st1" d="M201.2 128.7c-10.2-6.7-14.1-16.5-13.9-28.3 13.2-8.2 7.4-24.4-2.5-28.8-1.7-.8-3-.8-4.7-.2-4.5 1.5-9 3.1-13.6 4.3-19.4 5-39.2 6-59.1 4.5-15-1.1-29.7-4.2-43.7-10 3.6-7.3 7.2-14.5 11.6-21.4 10.5-16.3 23.3-30.1 41.2-38.4 12.4-5.7 25.5-7 39-5.5 9.7 1.1 19.1 3.8 27.2 8.7 16.1 9.9 29.2 22.6 33 42.5 3 16.1 2.4 31.9-3 47.5-2 5.8-3.3 11.7-3.3 17.8-1.4.3-2.5 1.2-3.6 2.1-2.1 1.5-2.3 4.2-4.6 5.2z"/><path class="st2" d="M63.7 70.2c14 5.8 28.7 8.9 43.8 10.1 19.9 1.5 39.7.5 59.1-4.5 4.6-1.2 9.1-2.7 13.6-4.3 1.7-.6 3-.6 4.7.2 9.8 4.4 15.7 20.5 2.5 28.8-13.4 6.6-28 8.1-42.5 10.1-18.3 2.5-36.5 1.1-54.6-1.7-9.8-1.5-19.4-3.9-28.7-7.5-6.4-2.5-10-7.6-9.9-14.3.1-6.2 3.4-11.2 8.7-14.7 1.1-.9 2.2-1.5 3.3-2.2zm132.1 59.1c2.7-1.2 2.9-4.5 5.2-6.2 1.4-1 2.6-2.1 4.3-2.5 8.5-2.4 16 1.7 17.3 10.1 1.1 7.4-2 15.2-11.4 16.3-8.3 1-14.6-4.7-15-13.6-.1-1.3-.3-2.7-.4-4.1z"/></svg>