<svg xmlns="http://www.w3.org/2000/svg" viewBox="0 0 50 45"><defs><style>.cls-1{fill:#fff;}</style></defs><g id="Laag_2" data-name="Laag 2"><g id="Laag_1-2" data-name="Laag 1"><g id="Group_1" data-name="Group 1"><path id="Path_1" data-name="Path 1" class="cls-1" d="M49.58.32A1.25,1.25,0,0,0,48.26.1L.76,20.1A1.25,1.25,0,0,0,.1,21.74a1.28,1.28,0,0,0,.76.7L15,27.15v14.1a1.26,1.26,0,0,0,.84,1.18,1.14,1.14,0,0,0,.41.07,1.24,1.24,0,0,0,1-.46l6.91-8.5,11.24,11.1a1.27,1.27,0,0,0,.88.36,1.06,1.06,0,0,0,.31,0,1.25,1.25,0,0,0,.89-.86L50,1.6A1.24,1.24,0,0,0,49.58.32ZM40.33,6.15,16,24.85,4.79,21.11ZM17.5,26.87,41,8.76l-18,22.14h0L17.5,37.73ZM35.64,41.39l-9.93-9.8L45.79,6.87,35.64,41.39Z"/></g></g></g></svg>