<svg width="24" height="20" viewBox="0 0 24 20" fill="none" xmlns="http://www.w3.org/2000/svg">
<path d="M21.0951 12.7762L23.9324 4.85024C24.0747 4.46921 23.967 4.24015 23.8521 4.08891C23.5579 3.70201 22.953 3.69834 22.8358 3.69834L6.80096 3.6954L6.37305 1.80053C6.25742 1.35343 5.91603 0.92688 5.22775 0.92688H0.721314C0.254072 0.92688 0 1.13098 0 1.53844V2.63234C0 3.02658 0.253286 3.12936 0.737832 3.12936H4.54262L7.45462 14.6682C6.9921 15.1256 6.74039 15.7922 6.74039 16.414C6.74039 17.7825 7.90771 19.0438 9.3991 19.0438C10.8071 19.0438 11.8627 17.8126 12.0342 17.0784H17.7056C17.8771 17.8126 18.7321 19.0731 20.3399 19.0731C21.8054 19.0731 22.9971 17.8882 22.9971 16.5219C22.9971 15.163 22.1122 13.9582 20.3549 13.9582C19.6241 13.9582 18.7573 14.3253 18.3546 14.8759H11.3861C10.8803 14.1418 10.1896 13.9142 9.49113 13.8885L9.39438 13.4076H19.997C20.7962 13.4076 20.9535 13.136 21.0951 12.7762ZM20.3596 15.5595C20.911 15.5595 21.3586 15.9772 21.3586 16.4918C21.3586 17.0065 20.911 17.4242 20.3596 17.4242C19.8082 17.4242 19.3598 17.0072 19.3598 16.4918C19.3606 15.9772 19.8082 15.5595 20.3596 15.5595ZM10.3871 16.4918C10.3871 17.0124 9.93399 17.436 9.37786 17.436C8.82016 17.4345 8.36629 17.0124 8.36629 16.4918C8.36629 15.9713 8.82016 15.5477 9.37786 15.5477C9.93399 15.5477 10.3871 15.9713 10.3871 16.4918Z" fill="#60A434"/>
</svg>
